<?xml version="1.0" encoding="utf-8" standalone="no"?>
<!DOCTYPE svg PUBLIC "-//W3C//DTD SVG 1.1//EN"
  "http://www.w3.org/Graphics/SVG/1.1/DTD/svg11.dtd">
<!-- Created with matplotlib (http://matplotlib.org/) -->
<svg height="432pt" version="1.1" viewBox="0 0 576 432" width="576pt" xmlns="http://www.w3.org/2000/svg" xmlns:xlink="http://www.w3.org/1999/xlink">
 <defs>
  <style type="text/css">
*{stroke-linecap:butt;stroke-linejoin:round;stroke-miterlimit:100000;}
  </style>
 </defs>
 <g id="figure_1">
  <g id="patch_1">
   <path d="M 0 432 
L 576 432 
L 576 0 
L 0 0 
z
" style="fill:#ffffff;"/>
  </g>
  <g id="axes_1">
   <g id="patch_2">
    <path d="M 72 388.8 
L 518.4 388.8 
L 518.4 43.2 
L 72 43.2 
z
" style="fill:#ffffff;"/>
   </g>
   <g id="line2d_1">
    <path clip-path="url(#pfefebf4cb0)" d="M 72 340.802765 
L 74.48 340.55951 
L 76.96 340.804286 
L 79.44 340.764286 
L 84.4 341.307626 
L 86.88 340.221424 
L 89.36 340.690186 
L 91.84 341.560348 
L 94.32 340.651535 
L 96.8 341.476552 
L 99.28 340.431439 
L 101.76 341.317666 
L 104.24 341.351016 
L 106.72 340.507927 
L 109.2 340.911395 
L 111.68 340.609072 
L 114.16 340.544722 
L 116.64 340.759806 
L 119.12 340.565886 
L 121.6 341.01766 
L 124.08 340.926921 
L 126.56 341.262381 
L 129.04 341.334854 
L 134 340.760047 
L 136.48 340.84209 
L 138.96 340.616131 
L 141.44 340.653007 
L 143.92 340.951296 
L 146.4 340.623032 
L 148.88 340.783905 
L 151.36 340.614673 
L 153.84 340.556989 
L 156.32 341.07274 
L 158.8 340.882586 
L 161.28 340.851339 
L 166.24 341.05141 
L 168.72 340.801624 
L 171.2 340.681638 
L 173.68 340.802307 
L 176.16 340.570457 
L 178.64 340.510597 
L 181.12 340.867941 
L 183.6 340.823272 
L 186.08 340.613149 
L 188.56 340.558032 
L 191.04 340.794276 
L 196 340.566421 
L 200.96 340.864617 
L 205.92 340.520143 
L 208.4 340.737546 
L 210.88 340.454767 
L 223.28 340.541479 
L 230.72 340.282764 
L 233.2 340.626213 
L 243.12 340.316976 
L 245.6 340.083576 
L 253.04 339.845383 
L 255.52 339.800457 
L 258 339.875469 
L 260.48 339.566659 
L 262.96 339.658819 
L 265.44 339.142707 
L 270.4 338.512044 
L 275.36 338.894043 
L 285.28 338.323579 
L 287.76 338.358991 
L 290.24 338.104706 
L 292.72 338.495672 
L 295.2 337.991037 
L 297.68 338.406871 
L 300.16 338.187286 
L 302.64 337.596192 
L 305.12 337.954982 
L 307.6 337.576381 
L 310.08 337.425512 
L 312.56 337.401029 
L 315.04 337.640977 
L 317.52 337.709928 
L 322.48 337.329005 
L 324.96 337.725218 
L 327.44 337.699131 
L 339.84 336.615292 
L 342.32 336.206235 
L 344.8 335.328575 
L 347.28 334.827931 
L 349.76 333.668031 
L 352.24 332.762078 
L 354.72 334.156782 
L 357.2 335.362436 
L 362.16 332.697391 
L 364.64 332.201034 
L 369.6 333.821304 
L 372.08 333.124673 
L 374.56 332.035354 
L 377.04 333.317557 
L 379.52 331.323719 
L 382 331.145458 
L 384.48 331.875137 
L 386.96 330.898208 
L 389.44 331.214195 
L 391.92 330.641127 
L 394.4 331.4165 
L 396.88 332.660162 
L 399.36 333.349831 
L 401.84 333.186762 
L 404.32 331.690146 
L 406.8 332.845836 
L 409.28 331.672183 
L 411.76 332.512587 
L 414.24 330.793145 
L 416.72 331.740328 
L 419.2 331.866943 
L 421.68 330.567617 
L 424.16 329.413139 
L 426.64 329.701159 
L 429.12 331.440011 
L 431.6 331.54069 
L 434.08 331.208603 
L 436.56 332.190072 
L 439.04 331.378514 
L 441.52 331.722407 
L 444 328.265228 
L 446.48 329.519588 
L 451.44 327.755891 
L 453.92 328.574515 
L 456.4 330.072719 
L 458.88 327.548823 
L 461.36 331.28103 
L 463.84 328.760846 
L 466.32 327.920854 
L 468.8 329.642301 
L 471.28 329.199423 
L 473.76 329.943226 
L 476.24 326.998133 
L 478.72 328.312639 
L 481.2 324.413212 
L 483.68 327.345889 
L 483.68 327.345889 
" style="fill:none;stroke:#0000ff;stroke-linecap:square;"/>
   </g>
   <g id="line2d_2">
    <path clip-path="url(#pfefebf4cb0)" d="M 72 341.633264 
L 74.48 341.740127 
L 79.44 341.671656 
L 84.4 342.277359 
L 86.88 340.975612 
L 89.36 341.683919 
L 91.84 342.807021 
L 94.32 341.68838 
L 96.8 342.776324 
L 99.28 341.358386 
L 101.76 342.450998 
L 104.24 342.205522 
L 106.72 341.389329 
L 109.2 342.037412 
L 111.68 341.361366 
L 114.16 341.234137 
L 116.64 341.666715 
L 119.12 341.365407 
L 121.6 342.100325 
L 124.08 341.947491 
L 126.56 342.387771 
L 129.04 342.014175 
L 131.52 342.382938 
L 134 341.794239 
L 136.48 341.75399 
L 138.96 341.343252 
L 141.44 341.568994 
L 143.92 341.913095 
L 146.4 341.420657 
L 148.88 341.696658 
L 153.84 341.536991 
L 156.32 342.141069 
L 158.8 341.815065 
L 163.76 342.148512 
L 166.24 342.28202 
L 168.72 341.802851 
L 171.2 341.728934 
L 173.68 341.782709 
L 176.16 341.561259 
L 181.12 342.021215 
L 183.6 341.781969 
L 186.08 341.660131 
L 188.56 341.777869 
L 191.04 342.075572 
L 196 341.746478 
L 198.48 341.87617 
L 200.96 342.199101 
L 203.44 342.061654 
L 205.92 341.756882 
L 208.4 342.066367 
L 210.88 341.93398 
L 213.36 342.041512 
L 218.32 342.01695 
L 220.8 342.16158 
L 223.28 342.018683 
L 228.24 342.056448 
L 230.72 341.859699 
L 233.2 342.12104 
L 235.68 342.135747 
L 238.16 342.037858 
L 240.64 342.05592 
L 243.12 341.950405 
L 248.08 341.965033 
L 250.56 341.711415 
L 253.04 341.92417 
L 260.48 341.853927 
L 262.96 341.968961 
L 265.44 341.9297 
L 270.4 341.346675 
L 272.88 341.668808 
L 275.36 341.773563 
L 280.32 341.486485 
L 282.8 341.247536 
L 285.28 341.433501 
L 287.76 341.422507 
L 290.24 341.223683 
L 292.72 341.629435 
L 295.2 341.15076 
L 297.68 341.256337 
L 300.16 341.119134 
L 302.64 340.742884 
L 305.12 341.219983 
L 307.6 340.621207 
L 310.08 340.472512 
L 317.52 341.175037 
L 320 340.821165 
L 322.48 340.940708 
L 324.96 341.385207 
L 327.44 341.545796 
L 329.92 341.090608 
L 334.88 340.969597 
L 339.84 340.71256 
L 342.32 341.513938 
L 344.8 342.500738 
L 347.28 342.561027 
L 349.76 342.891128 
L 352.24 341.566485 
L 354.72 342.403198 
L 357.2 342.792649 
L 359.68 342.103327 
L 362.16 342.371133 
L 364.64 341.991713 
L 367.12 343.017607 
L 369.6 342.658007 
L 372.08 342.474066 
L 374.56 342.835013 
L 377.04 342.92945 
L 379.52 342.33904 
L 382 342.268559 
L 384.48 342.746658 
L 386.96 341.429209 
L 389.44 342.640903 
L 391.92 341.843484 
L 394.4 342.226044 
L 396.88 343.340425 
L 399.36 345.082992 
L 401.84 344.69492 
L 404.32 343.083838 
L 406.8 344.294881 
L 409.28 343.781467 
L 411.76 345.830753 
L 414.24 342.767604 
L 416.72 344.283945 
L 419.2 343.854968 
L 421.68 343.821485 
L 424.16 343.180127 
L 426.64 342.309804 
L 429.12 344.211486 
L 434.08 344.806145 
L 436.56 344.506849 
L 439.04 344.78834 
L 441.52 343.091041 
L 444 342.233224 
L 446.48 343.058814 
L 448.96 342.435092 
L 451.44 341.304228 
L 453.92 343.710732 
L 456.4 345.770282 
L 458.88 343.921503 
L 461.36 346.063881 
L 463.84 343.261735 
L 466.32 345.140745 
L 468.8 343.886832 
L 471.28 343.915217 
L 473.76 345.093812 
L 476.24 342.21513 
L 478.72 343.885382 
L 481.2 339.771512 
L 483.68 359.779396 
L 483.68 359.779396 
" style="fill:none;stroke:#008000;stroke-dasharray:3.000000,5.000000,1.000000,5.000000;stroke-dashoffset:0.0;"/>
   </g>
   <g id="line2d_3">
    <path clip-path="url(#pfefebf4cb0)" d="M 72 339.972266 
L 74.48 339.378892 
L 76.96 339.932585 
L 79.44 339.856917 
L 81.92 340.005683 
L 84.4 340.337892 
L 86.88 339.467236 
L 89.36 339.696453 
L 91.84 340.313676 
L 94.32 339.614689 
L 96.8 340.176779 
L 99.28 339.504492 
L 101.76 340.184335 
L 104.24 340.49651 
L 106.72 339.626525 
L 111.68 339.856778 
L 124.08 339.906351 
L 126.56 340.136992 
L 129.04 340.655532 
L 131.52 339.756715 
L 134 339.725854 
L 136.48 339.93019 
L 141.44 339.73702 
L 143.92 339.989498 
L 146.4 339.825407 
L 148.88 339.871153 
L 151.36 339.566822 
L 153.84 339.576987 
L 156.32 340.004411 
L 158.8 339.950107 
L 161.28 339.69476 
L 163.76 339.863876 
L 171.2 339.634341 
L 173.68 339.821904 
L 178.64 339.252974 
L 181.12 339.714667 
L 183.6 339.864576 
L 188.56 339.338196 
L 191.04 339.51298 
L 196 339.386364 
L 200.96 339.530133 
L 203.44 339.267576 
L 208.4 339.408724 
L 210.88 338.975554 
L 213.36 338.926425 
L 215.84 339.137341 
L 218.32 339.132789 
L 220.8 338.931165 
L 223.28 339.064274 
L 225.76 338.83084 
L 230.72 338.705829 
L 233.2 339.131386 
L 235.68 339.012657 
L 238.16 339.049969 
L 240.64 338.74733 
L 243.12 338.683547 
L 245.6 338.177046 
L 248.08 337.985159 
L 255.52 337.693491 
L 258 337.861714 
L 260.48 337.279391 
L 262.96 337.348676 
L 265.44 336.355713 
L 267.92 335.922838 
L 270.4 335.677414 
L 275.36 336.014522 
L 277.84 335.834296 
L 280.32 335.842419 
L 282.8 335.708883 
L 285.28 335.213656 
L 287.76 335.295475 
L 290.24 334.985729 
L 292.72 335.361909 
L 295.2 334.831315 
L 297.68 335.557405 
L 300.16 335.255438 
L 302.64 334.4495 
L 305.12 334.689982 
L 310.08 334.378511 
L 312.56 334.101118 
L 315.04 334.276565 
L 320 334.290901 
L 322.48 333.717302 
L 324.96 334.065229 
L 327.44 333.852465 
L 329.92 333.892884 
L 339.84 332.518024 
L 342.32 330.898531 
L 344.8 328.156412 
L 347.28 327.094836 
L 349.76 324.444933 
L 352.24 323.957671 
L 357.2 327.932223 
L 359.68 325.913249 
L 362.16 323.023649 
L 364.64 322.410354 
L 367.12 322.923393 
L 369.6 324.984601 
L 372.08 323.775279 
L 374.56 321.235696 
L 377.04 323.705663 
L 379.52 320.308399 
L 382 320.022357 
L 384.48 321.003617 
L 389.44 319.787487 
L 391.92 319.43877 
L 394.4 320.606957 
L 396.88 321.9799 
L 399.36 321.616669 
L 401.84 321.678604 
L 404.32 320.296455 
L 406.8 321.39679 
L 409.28 319.562898 
L 414.24 318.818685 
L 416.72 319.196712 
L 419.2 319.878918 
L 421.68 317.313749 
L 424.16 315.646151 
L 426.64 317.092513 
L 429.12 318.668537 
L 431.6 318.602078 
L 434.08 317.611061 
L 436.56 319.873295 
L 439.04 317.968688 
L 441.52 320.353773 
L 444 314.297232 
L 446.48 315.980363 
L 448.96 314.917359 
L 453.92 313.438299 
L 456.4 314.375157 
L 458.88 311.176142 
L 461.36 316.498179 
L 463.84 314.259957 
L 466.32 310.700962 
L 468.8 315.397769 
L 471.28 314.48363 
L 473.76 314.79264 
L 476.24 311.781136 
L 478.72 312.739895 
L 481.2 309.054911 
L 483.68 294.912381 
L 483.68 294.912381 
" style="fill:none;stroke:#008000;stroke-dasharray:3.000000,5.000000,1.000000,5.000000;stroke-dashoffset:0.0;"/>
   </g>
   <g id="line2d_4">
    <path clip-path="url(#pfefebf4cb0)" d="M 72 339.504341 
L 74.48 339.267092 
L 76.96 339.248199 
L 79.44 339.627803 
L 81.92 339.448981 
L 84.4 339.655006 
L 86.88 338.737257 
L 89.36 339.334384 
L 91.84 339.639 
L 104.24 339.727553 
L 106.72 339.257687 
L 109.2 339.615341 
L 116.64 339.674397 
L 121.6 339.645254 
L 126.56 339.649871 
L 129.04 340.467208 
L 131.52 339.261373 
L 134 339.650098 
L 146.4 339.657521 
L 148.88 338.698882 
L 151.36 338.566792 
L 153.84 339.109203 
L 156.32 338.489749 
L 158.8 338.911847 
L 161.28 338.747256 
L 163.76 338.962901 
L 166.24 339.63204 
L 168.72 337.910295 
L 171.2 336.613098 
L 173.68 337.84731 
L 176.16 337.484852 
L 178.64 336.868809 
L 181.12 336.80264 
L 183.6 337.639893 
L 186.08 336.952567 
L 188.56 336.783676 
L 191.04 337.157057 
L 193.52 336.82037 
L 196 337.228825 
L 198.48 337.008663 
L 200.96 336.379956 
L 203.44 335.913099 
L 208.4 337.332737 
L 213.36 336.209666 
L 215.84 334.974485 
L 218.32 336.720485 
L 220.8 334.935989 
L 223.28 333.578768 
L 225.76 331.402502 
L 228.24 333.341309 
L 230.72 332.69164 
L 233.2 336.820183 
L 235.68 335.843206 
L 238.16 335.996754 
L 240.64 334.834824 
L 243.12 334.858034 
L 245.6 333.012455 
L 248.08 334.392615 
L 250.56 335.270063 
L 253.04 333.970669 
L 255.52 333.765779 
L 258 335.000759 
L 260.48 333.994823 
L 262.96 334.236269 
L 265.44 331.573637 
L 267.92 331.147864 
L 270.4 330.3333 
L 272.88 326.602376 
L 275.36 331.351611 
L 277.84 328.575074 
L 280.32 333.043817 
L 282.8 332.257129 
L 285.28 330.828408 
L 287.76 330.934158 
L 290.24 330.516495 
L 292.72 327.193563 
L 295.2 327.531353 
L 297.68 332.978314 
L 300.16 333.09217 
L 302.64 331.74724 
L 305.12 331.694426 
L 307.6 330.666439 
L 310.08 330.918806 
L 312.56 328.464474 
L 315.04 330.594507 
L 317.52 330.590866 
L 320 328.950025 
L 322.48 326.45219 
L 324.96 327.280011 
L 327.44 327.161451 
L 329.92 330.628105 
L 334.88 330.561802 
L 337.36 329.329485 
L 339.84 321.118962 
L 342.32 309.873595 
L 344.8 310.410095 
L 347.28 308.991263 
L 349.76 309.533253 
L 352.24 309.129135 
L 354.72 309.931863 
L 359.68 310.55018 
L 362.16 309.051451 
L 364.64 307.685191 
L 367.12 307.728527 
L 369.6 309.927342 
L 372.08 305.859733 
L 374.56 296.700041 
L 377.04 302.596994 
L 379.52 286.755083 
L 382 304.009573 
L 384.48 305.432614 
L 386.96 304.775175 
L 389.44 302.951158 
L 391.92 294.991377 
L 394.4 296.552788 
L 396.88 305.368849 
L 399.36 305.991226 
L 401.84 304.106634 
L 404.32 291.801464 
L 406.8 304.387498 
L 409.28 296.007096 
L 411.76 292.063798 
L 414.24 298.426684 
L 416.72 295.505983 
L 419.2 294.318049 
L 421.68 295.84604 
L 424.16 284.4324 
L 426.64 292.678467 
L 429.12 296.470465 
L 431.6 291.781753 
L 434.08 274.807058 
L 436.56 288.318493 
L 439.04 274.073661 
L 441.52 297.283672 
L 444 293.395955 
L 446.48 289.106285 
L 448.96 289.676788 
L 451.44 296.274403 
L 453.92 280.094715 
L 456.4 259.085407 
L 458.88 277.883543 
L 461.36 282.489278 
L 463.84 279.631323 
L 466.32 245.774304 
L 468.8 302.840438 
L 471.28 285.286029 
L 473.76 286.449802 
L 476.24 288.456433 
L 478.72 290.101928 
L 481.2 292.092452 
L 483.68 45.005996 
L 483.68 45.005996 
" style="fill:none;stroke:#ff0000;stroke-linecap:square;"/>
   </g>
   <g id="patch_3">
    <path d="M 72 43.2 
L 518.4 43.2 
" style="fill:none;stroke:#000000;stroke-linecap:square;stroke-linejoin:miter;"/>
   </g>
   <g id="patch_4">
    <path d="M 518.4 388.8 
L 518.4 43.2 
" style="fill:none;stroke:#000000;stroke-linecap:square;stroke-linejoin:miter;"/>
   </g>
   <g id="patch_5">
    <path d="M 72 388.8 
L 518.4 388.8 
" style="fill:none;stroke:#000000;stroke-linecap:square;stroke-linejoin:miter;"/>
   </g>
   <g id="patch_6">
    <path d="M 72 388.8 
L 72 43.2 
" style="fill:none;stroke:#000000;stroke-linecap:square;stroke-linejoin:miter;"/>
   </g>
   <g id="matplotlib.axis_1">
    <g id="xtick_1">
     <g id="line2d_5">
      <path clip-path="url(#pfefebf4cb0)" d="M 72 388.8 
L 72 43.2 
" style="fill:none;stroke:#000000;stroke-dasharray:1.000000,3.000000;stroke-dashoffset:0.0;stroke-width:0.5;"/>
     </g>
     <g id="line2d_6">
      <defs>
       <path d="M 0 0 
L 0 -4 
" id="m00dff3b8b9" style="stroke:#000000;stroke-width:0.5;"/>
      </defs>
      <g>
       <use style="stroke:#000000;stroke-width:0.5;" x="72.0" xlink:href="#m00dff3b8b9" y="388.8"/>
      </g>
     </g>
     <g id="line2d_7">
      <defs>
       <path d="M 0 0 
L 0 4 
" id="m66b8d1785f" style="stroke:#000000;stroke-width:0.5;"/>
      </defs>
      <g>
       <use style="stroke:#000000;stroke-width:0.5;" x="72.0" xlink:href="#m66b8d1785f" y="43.2"/>
      </g>
     </g>
     <g id="text_1">
      <!-- 0 -->
      <defs>
       <path d="M 31.78125 66.40625 
Q 24.171875 66.40625 20.328125 58.90625 
Q 16.5 51.421875 16.5 36.375 
Q 16.5 21.390625 20.328125 13.890625 
Q 24.171875 6.390625 31.78125 6.390625 
Q 39.453125 6.390625 43.28125 13.890625 
Q 47.125 21.390625 47.125 36.375 
Q 47.125 51.421875 43.28125 58.90625 
Q 39.453125 66.40625 31.78125 66.40625 
M 31.78125 74.21875 
Q 44.046875 74.21875 50.515625 64.515625 
Q 56.984375 54.828125 56.984375 36.375 
Q 56.984375 17.96875 50.515625 8.265625 
Q 44.046875 -1.421875 31.78125 -1.421875 
Q 19.53125 -1.421875 13.0625 8.265625 
Q 6.59375 17.96875 6.59375 36.375 
Q 6.59375 54.828125 13.0625 64.515625 
Q 19.53125 74.21875 31.78125 74.21875 
" id="BitstreamVeraSans-Roman-30"/>
      </defs>
      <g transform="translate(68.1825 401.918125)scale(0.12 -0.12)">
       <use xlink:href="#BitstreamVeraSans-Roman-30"/>
      </g>
     </g>
    </g>
    <g id="xtick_2">
     <g id="line2d_8">
      <path clip-path="url(#pfefebf4cb0)" d="M 121.6 388.8 
L 121.6 43.2 
" style="fill:none;stroke:#000000;stroke-dasharray:1.000000,3.000000;stroke-dashoffset:0.0;stroke-width:0.5;"/>
     </g>
     <g id="line2d_9">
      <g>
       <use style="stroke:#000000;stroke-width:0.5;" x="121.6" xlink:href="#m00dff3b8b9" y="388.8"/>
      </g>
     </g>
     <g id="line2d_10">
      <g>
       <use style="stroke:#000000;stroke-width:0.5;" x="121.6" xlink:href="#m66b8d1785f" y="43.2"/>
      </g>
     </g>
     <g id="text_2">
      <!-- 20 -->
      <defs>
       <path d="M 19.1875 8.296875 
L 53.609375 8.296875 
L 53.609375 0 
L 7.328125 0 
L 7.328125 8.296875 
Q 12.9375 14.109375 22.625 23.890625 
Q 32.328125 33.6875 34.8125 36.53125 
Q 39.546875 41.84375 41.421875 45.53125 
Q 43.3125 49.21875 43.3125 52.78125 
Q 43.3125 58.59375 39.234375 62.25 
Q 35.15625 65.921875 28.609375 65.921875 
Q 23.96875 65.921875 18.8125 64.3125 
Q 13.671875 62.703125 7.8125 59.421875 
L 7.8125 69.390625 
Q 13.765625 71.78125 18.9375 73 
Q 24.125 74.21875 28.421875 74.21875 
Q 39.75 74.21875 46.484375 68.546875 
Q 53.21875 62.890625 53.21875 53.421875 
Q 53.21875 48.921875 51.53125 44.890625 
Q 49.859375 40.875 45.40625 35.40625 
Q 44.1875 33.984375 37.640625 27.21875 
Q 31.109375 20.453125 19.1875 8.296875 
" id="BitstreamVeraSans-Roman-32"/>
      </defs>
      <g transform="translate(113.965 401.918125)scale(0.12 -0.12)">
       <use xlink:href="#BitstreamVeraSans-Roman-32"/>
       <use x="63.623046875" xlink:href="#BitstreamVeraSans-Roman-30"/>
      </g>
     </g>
    </g>
    <g id="xtick_3">
     <g id="line2d_11">
      <path clip-path="url(#pfefebf4cb0)" d="M 171.2 388.8 
L 171.2 43.2 
" style="fill:none;stroke:#000000;stroke-dasharray:1.000000,3.000000;stroke-dashoffset:0.0;stroke-width:0.5;"/>
     </g>
     <g id="line2d_12">
      <g>
       <use style="stroke:#000000;stroke-width:0.5;" x="171.2" xlink:href="#m00dff3b8b9" y="388.8"/>
      </g>
     </g>
     <g id="line2d_13">
      <g>
       <use style="stroke:#000000;stroke-width:0.5;" x="171.2" xlink:href="#m66b8d1785f" y="43.2"/>
      </g>
     </g>
     <g id="text_3">
      <!-- 40 -->
      <defs>
       <path d="M 37.796875 64.3125 
L 12.890625 25.390625 
L 37.796875 25.390625 
z
M 35.203125 72.90625 
L 47.609375 72.90625 
L 47.609375 25.390625 
L 58.015625 25.390625 
L 58.015625 17.1875 
L 47.609375 17.1875 
L 47.609375 0 
L 37.796875 0 
L 37.796875 17.1875 
L 4.890625 17.1875 
L 4.890625 26.703125 
z
" id="BitstreamVeraSans-Roman-34"/>
      </defs>
      <g transform="translate(163.565 401.918125)scale(0.12 -0.12)">
       <use xlink:href="#BitstreamVeraSans-Roman-34"/>
       <use x="63.623046875" xlink:href="#BitstreamVeraSans-Roman-30"/>
      </g>
     </g>
    </g>
    <g id="xtick_4">
     <g id="line2d_14">
      <path clip-path="url(#pfefebf4cb0)" d="M 220.8 388.8 
L 220.8 43.2 
" style="fill:none;stroke:#000000;stroke-dasharray:1.000000,3.000000;stroke-dashoffset:0.0;stroke-width:0.5;"/>
     </g>
     <g id="line2d_15">
      <g>
       <use style="stroke:#000000;stroke-width:0.5;" x="220.8" xlink:href="#m00dff3b8b9" y="388.8"/>
      </g>
     </g>
     <g id="line2d_16">
      <g>
       <use style="stroke:#000000;stroke-width:0.5;" x="220.8" xlink:href="#m66b8d1785f" y="43.2"/>
      </g>
     </g>
     <g id="text_4">
      <!-- 60 -->
      <defs>
       <path d="M 33.015625 40.375 
Q 26.375 40.375 22.484375 35.828125 
Q 18.609375 31.296875 18.609375 23.390625 
Q 18.609375 15.53125 22.484375 10.953125 
Q 26.375 6.390625 33.015625 6.390625 
Q 39.65625 6.390625 43.53125 10.953125 
Q 47.40625 15.53125 47.40625 23.390625 
Q 47.40625 31.296875 43.53125 35.828125 
Q 39.65625 40.375 33.015625 40.375 
M 52.59375 71.296875 
L 52.59375 62.3125 
Q 48.875 64.0625 45.09375 64.984375 
Q 41.3125 65.921875 37.59375 65.921875 
Q 27.828125 65.921875 22.671875 59.328125 
Q 17.53125 52.734375 16.796875 39.40625 
Q 19.671875 43.65625 24.015625 45.921875 
Q 28.375 48.1875 33.59375 48.1875 
Q 44.578125 48.1875 50.953125 41.515625 
Q 57.328125 34.859375 57.328125 23.390625 
Q 57.328125 12.15625 50.6875 5.359375 
Q 44.046875 -1.421875 33.015625 -1.421875 
Q 20.359375 -1.421875 13.671875 8.265625 
Q 6.984375 17.96875 6.984375 36.375 
Q 6.984375 53.65625 15.1875 63.9375 
Q 23.390625 74.21875 37.203125 74.21875 
Q 40.921875 74.21875 44.703125 73.484375 
Q 48.484375 72.75 52.59375 71.296875 
" id="BitstreamVeraSans-Roman-36"/>
      </defs>
      <g transform="translate(213.165 401.918125)scale(0.12 -0.12)">
       <use xlink:href="#BitstreamVeraSans-Roman-36"/>
       <use x="63.623046875" xlink:href="#BitstreamVeraSans-Roman-30"/>
      </g>
     </g>
    </g>
    <g id="xtick_5">
     <g id="line2d_17">
      <path clip-path="url(#pfefebf4cb0)" d="M 270.4 388.8 
L 270.4 43.2 
" style="fill:none;stroke:#000000;stroke-dasharray:1.000000,3.000000;stroke-dashoffset:0.0;stroke-width:0.5;"/>
     </g>
     <g id="line2d_18">
      <g>
       <use style="stroke:#000000;stroke-width:0.5;" x="270.4" xlink:href="#m00dff3b8b9" y="388.8"/>
      </g>
     </g>
     <g id="line2d_19">
      <g>
       <use style="stroke:#000000;stroke-width:0.5;" x="270.4" xlink:href="#m66b8d1785f" y="43.2"/>
      </g>
     </g>
     <g id="text_5">
      <!-- 80 -->
      <defs>
       <path d="M 31.78125 34.625 
Q 24.75 34.625 20.71875 30.859375 
Q 16.703125 27.09375 16.703125 20.515625 
Q 16.703125 13.921875 20.71875 10.15625 
Q 24.75 6.390625 31.78125 6.390625 
Q 38.8125 6.390625 42.859375 10.171875 
Q 46.921875 13.96875 46.921875 20.515625 
Q 46.921875 27.09375 42.890625 30.859375 
Q 38.875 34.625 31.78125 34.625 
M 21.921875 38.8125 
Q 15.578125 40.375 12.03125 44.71875 
Q 8.5 49.078125 8.5 55.328125 
Q 8.5 64.0625 14.71875 69.140625 
Q 20.953125 74.21875 31.78125 74.21875 
Q 42.671875 74.21875 48.875 69.140625 
Q 55.078125 64.0625 55.078125 55.328125 
Q 55.078125 49.078125 51.53125 44.71875 
Q 48 40.375 41.703125 38.8125 
Q 48.828125 37.15625 52.796875 32.3125 
Q 56.78125 27.484375 56.78125 20.515625 
Q 56.78125 9.90625 50.3125 4.234375 
Q 43.84375 -1.421875 31.78125 -1.421875 
Q 19.734375 -1.421875 13.25 4.234375 
Q 6.78125 9.90625 6.78125 20.515625 
Q 6.78125 27.484375 10.78125 32.3125 
Q 14.796875 37.15625 21.921875 38.8125 
M 18.3125 54.390625 
Q 18.3125 48.734375 21.84375 45.5625 
Q 25.390625 42.390625 31.78125 42.390625 
Q 38.140625 42.390625 41.71875 45.5625 
Q 45.3125 48.734375 45.3125 54.390625 
Q 45.3125 60.0625 41.71875 63.234375 
Q 38.140625 66.40625 31.78125 66.40625 
Q 25.390625 66.40625 21.84375 63.234375 
Q 18.3125 60.0625 18.3125 54.390625 
" id="BitstreamVeraSans-Roman-38"/>
      </defs>
      <g transform="translate(262.765 401.918125)scale(0.12 -0.12)">
       <use xlink:href="#BitstreamVeraSans-Roman-38"/>
       <use x="63.623046875" xlink:href="#BitstreamVeraSans-Roman-30"/>
      </g>
     </g>
    </g>
    <g id="xtick_6">
     <g id="line2d_20">
      <path clip-path="url(#pfefebf4cb0)" d="M 320 388.8 
L 320 43.2 
" style="fill:none;stroke:#000000;stroke-dasharray:1.000000,3.000000;stroke-dashoffset:0.0;stroke-width:0.5;"/>
     </g>
     <g id="line2d_21">
      <g>
       <use style="stroke:#000000;stroke-width:0.5;" x="320.0" xlink:href="#m00dff3b8b9" y="388.8"/>
      </g>
     </g>
     <g id="line2d_22">
      <g>
       <use style="stroke:#000000;stroke-width:0.5;" x="320.0" xlink:href="#m66b8d1785f" y="43.2"/>
      </g>
     </g>
     <g id="text_6">
      <!-- 100 -->
      <defs>
       <path d="M 12.40625 8.296875 
L 28.515625 8.296875 
L 28.515625 63.921875 
L 10.984375 60.40625 
L 10.984375 69.390625 
L 28.421875 72.90625 
L 38.28125 72.90625 
L 38.28125 8.296875 
L 54.390625 8.296875 
L 54.390625 0 
L 12.40625 0 
z
" id="BitstreamVeraSans-Roman-31"/>
      </defs>
      <g transform="translate(308.5475 401.918125)scale(0.12 -0.12)">
       <use xlink:href="#BitstreamVeraSans-Roman-31"/>
       <use x="63.623046875" xlink:href="#BitstreamVeraSans-Roman-30"/>
       <use x="127.24609375" xlink:href="#BitstreamVeraSans-Roman-30"/>
      </g>
     </g>
    </g>
    <g id="xtick_7">
     <g id="line2d_23">
      <path clip-path="url(#pfefebf4cb0)" d="M 369.6 388.8 
L 369.6 43.2 
" style="fill:none;stroke:#000000;stroke-dasharray:1.000000,3.000000;stroke-dashoffset:0.0;stroke-width:0.5;"/>
     </g>
     <g id="line2d_24">
      <g>
       <use style="stroke:#000000;stroke-width:0.5;" x="369.6" xlink:href="#m00dff3b8b9" y="388.8"/>
      </g>
     </g>
     <g id="line2d_25">
      <g>
       <use style="stroke:#000000;stroke-width:0.5;" x="369.6" xlink:href="#m66b8d1785f" y="43.2"/>
      </g>
     </g>
     <g id="text_7">
      <!-- 120 -->
      <g transform="translate(358.1475 401.918125)scale(0.12 -0.12)">
       <use xlink:href="#BitstreamVeraSans-Roman-31"/>
       <use x="63.623046875" xlink:href="#BitstreamVeraSans-Roman-32"/>
       <use x="127.24609375" xlink:href="#BitstreamVeraSans-Roman-30"/>
      </g>
     </g>
    </g>
    <g id="xtick_8">
     <g id="line2d_26">
      <path clip-path="url(#pfefebf4cb0)" d="M 419.2 388.8 
L 419.2 43.2 
" style="fill:none;stroke:#000000;stroke-dasharray:1.000000,3.000000;stroke-dashoffset:0.0;stroke-width:0.5;"/>
     </g>
     <g id="line2d_27">
      <g>
       <use style="stroke:#000000;stroke-width:0.5;" x="419.2" xlink:href="#m00dff3b8b9" y="388.8"/>
      </g>
     </g>
     <g id="line2d_28">
      <g>
       <use style="stroke:#000000;stroke-width:0.5;" x="419.2" xlink:href="#m66b8d1785f" y="43.2"/>
      </g>
     </g>
     <g id="text_8">
      <!-- 140 -->
      <g transform="translate(407.7475 401.918125)scale(0.12 -0.12)">
       <use xlink:href="#BitstreamVeraSans-Roman-31"/>
       <use x="63.623046875" xlink:href="#BitstreamVeraSans-Roman-34"/>
       <use x="127.24609375" xlink:href="#BitstreamVeraSans-Roman-30"/>
      </g>
     </g>
    </g>
    <g id="xtick_9">
     <g id="line2d_29">
      <path clip-path="url(#pfefebf4cb0)" d="M 468.8 388.8 
L 468.8 43.2 
" style="fill:none;stroke:#000000;stroke-dasharray:1.000000,3.000000;stroke-dashoffset:0.0;stroke-width:0.5;"/>
     </g>
     <g id="line2d_30">
      <g>
       <use style="stroke:#000000;stroke-width:0.5;" x="468.8" xlink:href="#m00dff3b8b9" y="388.8"/>
      </g>
     </g>
     <g id="line2d_31">
      <g>
       <use style="stroke:#000000;stroke-width:0.5;" x="468.8" xlink:href="#m66b8d1785f" y="43.2"/>
      </g>
     </g>
     <g id="text_9">
      <!-- 160 -->
      <g transform="translate(457.3475 401.918125)scale(0.12 -0.12)">
       <use xlink:href="#BitstreamVeraSans-Roman-31"/>
       <use x="63.623046875" xlink:href="#BitstreamVeraSans-Roman-36"/>
       <use x="127.24609375" xlink:href="#BitstreamVeraSans-Roman-30"/>
      </g>
     </g>
    </g>
    <g id="xtick_10">
     <g id="line2d_32">
      <path clip-path="url(#pfefebf4cb0)" d="M 518.4 388.8 
L 518.4 43.2 
" style="fill:none;stroke:#000000;stroke-dasharray:1.000000,3.000000;stroke-dashoffset:0.0;stroke-width:0.5;"/>
     </g>
     <g id="line2d_33">
      <g>
       <use style="stroke:#000000;stroke-width:0.5;" x="518.4" xlink:href="#m00dff3b8b9" y="388.8"/>
      </g>
     </g>
     <g id="line2d_34">
      <g>
       <use style="stroke:#000000;stroke-width:0.5;" x="518.4" xlink:href="#m66b8d1785f" y="43.2"/>
      </g>
     </g>
     <g id="text_10">
      <!-- 180 -->
      <g transform="translate(506.9475 401.918125)scale(0.12 -0.12)">
       <use xlink:href="#BitstreamVeraSans-Roman-31"/>
       <use x="63.623046875" xlink:href="#BitstreamVeraSans-Roman-38"/>
       <use x="127.24609375" xlink:href="#BitstreamVeraSans-Roman-30"/>
      </g>
     </g>
    </g>
    <g id="text_11">
     <!-- Generations -->
     <defs>
      <path d="M 54.890625 33.015625 
L 54.890625 0 
L 45.90625 0 
L 45.90625 32.71875 
Q 45.90625 40.484375 42.875 44.328125 
Q 39.84375 48.1875 33.796875 48.1875 
Q 26.515625 48.1875 22.3125 43.546875 
Q 18.109375 38.921875 18.109375 30.90625 
L 18.109375 0 
L 9.078125 0 
L 9.078125 54.6875 
L 18.109375 54.6875 
L 18.109375 46.1875 
Q 21.34375 51.125 25.703125 53.5625 
Q 30.078125 56 35.796875 56 
Q 45.21875 56 50.046875 50.171875 
Q 54.890625 44.34375 54.890625 33.015625 
" id="BitstreamVeraSans-Roman-6e"/>
      <path d="M 41.109375 46.296875 
Q 39.59375 47.171875 37.8125 47.578125 
Q 36.03125 48 33.890625 48 
Q 26.265625 48 22.1875 43.046875 
Q 18.109375 38.09375 18.109375 28.8125 
L 18.109375 0 
L 9.078125 0 
L 9.078125 54.6875 
L 18.109375 54.6875 
L 18.109375 46.1875 
Q 20.953125 51.171875 25.484375 53.578125 
Q 30.03125 56 36.53125 56 
Q 37.453125 56 38.578125 55.875 
Q 39.703125 55.765625 41.0625 55.515625 
z
" id="BitstreamVeraSans-Roman-72"/>
      <path d="M 30.609375 48.390625 
Q 23.390625 48.390625 19.1875 42.75 
Q 14.984375 37.109375 14.984375 27.296875 
Q 14.984375 17.484375 19.15625 11.84375 
Q 23.34375 6.203125 30.609375 6.203125 
Q 37.796875 6.203125 41.984375 11.859375 
Q 46.1875 17.53125 46.1875 27.296875 
Q 46.1875 37.015625 41.984375 42.703125 
Q 37.796875 48.390625 30.609375 48.390625 
M 30.609375 56 
Q 42.328125 56 49.015625 48.375 
Q 55.71875 40.765625 55.71875 27.296875 
Q 55.71875 13.875 49.015625 6.21875 
Q 42.328125 -1.421875 30.609375 -1.421875 
Q 18.84375 -1.421875 12.171875 6.21875 
Q 5.515625 13.875 5.515625 27.296875 
Q 5.515625 40.765625 12.171875 48.375 
Q 18.84375 56 30.609375 56 
" id="BitstreamVeraSans-Roman-6f"/>
      <path d="M 59.515625 10.40625 
L 59.515625 29.984375 
L 43.40625 29.984375 
L 43.40625 38.09375 
L 69.28125 38.09375 
L 69.28125 6.78125 
Q 63.578125 2.734375 56.6875 0.65625 
Q 49.8125 -1.421875 42 -1.421875 
Q 24.90625 -1.421875 15.25 8.5625 
Q 5.609375 18.5625 5.609375 36.375 
Q 5.609375 54.25 15.25 64.234375 
Q 24.90625 74.21875 42 74.21875 
Q 49.125 74.21875 55.546875 72.453125 
Q 61.96875 70.703125 67.390625 67.28125 
L 67.390625 56.78125 
Q 61.921875 61.421875 55.765625 63.765625 
Q 49.609375 66.109375 42.828125 66.109375 
Q 29.4375 66.109375 22.71875 58.640625 
Q 16.015625 51.171875 16.015625 36.375 
Q 16.015625 21.625 22.71875 14.15625 
Q 29.4375 6.6875 42.828125 6.6875 
Q 48.046875 6.6875 52.140625 7.59375 
Q 56.25 8.5 59.515625 10.40625 
" id="BitstreamVeraSans-Roman-47"/>
      <path d="M 9.421875 54.6875 
L 18.40625 54.6875 
L 18.40625 0 
L 9.421875 0 
z
M 9.421875 75.984375 
L 18.40625 75.984375 
L 18.40625 64.59375 
L 9.421875 64.59375 
z
" id="BitstreamVeraSans-Roman-69"/>
      <path d="M 56.203125 29.59375 
L 56.203125 25.203125 
L 14.890625 25.203125 
Q 15.484375 15.921875 20.484375 11.0625 
Q 25.484375 6.203125 34.421875 6.203125 
Q 39.59375 6.203125 44.453125 7.46875 
Q 49.3125 8.734375 54.109375 11.28125 
L 54.109375 2.78125 
Q 49.265625 0.734375 44.1875 -0.34375 
Q 39.109375 -1.421875 33.890625 -1.421875 
Q 20.796875 -1.421875 13.15625 6.1875 
Q 5.515625 13.8125 5.515625 26.8125 
Q 5.515625 40.234375 12.765625 48.109375 
Q 20.015625 56 32.328125 56 
Q 43.359375 56 49.78125 48.890625 
Q 56.203125 41.796875 56.203125 29.59375 
M 47.21875 32.234375 
Q 47.125 39.59375 43.09375 43.984375 
Q 39.0625 48.390625 32.421875 48.390625 
Q 24.90625 48.390625 20.390625 44.140625 
Q 15.875 39.890625 15.1875 32.171875 
z
" id="BitstreamVeraSans-Roman-65"/>
      <path d="M 18.3125 70.21875 
L 18.3125 54.6875 
L 36.8125 54.6875 
L 36.8125 47.703125 
L 18.3125 47.703125 
L 18.3125 18.015625 
Q 18.3125 11.328125 20.140625 9.421875 
Q 21.96875 7.515625 27.59375 7.515625 
L 36.8125 7.515625 
L 36.8125 0 
L 27.59375 0 
Q 17.1875 0 13.234375 3.875 
Q 9.28125 7.765625 9.28125 18.015625 
L 9.28125 47.703125 
L 2.6875 47.703125 
L 2.6875 54.6875 
L 9.28125 54.6875 
L 9.28125 70.21875 
z
" id="BitstreamVeraSans-Roman-74"/>
      <path d="M 34.28125 27.484375 
Q 23.390625 27.484375 19.1875 25 
Q 14.984375 22.515625 14.984375 16.5 
Q 14.984375 11.71875 18.140625 8.90625 
Q 21.296875 6.109375 26.703125 6.109375 
Q 34.1875 6.109375 38.703125 11.40625 
Q 43.21875 16.703125 43.21875 25.484375 
L 43.21875 27.484375 
z
M 52.203125 31.203125 
L 52.203125 0 
L 43.21875 0 
L 43.21875 8.296875 
Q 40.140625 3.328125 35.546875 0.953125 
Q 30.953125 -1.421875 24.3125 -1.421875 
Q 15.921875 -1.421875 10.953125 3.296875 
Q 6 8.015625 6 15.921875 
Q 6 25.140625 12.171875 29.828125 
Q 18.359375 34.515625 30.609375 34.515625 
L 43.21875 34.515625 
L 43.21875 35.40625 
Q 43.21875 41.609375 39.140625 45 
Q 35.0625 48.390625 27.6875 48.390625 
Q 23 48.390625 18.546875 47.265625 
Q 14.109375 46.140625 10.015625 43.890625 
L 10.015625 52.203125 
Q 14.9375 54.109375 19.578125 55.046875 
Q 24.21875 56 28.609375 56 
Q 40.484375 56 46.34375 49.84375 
Q 52.203125 43.703125 52.203125 31.203125 
" id="BitstreamVeraSans-Roman-61"/>
      <path d="M 44.28125 53.078125 
L 44.28125 44.578125 
Q 40.484375 46.53125 36.375 47.5 
Q 32.28125 48.484375 27.875 48.484375 
Q 21.1875 48.484375 17.84375 46.4375 
Q 14.5 44.390625 14.5 40.28125 
Q 14.5 37.15625 16.890625 35.375 
Q 19.28125 33.59375 26.515625 31.984375 
L 29.59375 31.296875 
Q 39.15625 29.25 43.1875 25.515625 
Q 47.21875 21.78125 47.21875 15.09375 
Q 47.21875 7.46875 41.1875 3.015625 
Q 35.15625 -1.421875 24.609375 -1.421875 
Q 20.21875 -1.421875 15.453125 -0.5625 
Q 10.6875 0.296875 5.421875 2 
L 5.421875 11.28125 
Q 10.40625 8.6875 15.234375 7.390625 
Q 20.0625 6.109375 24.8125 6.109375 
Q 31.15625 6.109375 34.5625 8.28125 
Q 37.984375 10.453125 37.984375 14.40625 
Q 37.984375 18.0625 35.515625 20.015625 
Q 33.0625 21.96875 24.703125 23.78125 
L 21.578125 24.515625 
Q 13.234375 26.265625 9.515625 29.90625 
Q 5.8125 33.546875 5.8125 39.890625 
Q 5.8125 47.609375 11.28125 51.796875 
Q 16.75 56 26.8125 56 
Q 31.78125 56 36.171875 55.265625 
Q 40.578125 54.546875 44.28125 53.078125 
" id="BitstreamVeraSans-Roman-73"/>
     </defs>
     <g transform="translate(258.6028125 418.531875)scale(0.12 -0.12)">
      <use xlink:href="#BitstreamVeraSans-Roman-47"/>
      <use x="77.490234375" xlink:href="#BitstreamVeraSans-Roman-65"/>
      <use x="139.013671875" xlink:href="#BitstreamVeraSans-Roman-6e"/>
      <use x="202.392578125" xlink:href="#BitstreamVeraSans-Roman-65"/>
      <use x="263.916015625" xlink:href="#BitstreamVeraSans-Roman-72"/>
      <use x="305.029296875" xlink:href="#BitstreamVeraSans-Roman-61"/>
      <use x="366.30859375" xlink:href="#BitstreamVeraSans-Roman-74"/>
      <use x="405.517578125" xlink:href="#BitstreamVeraSans-Roman-69"/>
      <use x="433.30078125" xlink:href="#BitstreamVeraSans-Roman-6f"/>
      <use x="494.482421875" xlink:href="#BitstreamVeraSans-Roman-6e"/>
      <use x="557.861328125" xlink:href="#BitstreamVeraSans-Roman-73"/>
     </g>
    </g>
   </g>
   <g id="matplotlib.axis_2">
    <g id="ytick_1">
     <g id="line2d_35">
      <path clip-path="url(#pfefebf4cb0)" d="M 72 388.8 
L 518.4 388.8 
" style="fill:none;stroke:#000000;stroke-dasharray:1.000000,3.000000;stroke-dashoffset:0.0;stroke-width:0.5;"/>
     </g>
     <g id="line2d_36">
      <defs>
       <path d="M 0 0 
L 4 0 
" id="mcb5c28a38a" style="stroke:#000000;stroke-width:0.5;"/>
      </defs>
      <g>
       <use style="stroke:#000000;stroke-width:0.5;" x="72.0" xlink:href="#mcb5c28a38a" y="388.8"/>
      </g>
     </g>
     <g id="line2d_37">
      <defs>
       <path d="M 0 0 
L -4 0 
" id="m60acdd0a94" style="stroke:#000000;stroke-width:0.5;"/>
      </defs>
      <g>
       <use style="stroke:#000000;stroke-width:0.5;" x="518.4" xlink:href="#m60acdd0a94" y="388.8"/>
      </g>
     </g>
     <g id="text_12">
      <!-- −5 -->
      <defs>
       <path d="M 10.59375 35.5 
L 73.1875 35.5 
L 73.1875 27.203125 
L 10.59375 27.203125 
z
" id="BitstreamVeraSans-Roman-2212"/>
       <path d="M 10.796875 72.90625 
L 49.515625 72.90625 
L 49.515625 64.59375 
L 19.828125 64.59375 
L 19.828125 46.734375 
Q 21.96875 47.46875 24.109375 47.828125 
Q 26.265625 48.1875 28.421875 48.1875 
Q 40.625 48.1875 47.75 41.5 
Q 54.890625 34.8125 54.890625 23.390625 
Q 54.890625 11.625 47.5625 5.09375 
Q 40.234375 -1.421875 26.90625 -1.421875 
Q 22.3125 -1.421875 17.546875 -0.640625 
Q 12.796875 0.140625 7.71875 1.703125 
L 7.71875 11.625 
Q 12.109375 9.234375 16.796875 8.0625 
Q 21.484375 6.890625 26.703125 6.890625 
Q 35.15625 6.890625 40.078125 11.328125 
Q 45.015625 15.765625 45.015625 23.390625 
Q 45.015625 31 40.078125 35.4375 
Q 35.15625 39.890625 26.703125 39.890625 
Q 22.75 39.890625 18.8125 39.015625 
Q 14.890625 38.140625 10.796875 36.28125 
z
" id="BitstreamVeraSans-Roman-35"/>
      </defs>
      <g transform="translate(50.309375 392.11125)scale(0.12 -0.12)">
       <use xlink:href="#BitstreamVeraSans-Roman-2212"/>
       <use x="83.7890625" xlink:href="#BitstreamVeraSans-Roman-35"/>
      </g>
     </g>
    </g>
    <g id="ytick_2">
     <g id="line2d_38">
      <path clip-path="url(#pfefebf4cb0)" d="M 72 339.428571 
L 518.4 339.428571 
" style="fill:none;stroke:#000000;stroke-dasharray:1.000000,3.000000;stroke-dashoffset:0.0;stroke-width:0.5;"/>
     </g>
     <g id="line2d_39">
      <g>
       <use style="stroke:#000000;stroke-width:0.5;" x="72.0" xlink:href="#mcb5c28a38a" y="339.428571429"/>
      </g>
     </g>
     <g id="line2d_40">
      <g>
       <use style="stroke:#000000;stroke-width:0.5;" x="518.4" xlink:href="#m60acdd0a94" y="339.428571429"/>
      </g>
     </g>
     <g id="text_13">
      <!-- 0 -->
      <g transform="translate(60.365 342.739821429)scale(0.12 -0.12)">
       <use xlink:href="#BitstreamVeraSans-Roman-30"/>
      </g>
     </g>
    </g>
    <g id="ytick_3">
     <g id="line2d_41">
      <path clip-path="url(#pfefebf4cb0)" d="M 72 290.057143 
L 518.4 290.057143 
" style="fill:none;stroke:#000000;stroke-dasharray:1.000000,3.000000;stroke-dashoffset:0.0;stroke-width:0.5;"/>
     </g>
     <g id="line2d_42">
      <g>
       <use style="stroke:#000000;stroke-width:0.5;" x="72.0" xlink:href="#mcb5c28a38a" y="290.057142857"/>
      </g>
     </g>
     <g id="line2d_43">
      <g>
       <use style="stroke:#000000;stroke-width:0.5;" x="518.4" xlink:href="#m60acdd0a94" y="290.057142857"/>
      </g>
     </g>
     <g id="text_14">
      <!-- 5 -->
      <g transform="translate(60.365 293.368392857)scale(0.12 -0.12)">
       <use xlink:href="#BitstreamVeraSans-Roman-35"/>
      </g>
     </g>
    </g>
    <g id="ytick_4">
     <g id="line2d_44">
      <path clip-path="url(#pfefebf4cb0)" d="M 72 240.685714 
L 518.4 240.685714 
" style="fill:none;stroke:#000000;stroke-dasharray:1.000000,3.000000;stroke-dashoffset:0.0;stroke-width:0.5;"/>
     </g>
     <g id="line2d_45">
      <g>
       <use style="stroke:#000000;stroke-width:0.5;" x="72.0" xlink:href="#mcb5c28a38a" y="240.685714286"/>
      </g>
     </g>
     <g id="line2d_46">
      <g>
       <use style="stroke:#000000;stroke-width:0.5;" x="518.4" xlink:href="#m60acdd0a94" y="240.685714286"/>
      </g>
     </g>
     <g id="text_15">
      <!-- 10 -->
      <g transform="translate(52.73 243.996964286)scale(0.12 -0.12)">
       <use xlink:href="#BitstreamVeraSans-Roman-31"/>
       <use x="63.623046875" xlink:href="#BitstreamVeraSans-Roman-30"/>
      </g>
     </g>
    </g>
    <g id="ytick_5">
     <g id="line2d_47">
      <path clip-path="url(#pfefebf4cb0)" d="M 72 191.314286 
L 518.4 191.314286 
" style="fill:none;stroke:#000000;stroke-dasharray:1.000000,3.000000;stroke-dashoffset:0.0;stroke-width:0.5;"/>
     </g>
     <g id="line2d_48">
      <g>
       <use style="stroke:#000000;stroke-width:0.5;" x="72.0" xlink:href="#mcb5c28a38a" y="191.314285714"/>
      </g>
     </g>
     <g id="line2d_49">
      <g>
       <use style="stroke:#000000;stroke-width:0.5;" x="518.4" xlink:href="#m60acdd0a94" y="191.314285714"/>
      </g>
     </g>
     <g id="text_16">
      <!-- 15 -->
      <g transform="translate(52.73 194.625535714)scale(0.12 -0.12)">
       <use xlink:href="#BitstreamVeraSans-Roman-31"/>
       <use x="63.623046875" xlink:href="#BitstreamVeraSans-Roman-35"/>
      </g>
     </g>
    </g>
    <g id="ytick_6">
     <g id="line2d_50">
      <path clip-path="url(#pfefebf4cb0)" d="M 72 141.942857 
L 518.4 141.942857 
" style="fill:none;stroke:#000000;stroke-dasharray:1.000000,3.000000;stroke-dashoffset:0.0;stroke-width:0.5;"/>
     </g>
     <g id="line2d_51">
      <g>
       <use style="stroke:#000000;stroke-width:0.5;" x="72.0" xlink:href="#mcb5c28a38a" y="141.942857143"/>
      </g>
     </g>
     <g id="line2d_52">
      <g>
       <use style="stroke:#000000;stroke-width:0.5;" x="518.4" xlink:href="#m60acdd0a94" y="141.942857143"/>
      </g>
     </g>
     <g id="text_17">
      <!-- 20 -->
      <g transform="translate(52.73 145.254107143)scale(0.12 -0.12)">
       <use xlink:href="#BitstreamVeraSans-Roman-32"/>
       <use x="63.623046875" xlink:href="#BitstreamVeraSans-Roman-30"/>
      </g>
     </g>
    </g>
    <g id="ytick_7">
     <g id="line2d_53">
      <path clip-path="url(#pfefebf4cb0)" d="M 72 92.571429 
L 518.4 92.571429 
" style="fill:none;stroke:#000000;stroke-dasharray:1.000000,3.000000;stroke-dashoffset:0.0;stroke-width:0.5;"/>
     </g>
     <g id="line2d_54">
      <g>
       <use style="stroke:#000000;stroke-width:0.5;" x="72.0" xlink:href="#mcb5c28a38a" y="92.5714285714"/>
      </g>
     </g>
     <g id="line2d_55">
      <g>
       <use style="stroke:#000000;stroke-width:0.5;" x="518.4" xlink:href="#m60acdd0a94" y="92.5714285714"/>
      </g>
     </g>
     <g id="text_18">
      <!-- 25 -->
      <g transform="translate(52.73 95.8826785714)scale(0.12 -0.12)">
       <use xlink:href="#BitstreamVeraSans-Roman-32"/>
       <use x="63.623046875" xlink:href="#BitstreamVeraSans-Roman-35"/>
      </g>
     </g>
    </g>
    <g id="ytick_8">
     <g id="line2d_56">
      <path clip-path="url(#pfefebf4cb0)" d="M 72 43.2 
L 518.4 43.2 
" style="fill:none;stroke:#000000;stroke-dasharray:1.000000,3.000000;stroke-dashoffset:0.0;stroke-width:0.5;"/>
     </g>
     <g id="line2d_57">
      <g>
       <use style="stroke:#000000;stroke-width:0.5;" x="72.0" xlink:href="#mcb5c28a38a" y="43.2"/>
      </g>
     </g>
     <g id="line2d_58">
      <g>
       <use style="stroke:#000000;stroke-width:0.5;" x="518.4" xlink:href="#m60acdd0a94" y="43.2"/>
      </g>
     </g>
     <g id="text_19">
      <!-- 30 -->
      <defs>
       <path d="M 40.578125 39.3125 
Q 47.65625 37.796875 51.625 33 
Q 55.609375 28.21875 55.609375 21.1875 
Q 55.609375 10.40625 48.1875 4.484375 
Q 40.765625 -1.421875 27.09375 -1.421875 
Q 22.515625 -1.421875 17.65625 -0.515625 
Q 12.796875 0.390625 7.625 2.203125 
L 7.625 11.71875 
Q 11.71875 9.328125 16.59375 8.109375 
Q 21.484375 6.890625 26.8125 6.890625 
Q 36.078125 6.890625 40.9375 10.546875 
Q 45.796875 14.203125 45.796875 21.1875 
Q 45.796875 27.640625 41.28125 31.265625 
Q 36.765625 34.90625 28.71875 34.90625 
L 20.21875 34.90625 
L 20.21875 43.015625 
L 29.109375 43.015625 
Q 36.375 43.015625 40.234375 45.921875 
Q 44.09375 48.828125 44.09375 54.296875 
Q 44.09375 59.90625 40.109375 62.90625 
Q 36.140625 65.921875 28.71875 65.921875 
Q 24.65625 65.921875 20.015625 65.03125 
Q 15.375 64.15625 9.8125 62.3125 
L 9.8125 71.09375 
Q 15.4375 72.65625 20.34375 73.4375 
Q 25.25 74.21875 29.59375 74.21875 
Q 40.828125 74.21875 47.359375 69.109375 
Q 53.90625 64.015625 53.90625 55.328125 
Q 53.90625 49.265625 50.4375 45.09375 
Q 46.96875 40.921875 40.578125 39.3125 
" id="BitstreamVeraSans-Roman-33"/>
      </defs>
      <g transform="translate(52.73 46.51125)scale(0.12 -0.12)">
       <use xlink:href="#BitstreamVeraSans-Roman-33"/>
       <use x="63.623046875" xlink:href="#BitstreamVeraSans-Roman-30"/>
      </g>
     </g>
    </g>
    <g id="text_20">
     <!-- Fitness -->
     <defs>
      <path d="M 9.8125 72.90625 
L 51.703125 72.90625 
L 51.703125 64.59375 
L 19.671875 64.59375 
L 19.671875 43.109375 
L 48.578125 43.109375 
L 48.578125 34.8125 
L 19.671875 34.8125 
L 19.671875 0 
L 9.8125 0 
z
" id="BitstreamVeraSans-Roman-46"/>
     </defs>
     <g transform="translate(42.81375 237.2090625)rotate(-90.0)scale(0.12 -0.12)">
      <use xlink:href="#BitstreamVeraSans-Roman-46"/>
      <use x="57.41015625" xlink:href="#BitstreamVeraSans-Roman-69"/>
      <use x="85.193359375" xlink:href="#BitstreamVeraSans-Roman-74"/>
      <use x="124.40234375" xlink:href="#BitstreamVeraSans-Roman-6e"/>
      <use x="187.78125" xlink:href="#BitstreamVeraSans-Roman-65"/>
      <use x="249.3046875" xlink:href="#BitstreamVeraSans-Roman-73"/>
      <use x="301.404296875" xlink:href="#BitstreamVeraSans-Roman-73"/>
     </g>
    </g>
   </g>
   <g id="text_21">
    <!-- Population's average and best fitness -->
    <defs>
     <path id="BitstreamVeraSans-Roman-20"/>
     <path d="M 37.109375 75.984375 
L 37.109375 68.5 
L 28.515625 68.5 
Q 23.6875 68.5 21.796875 66.546875 
Q 19.921875 64.59375 19.921875 59.515625 
L 19.921875 54.6875 
L 34.71875 54.6875 
L 34.71875 47.703125 
L 19.921875 47.703125 
L 19.921875 0 
L 10.890625 0 
L 10.890625 47.703125 
L 2.296875 47.703125 
L 2.296875 54.6875 
L 10.890625 54.6875 
L 10.890625 58.5 
Q 10.890625 67.625 15.140625 71.796875 
Q 19.390625 75.984375 28.609375 75.984375 
z
" id="BitstreamVeraSans-Roman-66"/>
     <path d="M 17.921875 72.90625 
L 17.921875 45.796875 
L 9.625 45.796875 
L 9.625 72.90625 
z
" id="BitstreamVeraSans-Roman-27"/>
     <path d="M 9.421875 75.984375 
L 18.40625 75.984375 
L 18.40625 0 
L 9.421875 0 
z
" id="BitstreamVeraSans-Roman-6c"/>
     <path d="M 19.671875 64.796875 
L 19.671875 37.40625 
L 32.078125 37.40625 
Q 38.96875 37.40625 42.71875 40.96875 
Q 46.484375 44.53125 46.484375 51.125 
Q 46.484375 57.671875 42.71875 61.234375 
Q 38.96875 64.796875 32.078125 64.796875 
z
M 9.8125 72.90625 
L 32.078125 72.90625 
Q 44.34375 72.90625 50.609375 67.359375 
Q 56.890625 61.8125 56.890625 51.125 
Q 56.890625 40.328125 50.609375 34.8125 
Q 44.34375 29.296875 32.078125 29.296875 
L 19.671875 29.296875 
L 19.671875 0 
L 9.8125 0 
z
" id="BitstreamVeraSans-Roman-50"/>
     <path d="M 2.984375 54.6875 
L 12.5 54.6875 
L 29.59375 8.796875 
L 46.6875 54.6875 
L 56.203125 54.6875 
L 35.6875 0 
L 23.484375 0 
z
" id="BitstreamVeraSans-Roman-76"/>
     <path d="M 45.40625 46.390625 
L 45.40625 75.984375 
L 54.390625 75.984375 
L 54.390625 0 
L 45.40625 0 
L 45.40625 8.203125 
Q 42.578125 3.328125 38.25 0.953125 
Q 33.9375 -1.421875 27.875 -1.421875 
Q 17.96875 -1.421875 11.734375 6.484375 
Q 5.515625 14.40625 5.515625 27.296875 
Q 5.515625 40.1875 11.734375 48.09375 
Q 17.96875 56 27.875 56 
Q 33.9375 56 38.25 53.625 
Q 42.578125 51.265625 45.40625 46.390625 
M 14.796875 27.296875 
Q 14.796875 17.390625 18.875 11.75 
Q 22.953125 6.109375 30.078125 6.109375 
Q 37.203125 6.109375 41.296875 11.75 
Q 45.40625 17.390625 45.40625 27.296875 
Q 45.40625 37.203125 41.296875 42.84375 
Q 37.203125 48.484375 30.078125 48.484375 
Q 22.953125 48.484375 18.875 42.84375 
Q 14.796875 37.203125 14.796875 27.296875 
" id="BitstreamVeraSans-Roman-64"/>
     <path d="M 45.40625 27.984375 
Q 45.40625 37.75 41.375 43.109375 
Q 37.359375 48.484375 30.078125 48.484375 
Q 22.859375 48.484375 18.828125 43.109375 
Q 14.796875 37.75 14.796875 27.984375 
Q 14.796875 18.265625 18.828125 12.890625 
Q 22.859375 7.515625 30.078125 7.515625 
Q 37.359375 7.515625 41.375 12.890625 
Q 45.40625 18.265625 45.40625 27.984375 
M 54.390625 6.78125 
Q 54.390625 -7.171875 48.1875 -13.984375 
Q 42 -20.796875 29.203125 -20.796875 
Q 24.46875 -20.796875 20.265625 -20.09375 
Q 16.0625 -19.390625 12.109375 -17.921875 
L 12.109375 -9.1875 
Q 16.0625 -11.328125 19.921875 -12.34375 
Q 23.78125 -13.375 27.78125 -13.375 
Q 36.625 -13.375 41.015625 -8.765625 
Q 45.40625 -4.15625 45.40625 5.171875 
L 45.40625 9.625 
Q 42.625 4.78125 38.28125 2.390625 
Q 33.9375 0 27.875 0 
Q 17.828125 0 11.671875 7.65625 
Q 5.515625 15.328125 5.515625 27.984375 
Q 5.515625 40.671875 11.671875 48.328125 
Q 17.828125 56 27.875 56 
Q 33.9375 56 38.28125 53.609375 
Q 42.625 51.21875 45.40625 46.390625 
L 45.40625 54.6875 
L 54.390625 54.6875 
z
" id="BitstreamVeraSans-Roman-67"/>
     <path d="M 8.5 21.578125 
L 8.5 54.6875 
L 17.484375 54.6875 
L 17.484375 21.921875 
Q 17.484375 14.15625 20.5 10.265625 
Q 23.53125 6.390625 29.59375 6.390625 
Q 36.859375 6.390625 41.078125 11.03125 
Q 45.3125 15.671875 45.3125 23.6875 
L 45.3125 54.6875 
L 54.296875 54.6875 
L 54.296875 0 
L 45.3125 0 
L 45.3125 8.40625 
Q 42.046875 3.421875 37.71875 1 
Q 33.40625 -1.421875 27.6875 -1.421875 
Q 18.265625 -1.421875 13.375 4.4375 
Q 8.5 10.296875 8.5 21.578125 
" id="BitstreamVeraSans-Roman-75"/>
     <path d="M 18.109375 8.203125 
L 18.109375 -20.796875 
L 9.078125 -20.796875 
L 9.078125 54.6875 
L 18.109375 54.6875 
L 18.109375 46.390625 
Q 20.953125 51.265625 25.265625 53.625 
Q 29.59375 56 35.59375 56 
Q 45.5625 56 51.78125 48.09375 
Q 58.015625 40.1875 58.015625 27.296875 
Q 58.015625 14.40625 51.78125 6.484375 
Q 45.5625 -1.421875 35.59375 -1.421875 
Q 29.59375 -1.421875 25.265625 0.953125 
Q 20.953125 3.328125 18.109375 8.203125 
M 48.6875 27.296875 
Q 48.6875 37.203125 44.609375 42.84375 
Q 40.53125 48.484375 33.40625 48.484375 
Q 26.265625 48.484375 22.1875 42.84375 
Q 18.109375 37.203125 18.109375 27.296875 
Q 18.109375 17.390625 22.1875 11.75 
Q 26.265625 6.109375 33.40625 6.109375 
Q 40.53125 6.109375 44.609375 11.75 
Q 48.6875 17.390625 48.6875 27.296875 
" id="BitstreamVeraSans-Roman-70"/>
     <path d="M 48.6875 27.296875 
Q 48.6875 37.203125 44.609375 42.84375 
Q 40.53125 48.484375 33.40625 48.484375 
Q 26.265625 48.484375 22.1875 42.84375 
Q 18.109375 37.203125 18.109375 27.296875 
Q 18.109375 17.390625 22.1875 11.75 
Q 26.265625 6.109375 33.40625 6.109375 
Q 40.53125 6.109375 44.609375 11.75 
Q 48.6875 17.390625 48.6875 27.296875 
M 18.109375 46.390625 
Q 20.953125 51.265625 25.265625 53.625 
Q 29.59375 56 35.59375 56 
Q 45.5625 56 51.78125 48.09375 
Q 58.015625 40.1875 58.015625 27.296875 
Q 58.015625 14.40625 51.78125 6.484375 
Q 45.5625 -1.421875 35.59375 -1.421875 
Q 29.59375 -1.421875 25.265625 0.953125 
Q 20.953125 3.328125 18.109375 8.203125 
L 18.109375 0 
L 9.078125 0 
L 9.078125 75.984375 
L 18.109375 75.984375 
z
" id="BitstreamVeraSans-Roman-62"/>
    </defs>
    <g transform="translate(159.786 38.2)scale(0.144 -0.144)">
     <use xlink:href="#BitstreamVeraSans-Roman-50"/>
     <use x="60.255859375" xlink:href="#BitstreamVeraSans-Roman-6f"/>
     <use x="121.4375" xlink:href="#BitstreamVeraSans-Roman-70"/>
     <use x="184.9140625" xlink:href="#BitstreamVeraSans-Roman-75"/>
     <use x="248.29296875" xlink:href="#BitstreamVeraSans-Roman-6c"/>
     <use x="276.076171875" xlink:href="#BitstreamVeraSans-Roman-61"/>
     <use x="337.35546875" xlink:href="#BitstreamVeraSans-Roman-74"/>
     <use x="376.564453125" xlink:href="#BitstreamVeraSans-Roman-69"/>
     <use x="404.34765625" xlink:href="#BitstreamVeraSans-Roman-6f"/>
     <use x="465.529296875" xlink:href="#BitstreamVeraSans-Roman-6e"/>
     <use x="528.908203125" xlink:href="#BitstreamVeraSans-Roman-27"/>
     <use x="556.3984375" xlink:href="#BitstreamVeraSans-Roman-73"/>
     <use x="608.498046875" xlink:href="#BitstreamVeraSans-Roman-20"/>
     <use x="640.28515625" xlink:href="#BitstreamVeraSans-Roman-61"/>
     <use x="701.564453125" xlink:href="#BitstreamVeraSans-Roman-76"/>
     <use x="760.744140625" xlink:href="#BitstreamVeraSans-Roman-65"/>
     <use x="822.267578125" xlink:href="#BitstreamVeraSans-Roman-72"/>
     <use x="863.380859375" xlink:href="#BitstreamVeraSans-Roman-61"/>
     <use x="924.66015625" xlink:href="#BitstreamVeraSans-Roman-67"/>
     <use x="988.13671875" xlink:href="#BitstreamVeraSans-Roman-65"/>
     <use x="1049.66015625" xlink:href="#BitstreamVeraSans-Roman-20"/>
     <use x="1081.44726562" xlink:href="#BitstreamVeraSans-Roman-61"/>
     <use x="1142.7265625" xlink:href="#BitstreamVeraSans-Roman-6e"/>
     <use x="1206.10546875" xlink:href="#BitstreamVeraSans-Roman-64"/>
     <use x="1269.58203125" xlink:href="#BitstreamVeraSans-Roman-20"/>
     <use x="1301.36914062" xlink:href="#BitstreamVeraSans-Roman-62"/>
     <use x="1364.84570312" xlink:href="#BitstreamVeraSans-Roman-65"/>
     <use x="1426.36914062" xlink:href="#BitstreamVeraSans-Roman-73"/>
     <use x="1478.46875" xlink:href="#BitstreamVeraSans-Roman-74"/>
     <use x="1517.67773438" xlink:href="#BitstreamVeraSans-Roman-20"/>
     <use x="1549.46484375" xlink:href="#BitstreamVeraSans-Roman-66"/>
     <use x="1584.66992188" xlink:href="#BitstreamVeraSans-Roman-69"/>
     <use x="1612.453125" xlink:href="#BitstreamVeraSans-Roman-74"/>
     <use x="1651.66210938" xlink:href="#BitstreamVeraSans-Roman-6e"/>
     <use x="1715.04101562" xlink:href="#BitstreamVeraSans-Roman-65"/>
     <use x="1776.56445312" xlink:href="#BitstreamVeraSans-Roman-73"/>
     <use x="1828.6640625" xlink:href="#BitstreamVeraSans-Roman-73"/>
    </g>
   </g>
   <g id="legend_1">
    <g id="patch_7">
     <path d="M 79.2 139.266 
L 189.9945 139.266 
L 189.9945 50.4 
L 79.2 50.4 
z
" style="fill:#ffffff;stroke:#000000;stroke-linejoin:miter;"/>
    </g>
    <g id="line2d_59">
     <path d="M 89.28 62.06175 
L 109.44 62.06175 
" style="fill:none;stroke:#0000ff;stroke-linecap:square;"/>
    </g>
    <g id="line2d_60"/>
    <g id="text_22">
     <!-- average -->
     <g transform="translate(125.28 67.10175)scale(0.144 -0.144)">
      <use xlink:href="#BitstreamVeraSans-Roman-61"/>
      <use x="61.279296875" xlink:href="#BitstreamVeraSans-Roman-76"/>
      <use x="120.458984375" xlink:href="#BitstreamVeraSans-Roman-65"/>
      <use x="181.982421875" xlink:href="#BitstreamVeraSans-Roman-72"/>
      <use x="223.095703125" xlink:href="#BitstreamVeraSans-Roman-61"/>
      <use x="284.375" xlink:href="#BitstreamVeraSans-Roman-67"/>
      <use x="347.8515625" xlink:href="#BitstreamVeraSans-Roman-65"/>
     </g>
    </g>
    <g id="line2d_61">
     <path d="M 89.28 83.19825 
L 109.44 83.19825 
" style="fill:none;stroke:#008000;stroke-dasharray:3.000000,5.000000,1.000000,5.000000;stroke-dashoffset:0.0;"/>
    </g>
    <g id="line2d_62"/>
    <g id="text_23">
     <!-- -1 sd -->
     <defs>
      <path d="M 4.890625 31.390625 
L 31.203125 31.390625 
L 31.203125 23.390625 
L 4.890625 23.390625 
z
" id="BitstreamVeraSans-Roman-2d"/>
     </defs>
     <g transform="translate(125.28 88.23825)scale(0.144 -0.144)">
      <use xlink:href="#BitstreamVeraSans-Roman-2d"/>
      <use x="36.083984375" xlink:href="#BitstreamVeraSans-Roman-31"/>
      <use x="99.70703125" xlink:href="#BitstreamVeraSans-Roman-20"/>
      <use x="131.494140625" xlink:href="#BitstreamVeraSans-Roman-73"/>
      <use x="183.59375" xlink:href="#BitstreamVeraSans-Roman-64"/>
     </g>
    </g>
    <g id="line2d_63">
     <path d="M 89.28 104.33475 
L 109.44 104.33475 
" style="fill:none;stroke:#008000;stroke-dasharray:3.000000,5.000000,1.000000,5.000000;stroke-dashoffset:0.0;"/>
    </g>
    <g id="line2d_64"/>
    <g id="text_24">
     <!-- +1 sd -->
     <defs>
      <path d="M 46 62.703125 
L 46 35.5 
L 73.1875 35.5 
L 73.1875 27.203125 
L 46 27.203125 
L 46 0 
L 37.796875 0 
L 37.796875 27.203125 
L 10.59375 27.203125 
L 10.59375 35.5 
L 37.796875 35.5 
L 37.796875 62.703125 
z
" id="BitstreamVeraSans-Roman-2b"/>
     </defs>
     <g transform="translate(125.28 109.37475)scale(0.144 -0.144)">
      <use xlink:href="#BitstreamVeraSans-Roman-2b"/>
      <use x="83.7890625" xlink:href="#BitstreamVeraSans-Roman-31"/>
      <use x="147.412109375" xlink:href="#BitstreamVeraSans-Roman-20"/>
      <use x="179.19921875" xlink:href="#BitstreamVeraSans-Roman-73"/>
      <use x="231.298828125" xlink:href="#BitstreamVeraSans-Roman-64"/>
     </g>
    </g>
    <g id="line2d_65">
     <path d="M 89.28 125.47125 
L 109.44 125.47125 
" style="fill:none;stroke:#ff0000;stroke-linecap:square;"/>
    </g>
    <g id="line2d_66"/>
    <g id="text_25">
     <!-- best -->
     <g transform="translate(125.28 130.51125)scale(0.144 -0.144)">
      <use xlink:href="#BitstreamVeraSans-Roman-62"/>
      <use x="63.4765625" xlink:href="#BitstreamVeraSans-Roman-65"/>
      <use x="125.0" xlink:href="#BitstreamVeraSans-Roman-73"/>
      <use x="177.099609375" xlink:href="#BitstreamVeraSans-Roman-74"/>
     </g>
    </g>
   </g>
  </g>
 </g>
 <defs>
  <clipPath id="pfefebf4cb0">
   <rect height="345.6" width="446.4" x="72.0" y="43.2"/>
  </clipPath>
 </defs>
</svg>
