<?xml version="1.0" encoding="UTF-8" standalone="no"?>
<!DOCTYPE svg PUBLIC "-//W3C//DTD SVG 1.1//EN"
 "http://www.w3.org/Graphics/SVG/1.1/DTD/svg11.dtd">
<!-- Generated by graphviz version 2.38.0 (20140413.2041)
 -->
<!-- Title: %3 Pages: 1 -->
<svg width="844pt" height="405pt"
 viewBox="0.00 0.00 844.25 405.14" xmlns="http://www.w3.org/2000/svg" xmlns:xlink="http://www.w3.org/1999/xlink">
<g id="graph0" class="graph" transform="scale(1 1) rotate(0) translate(4 401.144)">
<title>%3</title>
<polygon fill="white" stroke="none" points="-4,4 -4,-401.144 840.249,-401.144 840.249,4 -4,4"/>
<!-- A -->
<g id="node1" class="node"><title>A</title>
<polygon fill="lightgray" stroke="black" points="23,-381.395 0,-381.395 0,-363.395 23,-363.395 23,-381.395"/>
<text text-anchor="middle" x="11.5" y="-370.195" font-family="Times,serif" font-size="9.00">A</text>
</g>
<!-- B -->
<g id="node2" class="node"><title>B</title>
<polygon fill="lightgray" stroke="black" points="64,-381.395 41,-381.395 41,-363.395 64,-363.395 64,-381.395"/>
<text text-anchor="middle" x="52.5" y="-370.195" font-family="Times,serif" font-size="9.00">B</text>
</g>
<!-- 1827 -->
<g id="node22" class="node"><title>1827</title>
<ellipse fill="white" stroke="black" cx="119.5" cy="-274.17" rx="25" ry="25"/>
<text text-anchor="middle" x="119.5" y="-271.97" font-family="Times,serif" font-size="9.00">1827</text>
</g>
<!-- B&#45;&gt;1827 -->
<g id="edge5" class="edge"><title>B&#45;&gt;1827</title>
<path fill="none" stroke="green" stroke-width="0.32543" d="M58.2124,-363.191C67.35,-350.068 85.6739,-323.751 99.9164,-303.296"/>
<polygon fill="green" stroke="green" stroke-width="0.32543" points="102.89,-305.151 105.732,-294.944 97.1453,-301.151 102.89,-305.151"/>
</g>
<!-- &#45;3 -->
<g id="node3" class="node"><title>&#45;3</title>
<polygon fill="lightgray" stroke="black" points="293.5,-381.395 269.5,-381.395 269.5,-363.395 293.5,-363.395 293.5,-381.395"/>
<text text-anchor="middle" x="281.5" y="-370.195" font-family="Times,serif" font-size="9.00">&#45;3</text>
</g>
<!-- A XOR B -->
<g id="node11" class="node"><title>A XOR B</title>
<ellipse fill="lightblue" stroke="black" cx="323.5" cy="-274.17" rx="37.4533" ry="37.4533"/>
<text text-anchor="middle" x="323.5" y="-271.97" font-family="Times,serif" font-size="9.00">A XOR B</text>
</g>
<!-- &#45;3&#45;&gt;A XOR B -->
<g id="edge9" class="edge"><title>&#45;3&#45;&gt;A XOR B</title>
<path fill="none" stroke="green" stroke-width="0.625553" d="M285.081,-363.191C289.466,-353.144 297.227,-335.364 304.63,-318.402"/>
<polygon fill="green" stroke="green" stroke-width="0.625553" points="307.891,-319.682 308.683,-309.117 301.475,-316.882 307.891,-319.682"/>
</g>
<!-- &#45;4 -->
<g id="node4" class="node"><title>&#45;4</title>
<polygon fill="lightgray" stroke="black" points="450.5,-381.395 426.5,-381.395 426.5,-363.395 450.5,-363.395 450.5,-381.395"/>
<text text-anchor="middle" x="438.5" y="-370.195" font-family="Times,serif" font-size="9.00">&#45;4</text>
</g>
<!-- &#45;5 -->
<g id="node5" class="node"><title>&#45;5</title>
<polygon fill="lightgray" stroke="black" points="498.5,-381.395 474.5,-381.395 474.5,-363.395 498.5,-363.395 498.5,-381.395"/>
<text text-anchor="middle" x="486.5" y="-370.195" font-family="Times,serif" font-size="9.00">&#45;5</text>
</g>
<!-- 2223 -->
<g id="node21" class="node"><title>2223</title>
<ellipse fill="white" stroke="black" cx="474.5" cy="-90.4472" rx="25" ry="25"/>
<text text-anchor="middle" x="474.5" y="-88.2472" font-family="Times,serif" font-size="9.00">2223</text>
</g>
<!-- &#45;5&#45;&gt;2223 -->
<g id="edge6" class="edge"><title>&#45;5&#45;&gt;2223</title>
<path fill="none" stroke="red" stroke-width="0.763707" d="M480.738,-363.392C473.199,-352.376 460.375,-331.628 455.5,-311.647 439.586,-246.421 454.302,-167.49 465.212,-124.059"/>
<polygon fill="red" stroke="red" stroke-width="0.763707" points="468.614,-124.882 467.745,-114.323 461.84,-123.12 468.614,-124.882"/>
</g>
<!-- 2619 -->
<g id="node25" class="node"><title>2619</title>
<ellipse fill="white" stroke="black" cx="489.5" cy="-274.17" rx="25" ry="25"/>
<text text-anchor="middle" x="489.5" y="-271.97" font-family="Times,serif" font-size="9.00">2619</text>
</g>
<!-- &#45;5&#45;&gt;2619 -->
<g id="edge20" class="edge"><title>&#45;5&#45;&gt;2619</title>
<path fill="none" stroke="red" stroke-width="0.614429" d="M486.756,-363.191C487.126,-351.326 487.832,-328.674 488.435,-309.322"/>
<polygon fill="red" stroke="red" stroke-width="0.614429" points="491.935,-309.393 488.748,-299.289 484.938,-309.175 491.935,-309.393"/>
</g>
<!-- &#45;6 -->
<g id="node6" class="node"><title>&#45;6</title>
<polygon fill="lightgray" stroke="black" points="248.5,-381.395 224.5,-381.395 224.5,-363.395 248.5,-363.395 248.5,-381.395"/>
<text text-anchor="middle" x="236.5" y="-370.195" font-family="Times,serif" font-size="9.00">&#45;6</text>
</g>
<!-- &#45;6&#45;&gt;A XOR B -->
<g id="edge17" class="edge"><title>&#45;6&#45;&gt;A XOR B</title>
<path fill="none" stroke="green" stroke-width="0.105182" stroke-dasharray="1,5" d="M243.918,-363.191C254.51,-351.475 274.61,-329.244 291.958,-310.056"/>
<polygon fill="green" stroke="green" stroke-width="0.105182" points="294.583,-312.373 298.693,-302.608 289.39,-307.678 294.583,-312.373"/>
</g>
<!-- 4 -->
<g id="node15" class="node"><title>4</title>
<ellipse fill="lightblue" stroke="black" cx="235.5" cy="-274.17" rx="14.7" ry="14.7"/>
<text text-anchor="middle" x="235.5" y="-271.97" font-family="Times,serif" font-size="9.00">4</text>
</g>
<!-- &#45;6&#45;&gt;4 -->
<g id="edge14" class="edge"><title>&#45;6&#45;&gt;4</title>
<path fill="none" stroke="red" stroke-width="0.245639" stroke-dasharray="1,5" d="M236.415,-363.191C236.269,-349.181 235.967,-320.133 235.75,-299.235"/>
<polygon fill="red" stroke="red" stroke-width="0.245639" points="239.249,-299.135 235.646,-289.172 232.25,-299.208 239.249,-299.135"/>
</g>
<!-- &#45;7 -->
<g id="node7" class="node"><title>&#45;7</title>
<polygon fill="lightgray" stroke="black" points="404.5,-381.395 380.5,-381.395 380.5,-363.395 404.5,-363.395 404.5,-381.395"/>
<text text-anchor="middle" x="392.5" y="-370.195" font-family="Times,serif" font-size="9.00">&#45;7</text>
</g>
<!-- &#45;7&#45;&gt;A XOR B -->
<g id="edge12" class="edge"><title>&#45;7&#45;&gt;A XOR B</title>
<path fill="none" stroke="red" stroke-width="0.509068" d="M386.617,-363.191C378.704,-352.156 364.101,-331.791 350.933,-313.427"/>
<polygon fill="red" stroke="red" stroke-width="0.509068" points="353.684,-311.258 345.013,-305.171 347.996,-315.337 353.684,-311.258"/>
</g>
<!-- 9 -->
<g id="node20" class="node"><title>9</title>
<ellipse fill="lightblue" stroke="black" cx="393.5" cy="-274.17" rx="14.7" ry="14.7"/>
<text text-anchor="middle" x="393.5" y="-271.97" font-family="Times,serif" font-size="9.00">9</text>
</g>
<!-- &#45;7&#45;&gt;9 -->
<g id="edge19" class="edge"><title>&#45;7&#45;&gt;9</title>
<path fill="none" stroke="red" stroke-width="0.138728" stroke-dasharray="1,5" d="M392.585,-363.191C392.731,-349.181 393.033,-320.133 393.25,-299.235"/>
<polygon fill="red" stroke="red" stroke-width="0.138728" points="396.75,-299.208 393.354,-289.172 389.751,-299.135 396.75,-299.208"/>
</g>
<!-- &#45;8 -->
<g id="node8" class="node"><title>&#45;8</title>
<polygon fill="lightgray" stroke="black" points="541.5,-99.4472 517.5,-99.4472 517.5,-81.4472 541.5,-81.4472 541.5,-99.4472"/>
<text text-anchor="middle" x="529.5" y="-88.2472" font-family="Times,serif" font-size="9.00">&#45;8</text>
</g>
<!-- 1 -->
<g id="node12" class="node"><title>1</title>
<ellipse fill="lightblue" stroke="black" cx="501.5" cy="-14.8492" rx="14.7" ry="14.7"/>
<text text-anchor="middle" x="501.5" y="-12.6492" font-family="Times,serif" font-size="9.00">1</text>
</g>
<!-- &#45;8&#45;&gt;1 -->
<g id="edge16" class="edge"><title>&#45;8&#45;&gt;1</title>
<path fill="none" stroke="red" stroke-width="0.305174" stroke-dasharray="1,5" d="M526.397,-81.2897C522.486,-71.0116 515.608,-52.9321 510.071,-38.3773"/>
<polygon fill="red" stroke="red" stroke-width="0.305174" points="513.331,-37.105 506.504,-29.0031 506.789,-39.5941 513.331,-37.105"/>
</g>
<!-- &#45;9 -->
<g id="node9" class="node"><title>&#45;9</title>
<polygon fill="lightgray" stroke="black" points="540.5,-381.395 516.5,-381.395 516.5,-363.395 540.5,-363.395 540.5,-381.395"/>
<text text-anchor="middle" x="528.5" y="-370.195" font-family="Times,serif" font-size="9.00">&#45;9</text>
</g>
<!-- &#45;10 -->
<g id="node10" class="node"><title>&#45;10</title>
<polygon fill="lightgray" stroke="black" points="111,-381.395 82,-381.395 82,-363.395 111,-363.395 111,-381.395"/>
<text text-anchor="middle" x="96.5" y="-370.195" font-family="Times,serif" font-size="9.00">&#45;10</text>
</g>
<!-- &#45;10&#45;&gt;1827 -->
<g id="edge1" class="edge"><title>&#45;10&#45;&gt;1827</title>
<path fill="none" stroke="red" stroke-width="0.265778" d="M98.461,-363.191C101.347,-351.116 106.903,-327.871 111.581,-308.3"/>
<polygon fill="red" stroke="red" stroke-width="0.265778" points="115.008,-309.019 113.929,-298.479 108.2,-307.391 115.008,-309.019"/>
</g>
<!-- 2 -->
<g id="node13" class="node"><title>2</title>
<ellipse fill="lightblue" stroke="black" cx="573.5" cy="-372.395" rx="14.7" ry="14.7"/>
<text text-anchor="middle" x="573.5" y="-370.195" font-family="Times,serif" font-size="9.00">2</text>
</g>
<!-- 3 -->
<g id="node14" class="node"><title>3</title>
<ellipse fill="lightblue" stroke="black" cx="143.5" cy="-372.395" rx="14.7" ry="14.7"/>
<text text-anchor="middle" x="143.5" y="-370.195" font-family="Times,serif" font-size="9.00">3</text>
</g>
<!-- 3&#45;&gt;1827 -->
<g id="edge3" class="edge"><title>3&#45;&gt;1827</title>
<path fill="none" stroke="red" stroke-width="0.219734" d="M140.061,-357.609C136.884,-344.87 132.036,-325.433 127.846,-308.632"/>
<polygon fill="red" stroke="red" stroke-width="0.219734" points="131.158,-307.45 125.342,-298.594 124.366,-309.144 131.158,-307.45"/>
</g>
<!-- 4&#45;&gt;4 -->
<g id="edge7" class="edge"><title>4&#45;&gt;4</title>
<path fill="none" stroke="green" stroke-width="0.156738" stroke-dasharray="1,5" d="M243.914,-286.731C254.983,-297.498 268.349,-293.311 268.349,-274.17 268.349,-259.964 260.986,-253.995 252.665,-256.264"/>
<polygon fill="green" stroke="green" stroke-width="0.156738" points="250.623,-253.409 243.914,-261.609 254.272,-259.383 250.623,-253.409"/>
</g>
<!-- 5 -->
<g id="node16" class="node"><title>5</title>
<ellipse fill="lightblue" stroke="black" cx="621.5" cy="-372.395" rx="14.7" ry="14.7"/>
<text text-anchor="middle" x="621.5" y="-370.195" font-family="Times,serif" font-size="9.00">5</text>
</g>
<!-- 5&#45;&gt;5 -->
<g id="edge8" class="edge"><title>5&#45;&gt;5</title>
<path fill="none" stroke="red" stroke-width="0.450929" d="M629.914,-384.957C640.983,-395.723 654.349,-391.536 654.349,-372.395 654.349,-358.19 646.986,-352.221 638.665,-354.489"/>
<polygon fill="red" stroke="red" stroke-width="0.450929" points="636.623,-351.635 629.914,-359.834 640.272,-357.608 636.623,-351.635"/>
</g>
<!-- 6 -->
<g id="node17" class="node"><title>6</title>
<ellipse fill="lightblue" stroke="black" cx="687.5" cy="-372.395" rx="14.7" ry="14.7"/>
<text text-anchor="middle" x="687.5" y="-370.195" font-family="Times,serif" font-size="9.00">6</text>
</g>
<!-- 7 -->
<g id="node18" class="node"><title>7</title>
<ellipse fill="lightblue" stroke="black" cx="191.5" cy="-372.395" rx="14.7" ry="14.7"/>
<text text-anchor="middle" x="191.5" y="-370.195" font-family="Times,serif" font-size="9.00">7</text>
</g>
<!-- 7&#45;&gt;1827 -->
<g id="edge2" class="edge"><title>7&#45;&gt;1827</title>
<path fill="none" stroke="red" stroke-width="0.143751" d="M182.958,-359.979C172.445,-345.929 154.239,-321.598 140.017,-302.59"/>
<polygon fill="red" stroke="red" stroke-width="0.143751" points="142.796,-300.462 134.003,-294.552 137.191,-304.656 142.796,-300.462"/>
</g>
<!-- 8 -->
<g id="node19" class="node"><title>8</title>
<ellipse fill="lightblue" stroke="black" cx="735.5" cy="-372.395" rx="14.7" ry="14.7"/>
<text text-anchor="middle" x="735.5" y="-370.195" font-family="Times,serif" font-size="9.00">8</text>
</g>
<!-- 8&#45;&gt;8 -->
<g id="edge13" class="edge"><title>8&#45;&gt;8</title>
<path fill="none" stroke="red" stroke-width="0.25486" stroke-dasharray="1,5" d="M743.914,-384.957C754.983,-395.723 768.349,-391.536 768.349,-372.395 768.349,-358.19 760.986,-352.221 752.665,-354.489"/>
<polygon fill="red" stroke="red" stroke-width="0.25486" points="750.623,-351.635 743.914,-359.834 754.272,-357.608 750.623,-351.635"/>
</g>
<!-- 2223&#45;&gt;1 -->
<g id="edge18" class="edge"><title>2223&#45;&gt;1</title>
<path fill="none" stroke="green" stroke-width="2.14938" d="M482.748,-66.9655C486.038,-57.997 489.821,-47.6843 493.124,-38.6813"/>
<polygon fill="green" stroke="green" stroke-width="2.14938" points="496.438,-39.8083 496.597,-29.2146 489.867,-37.3973 496.438,-39.8083"/>
</g>
<!-- 3316 -->
<g id="node23" class="node"><title>3316</title>
<ellipse fill="white" stroke="black" cx="336.5" cy="-372.395" rx="25" ry="25"/>
<text text-anchor="middle" x="336.5" y="-370.195" font-family="Times,serif" font-size="9.00">3316</text>
</g>
<!-- 3316&#45;&gt;A XOR B -->
<g id="edge10" class="edge"><title>3316&#45;&gt;A XOR B</title>
<path fill="none" stroke="green" stroke-width="0.312748" d="M333.287,-347.609C332.216,-339.684 330.984,-330.563 329.763,-321.525"/>
<polygon fill="green" stroke="green" stroke-width="0.312748" points="333.205,-320.866 328.398,-311.425 326.268,-321.803 333.205,-320.866"/>
</g>
<!-- 3671 -->
<g id="node24" class="node"><title>3671</title>
<ellipse fill="white" stroke="black" cx="527.5" cy="-175.945" rx="25" ry="25"/>
<text text-anchor="middle" x="527.5" y="-173.745" font-family="Times,serif" font-size="9.00">3671</text>
</g>
<!-- 3671&#45;&gt;2223 -->
<g id="edge11" class="edge"><title>3671&#45;&gt;2223</title>
<path fill="none" stroke="green" stroke-width="1.97696" d="M514.67,-154.732C508.143,-144.45 500.093,-131.767 492.917,-120.462"/>
<polygon fill="green" stroke="green" stroke-width="1.97696" points="495.709,-118.33 487.395,-111.763 489.799,-122.081 495.709,-118.33"/>
</g>
<!-- 2619&#45;&gt;2223 -->
<g id="edge15" class="edge"><title>2619&#45;&gt;2223</title>
<path fill="none" stroke="green" stroke-width="1.84726" stroke-dasharray="1,5" d="M487.539,-249.413C484.923,-217.715 480.274,-161.399 477.292,-125.274"/>
<polygon fill="green" stroke="green" stroke-width="1.84726" points="480.772,-124.888 476.461,-115.21 473.796,-125.464 480.772,-124.888"/>
</g>
<!-- 2619&#45;&gt;3671 -->
<g id="edge4" class="edge"><title>2619&#45;&gt;3671</title>
<path fill="none" stroke="green" stroke-width="0.610322" d="M498.313,-250.852C503.253,-238.343 509.498,-222.531 514.942,-208.745"/>
<polygon fill="green" stroke="green" stroke-width="0.610322" points="518.317,-209.728 518.734,-199.142 511.806,-207.157 518.317,-209.728"/>
</g>
<!-- 3165 -->
<g id="node26" class="node"><title>3165</title>
<ellipse fill="white" stroke="black" cx="811.5" cy="-372.395" rx="25" ry="25"/>
<text text-anchor="middle" x="811.5" y="-370.195" font-family="Times,serif" font-size="9.00">3165</text>
</g>
</g>
</svg>
