<?xml version="1.0" encoding="UTF-8" standalone="no"?>
<!DOCTYPE svg PUBLIC "-//W3C//DTD SVG 1.1//EN"
 "http://www.w3.org/Graphics/SVG/1.1/DTD/svg11.dtd">
<!-- Generated by graphviz version 2.38.0 (20140413.2041)
 -->
<!-- Title: %3 Pages: 1 -->
<svg width="883pt" height="502pt"
 viewBox="0.00 0.00 883.12 501.96" xmlns="http://www.w3.org/2000/svg" xmlns:xlink="http://www.w3.org/1999/xlink">
<g id="graph0" class="graph" transform="scale(1 1) rotate(0) translate(4 497.955)">
<title>%3</title>
<polygon fill="white" stroke="none" points="-4,4 -4,-497.955 879.125,-497.955 879.125,4 -4,4"/>
<!-- ML&#45;0(I) -->
<g id="node1" class="node"><title>ML&#45;0(I)</title>
<polygon fill="lightgray" stroke="black" points="264.562,-216.765 217.562,-216.765 217.562,-198.765 264.562,-198.765 264.562,-216.765"/>
<text text-anchor="middle" x="241.062" y="-205.565" font-family="Times,serif" font-size="9.00">ML&#45;0(I)</text>
</g>
<!-- 85 -->
<g id="node25" class="node"><title>85</title>
<ellipse fill="white" stroke="black" cx="354.062" cy="-129.338" rx="18.2703" ry="18.2703"/>
<text text-anchor="middle" x="354.062" y="-127.138" font-family="Times,serif" font-size="9.00">85</text>
</g>
<!-- ML&#45;0(I)&#45;&gt;85 -->
<g id="edge32" class="edge"><title>ML&#45;0(I)&#45;&gt;85</title>
<path fill="none" stroke="red" stroke-width="1.20296" d="M253.155,-198.586C271.633,-186.088 307.229,-162.013 330.818,-146.059"/>
<polygon fill="red" stroke="red" stroke-width="1.20296" points="332.887,-148.885 339.21,-140.384 328.966,-143.087 332.887,-148.885"/>
</g>
<!-- ML&#45;1(I) -->
<g id="node2" class="node"><title>ML&#45;1(I)</title>
<polygon fill="lightgray" stroke="black" points="689.562,-466.893 642.562,-466.893 642.562,-448.893 689.562,-448.893 689.562,-466.893"/>
<text text-anchor="middle" x="666.062" y="-455.693" font-family="Times,serif" font-size="9.00">ML&#45;1(I)</text>
</g>
<!-- MR&#45;7(O) -->
<g id="node18" class="node"><title>MR&#45;7(O)</title>
<ellipse fill="lightblue" stroke="black" cx="740.062" cy="-36.0624" rx="36.125" ry="36.125"/>
<text text-anchor="middle" x="740.062" y="-33.8624" font-family="Times,serif" font-size="9.00">MR&#45;7(O)</text>
</g>
<!-- ML&#45;1(I)&#45;&gt;MR&#45;7(O) -->
<g id="edge25" class="edge"><title>ML&#45;1(I)&#45;&gt;MR&#45;7(O)</title>
<path fill="none" stroke="red" stroke-width="0.168049" stroke-dasharray="1,5" d="M674.669,-448.588C687.004,-436.156 709.497,-411.42 721.062,-385.831 739.45,-345.147 740.062,-331.837 740.062,-287.191 740.062,-287.191 740.062,-287.191 740.062,-206.765 740.062,-164.578 740.062,-116.493 740.062,-82.3059"/>
<polygon fill="red" stroke="red" stroke-width="0.168049" points="743.563,-82.164 740.062,-72.1641 736.563,-82.1641 743.563,-82.164"/>
</g>
<!-- 495 -->
<g id="node22" class="node"><title>495</title>
<ellipse fill="white" stroke="black" cx="615.062" cy="-207.765" rx="21.4286" ry="21.4286"/>
<text text-anchor="middle" x="615.062" y="-205.565" font-family="Times,serif" font-size="9.00">495</text>
</g>
<!-- ML&#45;1(I)&#45;&gt;495 -->
<g id="edge8" class="edge"><title>ML&#45;1(I)&#45;&gt;495</title>
<path fill="none" stroke="green" stroke-width="0.114959" stroke-dasharray="1,5" d="M663.042,-448.604C655.019,-426.195 633.098,-362.397 623.062,-307.404 618.95,-284.872 616.952,-259.057 615.98,-239.49"/>
<polygon fill="green" stroke="green" stroke-width="0.114959" points="619.469,-239.161 615.539,-229.322 612.476,-239.464 619.469,-239.161"/>
</g>
<!-- ML&#45;1(I)&#45;&gt;85 -->
<g id="edge9" class="edge"><title>ML&#45;1(I)&#45;&gt;85</title>
<path fill="none" stroke="red" stroke-width="0.130596" stroke-dasharray="1,5" d="M661.023,-448.765C653.063,-435.753 637.328,-409.318 626.062,-385.831 584.789,-299.778 616.738,-250.688 546.062,-186.551 499.785,-144.556 423.718,-133.824 382.593,-131.154"/>
<polygon fill="red" stroke="red" stroke-width="0.130596" points="382.623,-127.651 372.451,-130.615 382.252,-134.641 382.623,-127.651"/>
</g>
<!-- 950 -->
<g id="node26" class="node"><title>950</title>
<ellipse fill="white" stroke="black" cx="691.062" cy="-364.617" rx="21.4286" ry="21.4286"/>
<text text-anchor="middle" x="691.062" y="-362.417" font-family="Times,serif" font-size="9.00">950</text>
</g>
<!-- ML&#45;1(I)&#45;&gt;950 -->
<g id="edge4" class="edge"><title>ML&#45;1(I)&#45;&gt;950</title>
<path fill="none" stroke="green" stroke-width="0.21831" d="M668.281,-448.793C671.548,-436.866 677.821,-413.963 682.958,-395.205"/>
<polygon fill="green" stroke="green" stroke-width="0.21831" points="686.403,-395.876 685.67,-385.307 679.652,-394.027 686.403,-395.876"/>
</g>
<!-- 916 -->
<g id="node27" class="node"><title>916</title>
<ellipse fill="white" stroke="black" cx="653.062" cy="-286.191" rx="21.4286" ry="21.4286"/>
<text text-anchor="middle" x="653.062" y="-283.991" font-family="Times,serif" font-size="9.00">916</text>
</g>
<!-- ML&#45;1(I)&#45;&gt;916 -->
<g id="edge35" class="edge"><title>ML&#45;1(I)&#45;&gt;916</title>
<path fill="none" stroke="green" stroke-width="0.46766" stroke-dasharray="1,5" d="M665.435,-448.708C663.643,-425.309 658.43,-357.255 655.372,-317.343"/>
<polygon fill="green" stroke="green" stroke-width="0.46766" points="658.862,-317.072 654.608,-307.369 651.882,-317.607 658.862,-317.072"/>
</g>
<!-- 926 -->
<g id="node30" class="node"><title>926</title>
<ellipse fill="white" stroke="black" cx="789.062" cy="-129.338" rx="21.4286" ry="21.4286"/>
<text text-anchor="middle" x="789.062" y="-127.138" font-family="Times,serif" font-size="9.00">926</text>
</g>
<!-- ML&#45;1(I)&#45;&gt;926 -->
<g id="edge21" class="edge"><title>ML&#45;1(I)&#45;&gt;926</title>
<path fill="none" stroke="red" stroke-width="0.172884" d="M672.66,-448.857C679.001,-441.395 689.069,-430.208 699.062,-421.831 721.452,-403.063 738.453,-410.526 754.062,-385.831 798.84,-314.992 796.848,-211.149 792.541,-160.441"/>
<polygon fill="red" stroke="red" stroke-width="0.172884" points="796.024,-160.086 791.603,-150.458 789.054,-160.741 796.024,-160.086"/>
</g>
<!-- ML&#45;2(I) -->
<g id="node3" class="node"><title>ML&#45;2(I)</title>
<polygon fill="lightgray" stroke="black" points="754.562,-466.893 707.562,-466.893 707.562,-448.893 754.562,-448.893 754.562,-466.893"/>
<text text-anchor="middle" x="731.062" y="-455.693" font-family="Times,serif" font-size="9.00">ML&#45;2(I)</text>
</g>
<!-- ML&#45;3(I) -->
<g id="node4" class="node"><title>ML&#45;3(I)</title>
<polygon fill="lightgray" stroke="black" points="368.562,-216.765 321.562,-216.765 321.562,-198.765 368.562,-198.765 368.562,-216.765"/>
<text text-anchor="middle" x="345.062" y="-205.565" font-family="Times,serif" font-size="9.00">ML&#45;3(I)</text>
</g>
<!-- ML&#45;3(I)&#45;&gt;85 -->
<g id="edge5" class="edge"><title>ML&#45;3(I)&#45;&gt;85</title>
<path fill="none" stroke="red" stroke-width="0.463814" d="M346.026,-198.586C347.171,-188.856 349.144,-172.108 350.847,-157.639"/>
<polygon fill="red" stroke="red" stroke-width="0.463814" points="354.331,-157.979 352.025,-147.639 347.38,-157.161 354.331,-157.979"/>
</g>
<!-- ML&#45;4(I) -->
<g id="node5" class="node"><title>ML&#45;4(I)</title>
<polygon fill="lightgray" stroke="black" points="166.562,-295.191 119.562,-295.191 119.562,-277.191 166.562,-277.191 166.562,-295.191"/>
<text text-anchor="middle" x="143.062" y="-283.991" font-family="Times,serif" font-size="9.00">ML&#45;4(I)</text>
</g>
<!-- 180 -->
<g id="node24" class="node"><title>180</title>
<ellipse fill="white" stroke="black" cx="178.062" cy="-207.765" rx="21.4286" ry="21.4286"/>
<text text-anchor="middle" x="178.062" y="-205.565" font-family="Times,serif" font-size="9.00">180</text>
</g>
<!-- ML&#45;4(I)&#45;&gt;180 -->
<g id="edge23" class="edge"><title>ML&#45;4(I)&#45;&gt;180</title>
<path fill="none" stroke="green" stroke-width="0.312685" d="M146.808,-277.012C151.193,-267.438 158.689,-251.069 165.241,-236.762"/>
<polygon fill="green" stroke="green" stroke-width="0.312685" points="168.594,-237.845 169.576,-227.296 162.23,-234.93 168.594,-237.845"/>
</g>
<!-- ML&#45;4(I)&#45;&gt;85 -->
<g id="edge11" class="edge"><title>ML&#45;4(I)&#45;&gt;85</title>
<path fill="none" stroke="red" stroke-width="0.259231" d="M119.525,-281.567C91.4673,-275.848 45.7763,-261.79 25.0624,-228.978 14.9967,-213.033 12.9036,-200.964 25.0624,-186.551 63.4457,-141.054 252.125,-132.378 325.138,-130.726"/>
<polygon fill="red" stroke="red" stroke-width="0.259231" points="325.502,-134.22 335.431,-130.523 325.364,-127.221 325.502,-134.22"/>
</g>
<!-- MR&#45;5(I) -->
<g id="node6" class="node"><title>MR&#45;5(I)</title>
<polygon fill="lightgray" stroke="black" points="472.562,-216.765 425.562,-216.765 425.562,-198.765 472.562,-198.765 472.562,-216.765"/>
<text text-anchor="middle" x="449.062" y="-205.565" font-family="Times,serif" font-size="9.00">MR&#45;5(I)</text>
</g>
<!-- MR&#45;5(I)&#45;&gt;85 -->
<g id="edge29" class="edge"><title>MR&#45;5(I)&#45;&gt;85</title>
<path fill="none" stroke="red" stroke-width="0.264881" d="M438.896,-198.586C423.986,-186.59 395.817,-163.929 376.042,-148.02"/>
<polygon fill="red" stroke="red" stroke-width="0.264881" points="378.129,-145.208 368.144,-141.666 373.742,-150.662 378.129,-145.208"/>
</g>
<!-- MR&#45;6(I) -->
<g id="node7" class="node"><title>MR&#45;6(I)</title>
<polygon fill="lightgray" stroke="black" points="537.562,-216.765 490.562,-216.765 490.562,-198.765 537.562,-198.765 537.562,-216.765"/>
<text text-anchor="middle" x="514.062" y="-205.565" font-family="Times,serif" font-size="9.00">MR&#45;6(I)</text>
</g>
<!-- MR&#45;6(I)&#45;&gt;85 -->
<g id="edge36" class="edge"><title>MR&#45;6(I)&#45;&gt;85</title>
<path fill="none" stroke="red" stroke-width="0.423231" d="M501.753,-198.687C495.643,-194.817 488.083,-190.234 481.062,-186.551 447.133,-168.751 406.392,-151.39 380.369,-140.781"/>
<polygon fill="red" stroke="red" stroke-width="0.423231" points="381.417,-137.43 370.834,-136.928 378.794,-143.92 381.417,-137.43"/>
</g>
<!-- MR&#45;7(I) -->
<g id="node8" class="node"><title>MR&#45;7(I)</title>
<polygon fill="lightgray" stroke="black" points="191.562,-466.893 144.562,-466.893 144.562,-448.893 191.562,-448.893 191.562,-466.893"/>
<text text-anchor="middle" x="168.062" y="-455.693" font-family="Times,serif" font-size="9.00">MR&#45;7(I)</text>
</g>
<!-- MR&#45;7(I)&#45;&gt;85 -->
<g id="edge7" class="edge"><title>MR&#45;7(I)&#45;&gt;85</title>
<path fill="none" stroke="red" stroke-width="0.460869" stroke-dasharray="1,5" d="M163.667,-448.785C152.043,-426.826 120.665,-364.045 110.062,-307.404 99.7023,-252.06 104.745,-222.522 148.062,-186.551 199.99,-143.432 282.254,-133.212 325.437,-130.906"/>
<polygon fill="red" stroke="red" stroke-width="0.460869" points="325.69,-134.399 335.531,-130.475 325.391,-127.405 325.69,-134.399"/>
</g>
<!-- 158 -->
<g id="node29" class="node"><title>158</title>
<ellipse fill="white" stroke="black" cx="244.062" cy="-364.617" rx="21.4286" ry="21.4286"/>
<text text-anchor="middle" x="244.062" y="-362.417" font-family="Times,serif" font-size="9.00">158</text>
</g>
<!-- MR&#45;7(I)&#45;&gt;158 -->
<g id="edge28" class="edge"><title>MR&#45;7(I)&#45;&gt;158</title>
<path fill="none" stroke="red" stroke-width="0.248203" d="M174.807,-448.793C185.805,-435.584 208.012,-408.914 224.326,-389.321"/>
<polygon fill="red" stroke="red" stroke-width="0.248203" points="227.198,-391.341 230.907,-381.417 221.819,-386.862 227.198,-391.341"/>
</g>
<!-- MR&#45;8(I) -->
<g id="node9" class="node"><title>MR&#45;8(I)</title>
<polygon fill="lightgray" stroke="black" points="81.5624,-216.765 34.5624,-216.765 34.5624,-198.765 81.5624,-198.765 81.5624,-216.765"/>
<text text-anchor="middle" x="58.0624" y="-205.565" font-family="Times,serif" font-size="9.00">MR&#45;8(I)</text>
</g>
<!-- MR&#45;8(I)&#45;&gt;85 -->
<g id="edge20" class="edge"><title>MR&#45;8(I)&#45;&gt;85</title>
<path fill="none" stroke="green" stroke-width="0.325335" stroke-dasharray="1,5" d="M71.0146,-198.73C78.1764,-194.585 87.3637,-189.743 96.0624,-186.551 176.684,-156.967 277.467,-140.579 325.734,-133.916"/>
<polygon fill="green" stroke="green" stroke-width="0.325335" points="326.308,-137.371 335.753,-132.57 325.375,-130.433 326.308,-137.371"/>
</g>
<!-- MR&#45;9(I) -->
<g id="node10" class="node"><title>MR&#45;9(I)</title>
<polygon fill="lightgray" stroke="black" points="344.562,-466.893 297.562,-466.893 297.562,-448.893 344.562,-448.893 344.562,-466.893"/>
<text text-anchor="middle" x="321.062" y="-455.693" font-family="Times,serif" font-size="9.00">MR&#45;9(I)</text>
</g>
<!-- MR&#45;9(I)&#45;&gt;85 -->
<g id="edge26" class="edge"><title>MR&#45;9(I)&#45;&gt;85</title>
<path fill="none" stroke="red" stroke-width="0.244615" stroke-dasharray="1,5" d="M323.826,-448.747C333.588,-419.484 366.437,-316.755 377.062,-228.978 379.328,-210.258 380.701,-205.053 377.062,-186.551 374.978,-175.954 370.88,-164.839 366.713,-155.316"/>
<polygon fill="red" stroke="red" stroke-width="0.244615" points="369.805,-153.662 362.428,-146.057 363.452,-156.602 369.805,-153.662"/>
</g>
<!-- MR&#45;9(I)&#45;&gt;158 -->
<g id="edge27" class="edge"><title>MR&#45;9(I)&#45;&gt;158</title>
<path fill="none" stroke="green" stroke-width="0.31727" d="M314.229,-448.793C303.086,-435.584 280.588,-408.914 264.059,-389.321"/>
<polygon fill="green" stroke="green" stroke-width="0.31727" points="266.514,-386.804 257.391,-381.417 261.164,-391.317 266.514,-386.804"/>
</g>
<!-- ML&#45;0(O) -->
<g id="node11" class="node"><title>ML&#45;0(O)</title>
<ellipse fill="lightblue" stroke="black" cx="186.062" cy="-36.0624" rx="35.2113" ry="35.2113"/>
<text text-anchor="middle" x="186.062" y="-33.8624" font-family="Times,serif" font-size="9.00">ML&#45;0(O)</text>
</g>
<!-- ML&#45;1(O) -->
<g id="node12" class="node"><title>ML&#45;1(O)</title>
<ellipse fill="lightblue" stroke="black" cx="275.062" cy="-36.0624" rx="35.2113" ry="35.2113"/>
<text text-anchor="middle" x="275.062" y="-33.8624" font-family="Times,serif" font-size="9.00">ML&#45;1(O)</text>
</g>
<!-- ML&#45;2(O) -->
<g id="node13" class="node"><title>ML&#45;2(O)</title>
<ellipse fill="lightblue" stroke="black" cx="364.062" cy="-36.0624" rx="35.2113" ry="35.2113"/>
<text text-anchor="middle" x="364.062" y="-33.8624" font-family="Times,serif" font-size="9.00">ML&#45;2(O)</text>
</g>
<!-- ML&#45;3(O) -->
<g id="node14" class="node"><title>ML&#45;3(O)</title>
<ellipse fill="lightblue" stroke="black" cx="453.062" cy="-36.0624" rx="35.2113" ry="35.2113"/>
<text text-anchor="middle" x="453.062" y="-33.8624" font-family="Times,serif" font-size="9.00">ML&#45;3(O)</text>
</g>
<!-- ML&#45;4(O) -->
<g id="node15" class="node"><title>ML&#45;4(O)</title>
<ellipse fill="lightblue" stroke="black" cx="542.062" cy="-36.0624" rx="35.2113" ry="35.2113"/>
<text text-anchor="middle" x="542.062" y="-33.8624" font-family="Times,serif" font-size="9.00">ML&#45;4(O)</text>
</g>
<!-- MR&#45;5(O) -->
<g id="node16" class="node"><title>MR&#45;5(O)</title>
<ellipse fill="lightblue" stroke="black" cx="631.062" cy="-36.0624" rx="36.125" ry="36.125"/>
<text text-anchor="middle" x="631.062" y="-33.8624" font-family="Times,serif" font-size="9.00">MR&#45;5(O)</text>
</g>
<!-- MR&#45;6(O) -->
<g id="node17" class="node"><title>MR&#45;6(O)</title>
<ellipse fill="lightblue" stroke="black" cx="36.0624" cy="-36.0624" rx="36.125" ry="36.125"/>
<text text-anchor="middle" x="36.0624" y="-33.8624" font-family="Times,serif" font-size="9.00">MR&#45;6(O)</text>
</g>
<!-- MR&#45;8(O) -->
<g id="node19" class="node"><title>MR&#45;8(O)</title>
<ellipse fill="lightblue" stroke="black" cx="809.062" cy="-457.893" rx="36.125" ry="36.125"/>
<text text-anchor="middle" x="809.062" y="-455.693" font-family="Times,serif" font-size="9.00">MR&#45;8(O)</text>
</g>
<!-- MR&#45;9(O) -->
<g id="node20" class="node"><title>MR&#45;9(O)</title>
<ellipse fill="lightblue" stroke="black" cx="839.062" cy="-36.0624" rx="36.125" ry="36.125"/>
<text text-anchor="middle" x="839.062" y="-33.8624" font-family="Times,serif" font-size="9.00">MR&#45;9(O)</text>
</g>
<!-- 839 -->
<g id="node21" class="node"><title>839</title>
<ellipse fill="white" stroke="black" cx="244.062" cy="-286.191" rx="21.4286" ry="21.4286"/>
<text text-anchor="middle" x="244.062" y="-283.991" font-family="Times,serif" font-size="9.00">839</text>
</g>
<!-- 839&#45;&gt;180 -->
<g id="edge16" class="edge"><title>839&#45;&gt;180</title>
<path fill="none" stroke="green" stroke-width="1.19217" d="M230.387,-269.355C221.122,-258.627 208.72,-244.265 198.315,-232.217"/>
<polygon fill="green" stroke="green" stroke-width="1.19217" points="200.679,-229.599 191.494,-224.318 195.381,-234.174 200.679,-229.599"/>
</g>
<!-- 495&#45;&gt;85 -->
<g id="edge3" class="edge"><title>495&#45;&gt;85</title>
<path fill="none" stroke="red" stroke-width="0.159302" stroke-dasharray="1,5" d="M597.744,-195.482C592.252,-192.259 586.048,-188.968 580.062,-186.551 511.63,-158.92 425.888,-142.114 382.311,-134.743"/>
<polygon fill="red" stroke="red" stroke-width="0.159302" points="382.613,-131.245 372.177,-133.071 381.474,-138.152 382.613,-131.245"/>
</g>
<!-- 515 -->
<g id="node23" class="node"><title>515</title>
<ellipse fill="white" stroke="black" cx="849.062" cy="-129.338" rx="21.4286" ry="21.4286"/>
<text text-anchor="middle" x="849.062" y="-127.138" font-family="Times,serif" font-size="9.00">515</text>
</g>
<!-- 515&#45;&gt;MR&#45;9(O) -->
<g id="edge33" class="edge"><title>515&#45;&gt;MR&#45;9(O)</title>
<path fill="none" stroke="red" stroke-width="0.841222" d="M846.843,-108.081C845.999,-100.373 844.999,-91.2482 844.002,-82.1526"/>
<polygon fill="red" stroke="red" stroke-width="0.841222" points="847.455,-81.5321 842.887,-71.9728 840.497,-82.2945 847.455,-81.5321"/>
</g>
<!-- 180&#45;&gt;85 -->
<g id="edge2" class="edge"><title>180&#45;&gt;85</title>
<path fill="none" stroke="green" stroke-width="1.12342" d="M194.786,-194.531C199.006,-191.717 203.607,-188.872 208.062,-186.551 247.711,-165.899 296.729,-148.566 326.679,-138.821"/>
<polygon fill="green" stroke="green" stroke-width="1.12342" points="327.975,-142.081 336.43,-135.698 325.839,-135.415 327.975,-142.081"/>
</g>
<!-- 85&#45;&gt;ML&#45;0(O) -->
<g id="edge1" class="edge"><title>85&#45;&gt;ML&#45;0(O)</title>
<path fill="none" stroke="green" stroke-width="0.289498" stroke-dasharray="1,5" d="M337.125,-122.057C312.813,-112.721 266.994,-93.9227 231.062,-72.1249 227.728,-70.1022 224.355,-67.8723 221.034,-65.5467"/>
<polygon fill="green" stroke="green" stroke-width="0.289498" points="223.077,-62.7046 212.937,-59.6325 218.948,-68.3573 223.077,-62.7046"/>
</g>
<!-- 85&#45;&gt;ML&#45;1(O) -->
<g id="edge30" class="edge"><title>85&#45;&gt;ML&#45;1(O)</title>
<path fill="none" stroke="green" stroke-width="0.404978" d="M342.406,-114.87C332.464,-103.384 317.735,-86.3662 304.585,-71.1726"/>
<polygon fill="green" stroke="green" stroke-width="0.404978" points="307.077,-68.7032 297.886,-63.4325 301.784,-73.2843 307.077,-68.7032"/>
</g>
<!-- 85&#45;&gt;ML&#45;2(O) -->
<g id="edge18" class="edge"><title>85&#45;&gt;ML&#45;2(O)</title>
<path fill="none" stroke="green" stroke-width="0.41639" stroke-dasharray="1,5" d="M355.991,-110.739C356.92,-102.26 358.08,-91.6714 359.228,-81.1895"/>
<polygon fill="green" stroke="green" stroke-width="0.41639" points="362.708,-81.5666 360.317,-71.2449 355.749,-80.8042 362.708,-81.5666"/>
</g>
<!-- 85&#45;&gt;ML&#45;3(O) -->
<g id="edge13" class="edge"><title>85&#45;&gt;ML&#45;3(O)</title>
<path fill="none" stroke="green" stroke-width="0.267568" stroke-dasharray="1,5" d="M367.414,-116.028C380.807,-103.681 401.962,-84.1761 419.895,-67.6416"/>
<polygon fill="green" stroke="green" stroke-width="0.267568" points="422.372,-70.1184 427.352,-60.7667 417.628,-64.972 422.372,-70.1184"/>
</g>
<!-- 85&#45;&gt;ML&#45;4(O) -->
<g id="edge6" class="edge"><title>85&#45;&gt;ML&#45;4(O)</title>
<path fill="none" stroke="red" stroke-width="0.172524" d="M371.516,-123.269C399.204,-114.841 454.424,-96.4378 497.062,-72.1249 500.45,-70.1932 503.86,-68.0263 507.206,-65.7422"/>
<polygon fill="red" stroke="red" stroke-width="0.172524" points="509.266,-68.5716 515.339,-59.8903 505.178,-62.8895 509.266,-68.5716"/>
</g>
<!-- 85&#45;&gt;MR&#45;5(O) -->
<g id="edge34" class="edge"><title>85&#45;&gt;MR&#45;5(O)</title>
<path fill="none" stroke="green" stroke-width="0.72393" d="M372.4,-126.552C412.801,-122.061 511.794,-107.983 586.062,-72.1249 589.379,-70.5235 592.682,-68.6475 595.905,-66.6105"/>
<polygon fill="green" stroke="green" stroke-width="0.72393" points="597.935,-69.4619 604.203,-60.9201 593.977,-63.6887 597.935,-69.4619"/>
</g>
<!-- 85&#45;&gt;MR&#45;6(O) -->
<g id="edge22" class="edge"><title>85&#45;&gt;MR&#45;6(O)</title>
<path fill="none" stroke="green" stroke-width="0.260837" d="M335.608,-127.423C290.242,-124.575 170.469,-113.398 81.0624,-72.1249 77.7185,-70.5812 74.3965,-68.7461 71.1606,-66.7369"/>
<polygon fill="green" stroke="green" stroke-width="0.260837" points="73.0806,-63.81 62.8403,-61.0921 69.1506,-69.6027 73.0806,-63.81"/>
</g>
<!-- 85&#45;&gt;MR&#45;7(O) -->
<g id="edge14" class="edge"><title>85&#45;&gt;MR&#45;7(O)</title>
<path fill="none" stroke="green" stroke-width="0.456705" d="M372.389,-127.242C422.406,-123.81 564.934,-111.062 676.062,-72.1249 684.489,-69.1724 693.127,-65.1882 701.22,-60.964"/>
<polygon fill="green" stroke="green" stroke-width="0.456705" points="702.979,-63.9918 710.087,-56.1351 699.631,-57.8443 702.979,-63.9918"/>
</g>
<!-- 85&#45;&gt;MR&#45;9(O) -->
<g id="edge19" class="edge"><title>85&#45;&gt;MR&#45;9(O)</title>
<path fill="none" stroke="green" stroke-width="0.115334" d="M372.822,-128.801C434.159,-129.714 633.523,-127.921 785.062,-72.1249 790.774,-70.0218 796.499,-67.2271 801.974,-64.13"/>
<polygon fill="green" stroke="green" stroke-width="0.115334" points="804.177,-66.8868 810.903,-58.7012 800.54,-60.9054 804.177,-66.8868"/>
</g>
<!-- 605 -->
<g id="node28" class="node"><title>605</title>
<ellipse fill="white" stroke="black" cx="111.062" cy="-36.0624" rx="21.4286" ry="21.4286"/>
<text text-anchor="middle" x="111.062" y="-33.8624" font-family="Times,serif" font-size="9.00">605</text>
</g>
<!-- 85&#45;&gt;605 -->
<g id="edge31" class="edge"><title>85&#45;&gt;605</title>
<path fill="none" stroke="green" stroke-width="0.119103" d="M335.643,-127.035C297.027,-123.574 205.894,-111.525 142.062,-72.1249 137.512,-69.3162 133.252,-65.6343 129.435,-61.7139"/>
<polygon fill="green" stroke="green" stroke-width="0.119103" points="131.916,-59.2355 122.678,-54.0476 126.665,-63.8639 131.916,-59.2355"/>
</g>
<!-- 950&#45;&gt;916 -->
<g id="edge17" class="edge"><title>950&#45;&gt;916</title>
<path fill="none" stroke="green" stroke-width="0.415256" d="M681.864,-345.117C677.336,-336.011 671.786,-324.848 666.771,-314.761"/>
<polygon fill="green" stroke="green" stroke-width="0.415256" points="669.763,-312.917 662.176,-305.521 663.495,-316.034 669.763,-312.917"/>
</g>
<!-- 916&#45;&gt;495 -->
<g id="edge24" class="edge"><title>916&#45;&gt;495</title>
<path fill="none" stroke="green" stroke-width="0.106078" d="M643.864,-266.69C639.336,-257.584 633.786,-246.422 628.771,-236.334"/>
<polygon fill="green" stroke="green" stroke-width="0.106078" points="631.763,-234.491 624.176,-227.095 625.495,-237.607 631.763,-234.491"/>
</g>
<!-- 158&#45;&gt;839 -->
<g id="edge15" class="edge"><title>158&#45;&gt;839</title>
<path fill="none" stroke="green" stroke-width="0.722007" d="M244.062,-343.136C244.062,-335.278 244.062,-326.134 244.062,-317.543"/>
<polygon fill="green" stroke="green" stroke-width="0.722007" points="247.563,-317.463 244.062,-307.463 240.563,-317.463 247.563,-317.463"/>
</g>
<!-- 158&#45;&gt;180 -->
<g id="edge12" class="edge"><title>158&#45;&gt;180</title>
<path fill="none" stroke="red" stroke-width="0.422251" d="M233.817,-345.962C227.69,-335.045 219.973,-320.635 214.062,-307.404 203.869,-284.584 194.269,-257.915 187.549,-238.065"/>
<polygon fill="red" stroke="red" stroke-width="0.422251" points="190.797,-236.74 184.311,-228.363 184.157,-238.957 190.797,-236.74"/>
</g>
<!-- 158&#45;&gt;85 -->
<g id="edge10" class="edge"><title>158&#45;&gt;85</title>
<path fill="none" stroke="green" stroke-width="0.860239" d="M254.666,-345.806C260.847,-334.953 268.496,-320.664 274.062,-307.404 295.856,-255.488 286.404,-236.67 312.062,-186.551 318.395,-174.182 327.422,-161.676 335.486,-151.61"/>
<polygon fill="green" stroke="green" stroke-width="0.860239" points="338.28,-153.724 341.952,-143.786 332.884,-149.264 338.28,-153.724"/>
</g>
<!-- 926&#45;&gt;MR&#45;7(O) -->
<g id="edge37" class="edge"><title>926&#45;&gt;MR&#45;7(O)</title>
<path fill="none" stroke="green" stroke-width="0.353455" d="M779.382,-110.305C774.32,-100.876 767.906,-88.9292 761.735,-77.4339"/>
<polygon fill="green" stroke="green" stroke-width="0.353455" points="764.682,-75.5238 756.869,-68.3686 758.515,-78.8348 764.682,-75.5238"/>
</g>
</g>
</svg>
