<?xml version="1.0" encoding="UTF-8" standalone="no"?>
<!DOCTYPE svg PUBLIC "-//W3C//DTD SVG 1.1//EN"
 "http://www.w3.org/Graphics/SVG/1.1/DTD/svg11.dtd">
<!-- Generated by graphviz version 2.38.0 (20140413.2041)
 -->
<!-- Title: %3 Pages: 1 -->
<svg width="884pt" height="207pt"
 viewBox="0.00 0.00 884.42 206.89" xmlns="http://www.w3.org/2000/svg" xmlns:xlink="http://www.w3.org/1999/xlink">
<g id="graph0" class="graph" transform="scale(1 1) rotate(0) translate(4 202.894)">
<title>%3</title>
<polygon fill="white" stroke="none" points="-4,4 -4,-202.894 880.418,-202.894 880.418,4 -4,4"/>
<!-- ML&#45;0(I) -->
<g id="node1" class="node"><title>ML&#45;0(I)</title>
<polygon fill="lightgray" stroke="black" points="166.855,-198.894 119.855,-198.894 119.855,-180.894 166.855,-180.894 166.855,-198.894"/>
<text text-anchor="middle" x="143.355" y="-187.694" font-family="Times,serif" font-size="9.00">ML&#45;0(I)</text>
</g>
<!-- 64 -->
<g id="node21" class="node"><title>64</title>
<ellipse fill="white" stroke="black" cx="435.355" cy="-126.51" rx="18.2703" ry="18.2703"/>
<text text-anchor="middle" x="435.355" y="-124.31" font-family="Times,serif" font-size="9.00">64</text>
</g>
<!-- ML&#45;0(I)&#45;&gt;64 -->
<g id="edge4" class="edge"><title>ML&#45;0(I)&#45;&gt;64</title>
<path fill="none" stroke="red" stroke-width="0.17519" stroke-dasharray="1,5" d="M167.094,-182.841C169.875,-182.167 172.675,-181.504 175.355,-180.894 259.527,-161.741 359.736,-142.033 407.439,-132.838"/>
<polygon fill="red" stroke="red" stroke-width="0.17519" points="408.172,-136.261 417.331,-130.937 406.851,-129.387 408.172,-136.261"/>
</g>
<!-- ML&#45;1(I) -->
<g id="node2" class="node"><title>ML&#45;1(I)</title>
<polygon fill="lightgray" stroke="black" points="231.855,-198.894 184.855,-198.894 184.855,-180.894 231.855,-180.894 231.855,-198.894"/>
<text text-anchor="middle" x="208.355" y="-187.694" font-family="Times,serif" font-size="9.00">ML&#45;1(I)</text>
</g>
<!-- ML&#45;1(I)&#45;&gt;64 -->
<g id="edge20" class="edge"><title>ML&#45;1(I)&#45;&gt;64</title>
<path fill="none" stroke="green" stroke-width="0.209201" d="M232.219,-182.441C274.583,-170.985 362.689,-147.16 407.655,-135"/>
<polygon fill="green" stroke="green" stroke-width="0.209201" points="408.852,-138.302 417.592,-132.313 407.025,-131.545 408.852,-138.302"/>
</g>
<!-- ML&#45;2(I) -->
<g id="node3" class="node"><title>ML&#45;2(I)</title>
<polygon fill="lightgray" stroke="black" points="296.855,-198.894 249.855,-198.894 249.855,-180.894 296.855,-180.894 296.855,-198.894"/>
<text text-anchor="middle" x="273.355" y="-187.694" font-family="Times,serif" font-size="9.00">ML&#45;2(I)</text>
</g>
<!-- ML&#45;2(I)&#45;&gt;64 -->
<g id="edge8" class="edge"><title>ML&#45;2(I)&#45;&gt;64</title>
<path fill="none" stroke="green" stroke-width="0.230655" d="M294.534,-180.869C323.787,-169.785 376.561,-149.788 408.535,-137.672"/>
<polygon fill="green" stroke="green" stroke-width="0.230655" points="410.018,-140.853 418.129,-134.037 407.537,-134.308 410.018,-140.853"/>
</g>
<!-- ML&#45;3(I) -->
<g id="node4" class="node"><title>ML&#45;3(I)</title>
<polygon fill="lightgray" stroke="black" points="361.855,-198.894 314.855,-198.894 314.855,-180.894 361.855,-180.894 361.855,-198.894"/>
<text text-anchor="middle" x="338.355" y="-187.694" font-family="Times,serif" font-size="9.00">ML&#45;3(I)</text>
</g>
<!-- ML&#45;3(I)&#45;&gt;64 -->
<g id="edge14" class="edge"><title>ML&#45;3(I)&#45;&gt;64</title>
<path fill="none" stroke="red" stroke-width="0.363507" d="M351.036,-180.869C366.375,-171.162 392.515,-154.621 411.632,-142.523"/>
<polygon fill="red" stroke="red" stroke-width="0.363507" points="413.537,-145.459 420.116,-137.154 409.794,-139.544 413.537,-145.459"/>
</g>
<!-- ML&#45;4(I) -->
<g id="node5" class="node"><title>ML&#45;4(I)</title>
<polygon fill="lightgray" stroke="black" points="426.855,-198.894 379.855,-198.894 379.855,-180.894 426.855,-180.894 426.855,-198.894"/>
<text text-anchor="middle" x="403.355" y="-187.694" font-family="Times,serif" font-size="9.00">ML&#45;4(I)</text>
</g>
<!-- ML&#45;4(I)&#45;&gt;64 -->
<g id="edge1" class="edge"><title>ML&#45;4(I)&#45;&gt;64</title>
<path fill="none" stroke="green" stroke-width="0.118392" d="M407.539,-180.869C411.326,-173.604 417.11,-162.51 422.424,-152.316"/>
<polygon fill="green" stroke="green" stroke-width="0.118392" points="425.582,-153.828 427.102,-143.343 419.375,-150.592 425.582,-153.828"/>
</g>
<!-- MR&#45;5(I) -->
<g id="node6" class="node"><title>MR&#45;5(I)</title>
<polygon fill="lightgray" stroke="black" points="491.855,-198.894 444.855,-198.894 444.855,-180.894 491.855,-180.894 491.855,-198.894"/>
<text text-anchor="middle" x="468.355" y="-187.694" font-family="Times,serif" font-size="9.00">MR&#45;5(I)</text>
</g>
<!-- MR&#45;5(I)&#45;&gt;64 -->
<g id="edge6" class="edge"><title>MR&#45;5(I)&#45;&gt;64</title>
<path fill="none" stroke="green" stroke-width="0.104975" d="M464.041,-180.869C460.135,-173.604 454.171,-162.51 448.691,-152.316"/>
<polygon fill="green" stroke="green" stroke-width="0.104975" points="451.685,-150.493 443.867,-143.343 445.519,-153.808 451.685,-150.493"/>
</g>
<!-- MR&#45;6(I) -->
<g id="node7" class="node"><title>MR&#45;6(I)</title>
<polygon fill="lightgray" stroke="black" points="556.855,-198.894 509.855,-198.894 509.855,-180.894 556.855,-180.894 556.855,-198.894"/>
<text text-anchor="middle" x="533.355" y="-187.694" font-family="Times,serif" font-size="9.00">MR&#45;6(I)</text>
</g>
<!-- MR&#45;6(I)&#45;&gt;64 -->
<g id="edge11" class="edge"><title>MR&#45;6(I)&#45;&gt;64</title>
<path fill="none" stroke="green" stroke-width="0.191988" d="M520.544,-180.869C505.046,-171.162 478.638,-154.621 459.323,-142.523"/>
<polygon fill="green" stroke="green" stroke-width="0.191988" points="461.085,-139.496 450.752,-137.154 457.369,-145.428 461.085,-139.496"/>
</g>
<!-- MR&#45;7(I) -->
<g id="node8" class="node"><title>MR&#45;7(I)</title>
<polygon fill="lightgray" stroke="black" points="621.855,-198.894 574.855,-198.894 574.855,-180.894 621.855,-180.894 621.855,-198.894"/>
<text text-anchor="middle" x="598.355" y="-187.694" font-family="Times,serif" font-size="9.00">MR&#45;7(I)</text>
</g>
<!-- MR&#45;7(I)&#45;&gt;64 -->
<g id="edge18" class="edge"><title>MR&#45;7(I)&#45;&gt;64</title>
<path fill="none" stroke="red" stroke-width="0.116685" d="M577.046,-180.869C547.456,-169.726 493.95,-149.576 461.833,-137.481"/>
<polygon fill="red" stroke="red" stroke-width="0.116685" points="462.806,-134.107 452.214,-133.858 460.339,-140.658 462.806,-134.107"/>
</g>
<!-- MR&#45;8(I) -->
<g id="node9" class="node"><title>MR&#45;8(I)</title>
<polygon fill="lightgray" stroke="black" points="686.855,-198.894 639.855,-198.894 639.855,-180.894 686.855,-180.894 686.855,-198.894"/>
<text text-anchor="middle" x="663.355" y="-187.694" font-family="Times,serif" font-size="9.00">MR&#45;8(I)</text>
</g>
<!-- MR&#45;8(I)&#45;&gt;64 -->
<g id="edge12" class="edge"><title>MR&#45;8(I)&#45;&gt;64</title>
<path fill="none" stroke="red" stroke-width="0.100402" d="M639.814,-182.556C597.276,-171.104 507.838,-147.024 462.679,-134.866"/>
<polygon fill="red" stroke="red" stroke-width="0.100402" points="463.541,-131.474 452.975,-132.253 461.721,-138.233 463.541,-131.474"/>
</g>
<!-- MR&#45;9(I) -->
<g id="node10" class="node"><title>MR&#45;9(I)</title>
<polygon fill="lightgray" stroke="black" points="751.855,-198.894 704.855,-198.894 704.855,-180.894 751.855,-180.894 751.855,-198.894"/>
<text text-anchor="middle" x="728.355" y="-187.694" font-family="Times,serif" font-size="9.00">MR&#45;9(I)</text>
</g>
<!-- MR&#45;9(I)&#45;&gt;64 -->
<g id="edge19" class="edge"><title>MR&#45;9(I)&#45;&gt;64</title>
<path fill="none" stroke="green" stroke-width="0.163116" d="M704.617,-182.839C701.836,-182.165 699.036,-181.503 696.355,-180.894 611.866,-161.702 511.269,-142.012 463.381,-132.829"/>
<polygon fill="green" stroke="green" stroke-width="0.163116" points="463.929,-129.371 453.449,-130.931 462.615,-136.246 463.929,-129.371"/>
</g>
<!-- ML&#45;0(O) -->
<g id="node11" class="node"><title>ML&#45;0(O)</title>
<ellipse fill="lightblue" stroke="black" cx="35.3553" cy="-36.0624" rx="35.2113" ry="35.2113"/>
<text text-anchor="middle" x="35.3553" y="-33.8624" font-family="Times,serif" font-size="9.00">ML&#45;0(O)</text>
</g>
<!-- ML&#45;1(O) -->
<g id="node12" class="node"><title>ML&#45;1(O)</title>
<ellipse fill="lightblue" stroke="black" cx="124.355" cy="-36.0624" rx="35.2113" ry="35.2113"/>
<text text-anchor="middle" x="124.355" y="-33.8624" font-family="Times,serif" font-size="9.00">ML&#45;1(O)</text>
</g>
<!-- ML&#45;2(O) -->
<g id="node13" class="node"><title>ML&#45;2(O)</title>
<ellipse fill="lightblue" stroke="black" cx="213.355" cy="-36.0624" rx="35.2113" ry="35.2113"/>
<text text-anchor="middle" x="213.355" y="-33.8624" font-family="Times,serif" font-size="9.00">ML&#45;2(O)</text>
</g>
<!-- ML&#45;3(O) -->
<g id="node14" class="node"><title>ML&#45;3(O)</title>
<ellipse fill="lightblue" stroke="black" cx="302.355" cy="-36.0624" rx="35.2113" ry="35.2113"/>
<text text-anchor="middle" x="302.355" y="-33.8624" font-family="Times,serif" font-size="9.00">ML&#45;3(O)</text>
</g>
<!-- ML&#45;4(O) -->
<g id="node15" class="node"><title>ML&#45;4(O)</title>
<ellipse fill="lightblue" stroke="black" cx="391.355" cy="-36.0624" rx="35.2113" ry="35.2113"/>
<text text-anchor="middle" x="391.355" y="-33.8624" font-family="Times,serif" font-size="9.00">ML&#45;4(O)</text>
</g>
<!-- MR&#45;5(O) -->
<g id="node16" class="node"><title>MR&#45;5(O)</title>
<ellipse fill="lightblue" stroke="black" cx="480.355" cy="-36.0624" rx="36.125" ry="36.125"/>
<text text-anchor="middle" x="480.355" y="-33.8624" font-family="Times,serif" font-size="9.00">MR&#45;5(O)</text>
</g>
<!-- MR&#45;6(O) -->
<g id="node17" class="node"><title>MR&#45;6(O)</title>
<ellipse fill="lightblue" stroke="black" cx="570.355" cy="-36.0624" rx="36.125" ry="36.125"/>
<text text-anchor="middle" x="570.355" y="-33.8624" font-family="Times,serif" font-size="9.00">MR&#45;6(O)</text>
</g>
<!-- MR&#45;7(O) -->
<g id="node18" class="node"><title>MR&#45;7(O)</title>
<ellipse fill="lightblue" stroke="black" cx="660.355" cy="-36.0624" rx="36.125" ry="36.125"/>
<text text-anchor="middle" x="660.355" y="-33.8624" font-family="Times,serif" font-size="9.00">MR&#45;7(O)</text>
</g>
<!-- MR&#45;8(O) -->
<g id="node19" class="node"><title>MR&#45;8(O)</title>
<ellipse fill="lightblue" stroke="black" cx="750.355" cy="-36.0624" rx="36.125" ry="36.125"/>
<text text-anchor="middle" x="750.355" y="-33.8624" font-family="Times,serif" font-size="9.00">MR&#45;8(O)</text>
</g>
<!-- MR&#45;9(O) -->
<g id="node20" class="node"><title>MR&#45;9(O)</title>
<ellipse fill="lightblue" stroke="black" cx="840.355" cy="-36.0624" rx="36.125" ry="36.125"/>
<text text-anchor="middle" x="840.355" y="-33.8624" font-family="Times,serif" font-size="9.00">MR&#45;9(O)</text>
</g>
<!-- 64&#45;&gt;ML&#45;0(O) -->
<g id="edge3" class="edge"><title>64&#45;&gt;ML&#45;0(O)</title>
<path fill="none" stroke="red" stroke-width="0.32765" d="M416.737,-125.96C362.459,-126.606 200.619,-123.765 80.3553,-72.1249 76.6725,-70.5435 73.0295,-68.5859 69.5057,-66.4105"/>
<polygon fill="red" stroke="red" stroke-width="0.32765" points="71.2733,-63.3798 61.0376,-60.6448 67.3337,-69.166 71.2733,-63.3798"/>
</g>
<!-- 64&#45;&gt;ML&#45;1(O) -->
<g id="edge2" class="edge"><title>64&#45;&gt;ML&#45;1(O)</title>
<path fill="none" stroke="green" stroke-width="0.605047" d="M417.048,-124.718C372.603,-122.197 256.267,-111.983 169.355,-72.1249 165.712,-70.4541 162.096,-68.4354 158.59,-66.2204"/>
<polygon fill="green" stroke="green" stroke-width="0.605047" points="160.367,-63.194 150.148,-60.397 156.392,-68.9561 160.367,-63.194"/>
</g>
<!-- 64&#45;&gt;ML&#45;2(O) -->
<g id="edge9" class="edge"><title>64&#45;&gt;ML&#45;2(O)</title>
<path fill="none" stroke="red" stroke-width="0.255134" d="M417.189,-122.331C384.158,-116.063 312.662,-100.22 258.355,-72.1249 254.892,-70.333 251.429,-68.2629 248.049,-66.0425"/>
<polygon fill="red" stroke="red" stroke-width="0.255134" points="250.056,-63.1756 239.863,-60.2865 246.03,-68.9016 250.056,-63.1756"/>
</g>
<!-- 64&#45;&gt;ML&#45;3(O) -->
<g id="edge17" class="edge"><title>64&#45;&gt;ML&#45;3(O)</title>
<path fill="none" stroke="green" stroke-width="0.109366" d="M419.751,-116.781C401.887,-106.62 371.924,-89.0633 347.355,-72.1249 344.145,-69.9114 340.857,-67.5493 337.592,-65.1367"/>
<polygon fill="green" stroke="green" stroke-width="0.109366" points="339.671,-62.3207 329.58,-59.0916 335.455,-67.9086 339.671,-62.3207"/>
</g>
<!-- 64&#45;&gt;ML&#45;4(O) -->
<g id="edge7" class="edge"><title>64&#45;&gt;ML&#45;4(O)</title>
<path fill="none" stroke="green" stroke-width="0.293407" d="M427.489,-109.697C422.964,-100.601 417.055,-88.7239 411.331,-77.2174"/>
<polygon fill="green" stroke="green" stroke-width="0.293407" points="414.398,-75.5234 406.81,-68.129 408.131,-78.6413 414.398,-75.5234"/>
</g>
<!-- 64&#45;&gt;MR&#45;5(O) -->
<g id="edge16" class="edge"><title>64&#45;&gt;MR&#45;5(O)</title>
<path fill="none" stroke="red" stroke-width="0.46216" d="M443.4,-109.697C447.988,-100.679 453.967,-88.9285 459.774,-77.5151"/>
<polygon fill="red" stroke="red" stroke-width="0.46216" points="462.949,-78.9926 464.364,-68.4927 456.71,-75.8184 462.949,-78.9926"/>
</g>
<!-- 64&#45;&gt;MR&#45;6(O) -->
<g id="edge10" class="edge"><title>64&#45;&gt;MR&#45;6(O)</title>
<path fill="none" stroke="green" stroke-width="0.277957" d="M451.338,-116.838C469.629,-106.73 500.292,-89.2215 525.355,-72.1249 528.398,-70.0494 531.506,-67.837 534.597,-65.5714"/>
<polygon fill="green" stroke="green" stroke-width="0.277957" points="536.781,-68.3081 542.679,-59.5068 532.58,-62.709 536.781,-68.3081"/>
</g>
<!-- 64&#45;&gt;MR&#45;7(O) -->
<g id="edge13" class="edge"><title>64&#45;&gt;MR&#45;7(O)</title>
<path fill="none" stroke="green" stroke-width="0.216494" d="M453.306,-122.488C486.662,-116.386 559.849,-100.678 615.355,-72.1249 618.63,-70.4401 621.904,-68.5049 625.106,-66.4277"/>
<polygon fill="green" stroke="green" stroke-width="0.216494" points="627.166,-69.2584 633.372,-60.6715 623.166,-63.5139 627.166,-69.2584"/>
</g>
<!-- 64&#45;&gt;MR&#45;8(O) -->
<g id="edge5" class="edge"><title>64&#45;&gt;MR&#45;8(O)</title>
<path fill="none" stroke="green" stroke-width="0.655111" d="M453.937,-124.776C499.048,-122.383 617.129,-112.433 705.355,-72.1249 708.801,-70.5506 712.222,-68.6641 715.548,-66.5936"/>
<polygon fill="green" stroke="green" stroke-width="0.655111" points="717.794,-69.298 724.084,-60.772 713.85,-63.5149 717.794,-69.298"/>
</g>
<!-- 64&#45;&gt;MR&#45;9(O) -->
<g id="edge15" class="edge"><title>64&#45;&gt;MR&#45;9(O)</title>
<path fill="none" stroke="green" stroke-width="0.1548" d="M453.843,-126.011C508.491,-126.829 673.091,-124.476 795.355,-72.1249 798.838,-70.6338 802.284,-68.8055 805.628,-66.7741"/>
<polygon fill="green" stroke="green" stroke-width="0.1548" points="807.847,-69.4996 814.191,-61.0144 803.94,-63.6911 807.847,-69.4996"/>
</g>
</g>
</svg>
