<?xml version="1.0" encoding="UTF-8" standalone="no"?>
<!DOCTYPE svg PUBLIC "-//W3C//DTD SVG 1.1//EN"
 "http://www.w3.org/Graphics/SVG/1.1/DTD/svg11.dtd">
<!-- Generated by graphviz version 2.38.0 (20140413.2041)
 -->
<!-- Title: %3 Pages: 1 -->
<svg width="893pt" height="315pt"
 viewBox="0.00 0.00 892.57 315.02" xmlns="http://www.w3.org/2000/svg" xmlns:xlink="http://www.w3.org/1999/xlink">
<g id="graph0" class="graph" transform="scale(1 1) rotate(0) translate(4 311.019)">
<title>%3</title>
<polygon fill="white" stroke="none" points="-4,4 -4,-311.019 888.569,-311.019 888.569,4 -4,4"/>
<!-- ML&#45;0(I) -->
<g id="node1" class="node"><title>ML&#45;0(I)</title>
<polygon fill="lightgray" stroke="black" points="211.855,-307.019 164.855,-307.019 164.855,-289.019 211.855,-289.019 211.855,-307.019"/>
<text text-anchor="middle" x="188.355" y="-295.819" font-family="Times,serif" font-size="9.00">ML&#45;0(I)</text>
</g>
<!-- 64 -->
<g id="node21" class="node"><title>64</title>
<ellipse fill="white" stroke="black" cx="480.355" cy="-234.635" rx="18.2703" ry="18.2703"/>
<text text-anchor="middle" x="480.355" y="-232.435" font-family="Times,serif" font-size="9.00">64</text>
</g>
<!-- ML&#45;0(I)&#45;&gt;64 -->
<g id="edge13" class="edge"><title>ML&#45;0(I)&#45;&gt;64</title>
<path fill="none" stroke="green" stroke-width="0.182078" d="M212.094,-290.966C214.875,-290.292 217.675,-289.629 220.355,-289.019 304.527,-269.866 404.736,-250.157 452.439,-240.963"/>
<polygon fill="green" stroke="green" stroke-width="0.182078" points="453.172,-244.386 462.331,-239.062 451.851,-237.512 453.172,-244.386"/>
</g>
<!-- ML&#45;1(I) -->
<g id="node2" class="node"><title>ML&#45;1(I)</title>
<polygon fill="lightgray" stroke="black" points="276.855,-307.019 229.855,-307.019 229.855,-289.019 276.855,-289.019 276.855,-307.019"/>
<text text-anchor="middle" x="253.355" y="-295.819" font-family="Times,serif" font-size="9.00">ML&#45;1(I)</text>
</g>
<!-- ML&#45;1(I)&#45;&gt;64 -->
<g id="edge6" class="edge"><title>ML&#45;1(I)&#45;&gt;64</title>
<path fill="none" stroke="green" stroke-width="0.256323" d="M277.219,-290.566C319.583,-279.11 407.689,-255.285 452.655,-243.125"/>
<polygon fill="green" stroke="green" stroke-width="0.256323" points="453.852,-246.427 462.592,-240.438 452.025,-239.67 453.852,-246.427"/>
</g>
<!-- ML&#45;2(I) -->
<g id="node3" class="node"><title>ML&#45;2(I)</title>
<polygon fill="lightgray" stroke="black" points="341.855,-307.019 294.855,-307.019 294.855,-289.019 341.855,-289.019 341.855,-307.019"/>
<text text-anchor="middle" x="318.355" y="-295.819" font-family="Times,serif" font-size="9.00">ML&#45;2(I)</text>
</g>
<!-- ML&#45;2(I)&#45;&gt;64 -->
<g id="edge8" class="edge"><title>ML&#45;2(I)&#45;&gt;64</title>
<path fill="none" stroke="green" stroke-width="0.146619" d="M339.534,-288.994C368.787,-277.91 421.561,-257.913 453.535,-245.797"/>
<polygon fill="green" stroke="green" stroke-width="0.146619" points="455.018,-248.978 463.129,-242.162 452.537,-242.432 455.018,-248.978"/>
</g>
<!-- ML&#45;3(I) -->
<g id="node4" class="node"><title>ML&#45;3(I)</title>
<polygon fill="lightgray" stroke="black" points="406.855,-307.019 359.855,-307.019 359.855,-289.019 406.855,-289.019 406.855,-307.019"/>
<text text-anchor="middle" x="383.355" y="-295.819" font-family="Times,serif" font-size="9.00">ML&#45;3(I)</text>
</g>
<!-- ML&#45;3(I)&#45;&gt;64 -->
<g id="edge4" class="edge"><title>ML&#45;3(I)&#45;&gt;64</title>
<path fill="none" stroke="red" stroke-width="0.4729" d="M396.036,-288.994C411.375,-279.287 437.515,-262.746 456.632,-250.647"/>
<polygon fill="red" stroke="red" stroke-width="0.4729" points="458.537,-253.584 465.116,-245.279 454.794,-247.669 458.537,-253.584"/>
</g>
<!-- ML&#45;4(I) -->
<g id="node5" class="node"><title>ML&#45;4(I)</title>
<polygon fill="lightgray" stroke="black" points="471.855,-307.019 424.855,-307.019 424.855,-289.019 471.855,-289.019 471.855,-307.019"/>
<text text-anchor="middle" x="448.355" y="-295.819" font-family="Times,serif" font-size="9.00">ML&#45;4(I)</text>
</g>
<!-- ML&#45;4(I)&#45;&gt;64 -->
<g id="edge1" class="edge"><title>ML&#45;4(I)&#45;&gt;64</title>
<path fill="none" stroke="green" stroke-width="0.31828" d="M452.539,-288.994C456.326,-281.729 462.11,-270.635 467.424,-260.441"/>
<polygon fill="green" stroke="green" stroke-width="0.31828" points="470.582,-261.953 472.102,-251.468 464.375,-258.717 470.582,-261.953"/>
</g>
<!-- MR&#45;5(I) -->
<g id="node6" class="node"><title>MR&#45;5(I)</title>
<polygon fill="lightgray" stroke="black" points="536.855,-307.019 489.855,-307.019 489.855,-289.019 536.855,-289.019 536.855,-307.019"/>
<text text-anchor="middle" x="513.355" y="-295.819" font-family="Times,serif" font-size="9.00">MR&#45;5(I)</text>
</g>
<!-- MR&#45;5(I)&#45;&gt;64 -->
<g id="edge19" class="edge"><title>MR&#45;5(I)&#45;&gt;64</title>
<path fill="none" stroke="green" stroke-width="0.309824" d="M509.041,-288.994C505.135,-281.729 499.171,-270.635 493.691,-260.441"/>
<polygon fill="green" stroke="green" stroke-width="0.309824" points="496.685,-258.618 488.867,-251.468 490.519,-261.933 496.685,-258.618"/>
</g>
<!-- MR&#45;6(I) -->
<g id="node7" class="node"><title>MR&#45;6(I)</title>
<polygon fill="lightgray" stroke="black" points="601.855,-307.019 554.855,-307.019 554.855,-289.019 601.855,-289.019 601.855,-307.019"/>
<text text-anchor="middle" x="578.355" y="-295.819" font-family="Times,serif" font-size="9.00">MR&#45;6(I)</text>
</g>
<!-- MR&#45;6(I)&#45;&gt;64 -->
<g id="edge16" class="edge"><title>MR&#45;6(I)&#45;&gt;64</title>
<path fill="none" stroke="green" stroke-width="0.138084" d="M565.544,-288.994C550.046,-279.287 523.638,-262.746 504.323,-250.647"/>
<polygon fill="green" stroke="green" stroke-width="0.138084" points="506.085,-247.621 495.752,-245.279 502.369,-253.553 506.085,-247.621"/>
</g>
<!-- MR&#45;7(I) -->
<g id="node8" class="node"><title>MR&#45;7(I)</title>
<polygon fill="lightgray" stroke="black" points="666.855,-307.019 619.855,-307.019 619.855,-289.019 666.855,-289.019 666.855,-307.019"/>
<text text-anchor="middle" x="643.355" y="-295.819" font-family="Times,serif" font-size="9.00">MR&#45;7(I)</text>
</g>
<!-- MR&#45;7(I)&#45;&gt;64 -->
<g id="edge11" class="edge"><title>MR&#45;7(I)&#45;&gt;64</title>
<path fill="none" stroke="green" stroke-width="0.109711" d="M622.046,-288.994C592.456,-277.851 538.95,-257.701 506.833,-245.606"/>
<polygon fill="green" stroke="green" stroke-width="0.109711" points="507.806,-242.232 497.214,-241.983 505.339,-248.783 507.806,-242.232"/>
</g>
<!-- MR&#45;8(I) -->
<g id="node9" class="node"><title>MR&#45;8(I)</title>
<polygon fill="lightgray" stroke="black" points="731.855,-307.019 684.855,-307.019 684.855,-289.019 731.855,-289.019 731.855,-307.019"/>
<text text-anchor="middle" x="708.355" y="-295.819" font-family="Times,serif" font-size="9.00">MR&#45;8(I)</text>
</g>
<!-- MR&#45;8(I)&#45;&gt;64 -->
<g id="edge3" class="edge"><title>MR&#45;8(I)&#45;&gt;64</title>
<path fill="none" stroke="green" stroke-width="0.172064" d="M684.814,-290.681C642.276,-279.229 552.838,-255.149 507.679,-242.991"/>
<polygon fill="green" stroke="green" stroke-width="0.172064" points="508.541,-239.599 497.975,-240.378 506.721,-246.358 508.541,-239.599"/>
</g>
<!-- MR&#45;9(I) -->
<g id="node10" class="node"><title>MR&#45;9(I)</title>
<polygon fill="lightgray" stroke="black" points="796.855,-307.019 749.855,-307.019 749.855,-289.019 796.855,-289.019 796.855,-307.019"/>
<text text-anchor="middle" x="773.355" y="-295.819" font-family="Times,serif" font-size="9.00">MR&#45;9(I)</text>
</g>
<!-- MR&#45;9(I)&#45;&gt;64 -->
<g id="edge22" class="edge"><title>MR&#45;9(I)&#45;&gt;64</title>
<path fill="none" stroke="green" stroke-width="0.126817" d="M749.586,-291.151C746.485,-290.416 743.347,-289.689 740.355,-289.019 656.116,-270.166 555.938,-250.319 508.257,-241.028"/>
<polygon fill="green" stroke="green" stroke-width="0.126817" points="508.854,-237.578 498.369,-239.106 507.518,-244.449 508.854,-237.578"/>
</g>
<!-- ML&#45;0(O) -->
<g id="node11" class="node"><title>ML&#45;0(O)</title>
<ellipse fill="lightblue" stroke="black" cx="35.3553" cy="-144.187" rx="35.2113" ry="35.2113"/>
<text text-anchor="middle" x="35.3553" y="-141.987" font-family="Times,serif" font-size="9.00">ML&#45;0(O)</text>
</g>
<!-- ML&#45;1(O) -->
<g id="node12" class="node"><title>ML&#45;1(O)</title>
<ellipse fill="lightblue" stroke="black" cx="124.355" cy="-144.187" rx="35.2113" ry="35.2113"/>
<text text-anchor="middle" x="124.355" y="-141.987" font-family="Times,serif" font-size="9.00">ML&#45;1(O)</text>
</g>
<!-- ML&#45;2(O) -->
<g id="node13" class="node"><title>ML&#45;2(O)</title>
<ellipse fill="lightblue" stroke="black" cx="213.355" cy="-144.187" rx="35.2113" ry="35.2113"/>
<text text-anchor="middle" x="213.355" y="-141.987" font-family="Times,serif" font-size="9.00">ML&#45;2(O)</text>
</g>
<!-- ML&#45;3(O) -->
<g id="node14" class="node"><title>ML&#45;3(O)</title>
<ellipse fill="lightblue" stroke="black" cx="302.355" cy="-144.187" rx="35.2113" ry="35.2113"/>
<text text-anchor="middle" x="302.355" y="-141.987" font-family="Times,serif" font-size="9.00">ML&#45;3(O)</text>
</g>
<!-- ML&#45;4(O) -->
<g id="node15" class="node"><title>ML&#45;4(O)</title>
<ellipse fill="lightblue" stroke="black" cx="391.355" cy="-144.187" rx="35.2113" ry="35.2113"/>
<text text-anchor="middle" x="391.355" y="-141.987" font-family="Times,serif" font-size="9.00">ML&#45;4(O)</text>
</g>
<!-- MR&#45;5(O) -->
<g id="node16" class="node"><title>MR&#45;5(O)</title>
<ellipse fill="lightblue" stroke="black" cx="480.355" cy="-144.187" rx="36.125" ry="36.125"/>
<text text-anchor="middle" x="480.355" y="-141.987" font-family="Times,serif" font-size="9.00">MR&#45;5(O)</text>
</g>
<!-- MR&#45;6(O) -->
<g id="node17" class="node"><title>MR&#45;6(O)</title>
<ellipse fill="lightblue" stroke="black" cx="570.355" cy="-144.187" rx="36.125" ry="36.125"/>
<text text-anchor="middle" x="570.355" y="-141.987" font-family="Times,serif" font-size="9.00">MR&#45;6(O)</text>
</g>
<!-- MR&#45;7(O) -->
<g id="node18" class="node"><title>MR&#45;7(O)</title>
<ellipse fill="lightblue" stroke="black" cx="660.355" cy="-144.187" rx="36.125" ry="36.125"/>
<text text-anchor="middle" x="660.355" y="-141.987" font-family="Times,serif" font-size="9.00">MR&#45;7(O)</text>
</g>
<!-- MR&#45;8(O) -->
<g id="node19" class="node"><title>MR&#45;8(O)</title>
<ellipse fill="lightblue" stroke="black" cx="750.355" cy="-144.187" rx="36.125" ry="36.125"/>
<text text-anchor="middle" x="750.355" y="-141.987" font-family="Times,serif" font-size="9.00">MR&#45;8(O)</text>
</g>
<!-- MR&#45;9(O) -->
<g id="node20" class="node"><title>MR&#45;9(O)</title>
<ellipse fill="lightblue" stroke="black" cx="838.355" cy="-36.0624" rx="36.125" ry="36.125"/>
<text text-anchor="middle" x="838.355" y="-33.8624" font-family="Times,serif" font-size="9.00">MR&#45;9(O)</text>
</g>
<!-- 64&#45;&gt;ML&#45;0(O) -->
<g id="edge2" class="edge"><title>64&#45;&gt;ML&#45;0(O)</title>
<path fill="none" stroke="red" stroke-width="0.458217" d="M461.664,-232.44C392.428,-227.816 150.934,-209.865 80.3553,-180.25 76.6595,-178.699 73.0076,-176.762 69.4781,-174.6"/>
<polygon fill="red" stroke="red" stroke-width="0.458217" points="71.2429,-171.568 61.0016,-168.855 67.3152,-177.363 71.2429,-171.568"/>
</g>
<!-- 64&#45;&gt;ML&#45;1(O) -->
<g id="edge7" class="edge"><title>64&#45;&gt;ML&#45;1(O)</title>
<path fill="none" stroke="green" stroke-width="0.670389" d="M461.936,-233.552C412.404,-232.695 273.086,-226.07 169.355,-180.25 165.689,-178.63 162.057,-176.647 158.541,-174.454"/>
<polygon fill="green" stroke="green" stroke-width="0.670389" points="160.312,-171.425 150.084,-168.664 156.358,-177.201 160.312,-171.425"/>
</g>
<!-- 64&#45;&gt;ML&#45;2(O) -->
<g id="edge12" class="edge"><title>64&#45;&gt;ML&#45;2(O)</title>
<path fill="none" stroke="red" stroke-width="0.180751" d="M461.925,-231.869C422.722,-227.553 328.887,-214.229 258.355,-180.25 254.744,-178.51 251.151,-176.444 247.659,-174.199"/>
<polygon fill="red" stroke="red" stroke-width="0.180751" points="249.443,-171.176 239.237,-168.331 245.441,-176.92 249.443,-171.176"/>
</g>
<!-- 64&#45;&gt;ML&#45;3(O) -->
<g id="edge17" class="edge"><title>64&#45;&gt;ML&#45;3(O)</title>
<path fill="none" stroke="red" stroke-width="0.2052" stroke-dasharray="1,5" d="M462.85,-228.353C436.717,-220.089 386.397,-202.697 347.355,-180.25 343.975,-178.306 340.569,-176.131 337.227,-173.841"/>
<polygon fill="red" stroke="red" stroke-width="0.2052" points="339.257,-170.99 329.098,-167.981 335.163,-176.668 339.257,-170.99"/>
</g>
<!-- 64&#45;&gt;ML&#45;4(O) -->
<g id="edge20" class="edge"><title>64&#45;&gt;ML&#45;4(O)</title>
<path fill="none" stroke="green" stroke-width="0.246213" d="M467.604,-220.962C456.121,-209.551 438.753,-192.29 423.492,-177.124"/>
<polygon fill="green" stroke="green" stroke-width="0.246213" points="425.764,-174.448 416.204,-169.882 420.83,-179.413 425.764,-174.448"/>
</g>
<!-- 64&#45;&gt;MR&#45;5(O) -->
<g id="edge21" class="edge"><title>64&#45;&gt;MR&#45;5(O)</title>
<path fill="none" stroke="green" stroke-width="0.143549" d="M480.355,-216.16C480.355,-208.771 480.355,-199.787 480.355,-190.729"/>
<polygon fill="green" stroke="green" stroke-width="0.143549" points="483.855,-190.551 480.355,-180.551 476.855,-190.551 483.855,-190.551"/>
</g>
<!-- 64&#45;&gt;MR&#45;6(O) -->
<g id="edge9" class="edge"><title>64&#45;&gt;MR&#45;6(O)</title>
<path fill="none" stroke="green" stroke-width="0.250028" d="M493.25,-220.962C504.779,-209.633 522.173,-192.538 537.525,-177.452"/>
<polygon fill="green" stroke="green" stroke-width="0.250028" points="540.183,-179.746 544.862,-170.241 535.276,-174.754 540.183,-179.746"/>
</g>
<!-- 64&#45;&gt;MR&#45;7(O) -->
<g id="edge14" class="edge"><title>64&#45;&gt;MR&#45;7(O)</title>
<path fill="none" stroke="green" stroke-width="0.216494" d="M498.129,-228.402C524.663,-220.2 575.75,-202.886 615.355,-180.25 618.553,-178.422 621.771,-176.386 624.936,-174.24"/>
<polygon fill="green" stroke="green" stroke-width="0.216494" points="627.044,-177.035 633.141,-168.371 622.972,-171.342 627.044,-177.035"/>
</g>
<!-- 64&#45;&gt;MR&#45;8(O) -->
<g id="edge5" class="edge"><title>64&#45;&gt;MR&#45;8(O)</title>
<path fill="none" stroke="green" stroke-width="0.377829" d="M498.734,-231.952C538.285,-227.769 633.689,-214.642 705.355,-180.25 708.676,-178.656 711.981,-176.786 715.206,-174.753"/>
<polygon fill="green" stroke="green" stroke-width="0.377829" points="717.234,-177.606 723.508,-169.069 713.279,-171.83 717.234,-177.606"/>
</g>
<!-- 64&#45;&gt;MR&#45;9(O) -->
<g id="edge10" class="edge"><title>64&#45;&gt;MR&#45;9(O)</title>
<path fill="none" stroke="green" stroke-width="0.190296" stroke-dasharray="1,5" d="M498.99,-232.985C559.75,-230.497 750.768,-219.631 795.355,-180.25 823.003,-155.83 833.206,-114.394 836.812,-82.3614"/>
<polygon fill="green" stroke="green" stroke-width="0.190296" points="840.304,-82.611 837.765,-72.3249 833.335,-81.9494 840.304,-82.611"/>
</g>
<!-- 102 -->
<g id="node22" class="node"><title>102</title>
<ellipse fill="white" stroke="black" cx="863.355" cy="-144.187" rx="21.4286" ry="21.4286"/>
<text text-anchor="middle" x="863.355" y="-141.987" font-family="Times,serif" font-size="9.00">102</text>
</g>
<!-- 64&#45;&gt;102 -->
<g id="edge15" class="edge"><title>64&#45;&gt;102</title>
<path fill="none" stroke="green" stroke-width="0.360325" d="M498.876,-232.318C562.21,-227.584 769.478,-210.102 828.355,-180.25 833.958,-177.409 839.212,-173.336 843.861,-168.964"/>
<polygon fill="green" stroke="green" stroke-width="0.360325" points="846.646,-171.118 851.068,-161.49 841.607,-166.259 846.646,-171.118"/>
</g>
<!-- 102&#45;&gt;MR&#45;9(O) -->
<g id="edge18" class="edge"><title>102&#45;&gt;MR&#45;9(O)</title>
<path fill="none" stroke="green" stroke-width="0.158228" d="M858.653,-123.226C855.872,-111.42 852.233,-95.9745 848.806,-81.4257"/>
<polygon fill="green" stroke="green" stroke-width="0.158228" points="852.18,-80.4835 846.48,-71.5525 845.366,-82.0887 852.18,-80.4835"/>
</g>
</g>
</svg>
