<?xml version="1.0" encoding="UTF-8" standalone="no"?>
<!DOCTYPE svg PUBLIC "-//W3C//DTD SVG 1.1//EN"
 "http://www.w3.org/Graphics/SVG/1.1/DTD/svg11.dtd">
<!-- Generated by graphviz version 2.38.0 (20140413.2041)
 -->
<!-- Title: %3 Pages: 1 -->
<svg width="872pt" height="609pt"
 viewBox="0.00 0.00 872.12 608.67" xmlns="http://www.w3.org/2000/svg" xmlns:xlink="http://www.w3.org/1999/xlink">
<g id="graph0" class="graph" transform="scale(1 1) rotate(0) translate(4 604.666)">
<title>%3</title>
<polygon fill="white" stroke="none" points="-4,4 -4,-604.666 868.125,-604.666 868.125,4 -4,4"/>
<!-- ML&#45;0(I) -->
<g id="node1" class="node"><title>ML&#45;0(I)</title>
<polygon fill="lightgray" stroke="black" points="133.562,-323.475 86.5624,-323.475 86.5624,-305.475 133.562,-305.475 133.562,-323.475"/>
<text text-anchor="middle" x="110.062" y="-312.275" font-family="Times,serif" font-size="9.00">ML&#45;0(I)</text>
</g>
<!-- 85 -->
<g id="node25" class="node"><title>85</title>
<ellipse fill="white" stroke="black" cx="474.062" cy="-236.049" rx="18.2703" ry="18.2703"/>
<text text-anchor="middle" x="474.062" y="-233.849" font-family="Times,serif" font-size="9.00">85</text>
</g>
<!-- ML&#45;0(I)&#45;&gt;85 -->
<g id="edge28" class="edge"><title>ML&#45;0(I)&#45;&gt;85</title>
<path fill="none" stroke="red" stroke-width="1.38137" d="M122.961,-305.288C130.106,-301.099 139.296,-296.263 148.062,-293.262 253.985,-257.004 387.621,-243.37 445.346,-238.929"/>
<polygon fill="red" stroke="red" stroke-width="1.38137" points="445.817,-242.404 455.534,-238.181 445.304,-235.423 445.817,-242.404"/>
</g>
<!-- ML&#45;1(I) -->
<g id="node2" class="node"><title>ML&#45;1(I)</title>
<polygon fill="lightgray" stroke="black" points="185.562,-401.902 138.562,-401.902 138.562,-383.902 185.562,-383.902 185.562,-401.902"/>
<text text-anchor="middle" x="162.062" y="-390.702" font-family="Times,serif" font-size="9.00">ML&#45;1(I)</text>
</g>
<!-- MR&#45;7(O) -->
<g id="node18" class="node"><title>MR&#45;7(O)</title>
<ellipse fill="lightblue" stroke="black" cx="36.0624" cy="-142.773" rx="36.125" ry="36.125"/>
<text text-anchor="middle" x="36.0624" y="-140.573" font-family="Times,serif" font-size="9.00">MR&#45;7(O)</text>
</g>
<!-- ML&#45;1(I)&#45;&gt;MR&#45;7(O) -->
<g id="edge20" class="edge"><title>ML&#45;1(I)&#45;&gt;MR&#45;7(O)</title>
<path fill="none" stroke="red" stroke-width="0.584047" d="M141.526,-383.816C121.862,-374.985 92.9109,-358.929 77.0624,-335.688 47.2457,-291.963 38.5179,-230.641 36.2644,-189.176"/>
<polygon fill="red" stroke="red" stroke-width="0.584047" points="39.7567,-188.922 35.822,-179.085 32.7634,-189.229 39.7567,-188.922"/>
</g>
<!-- 495 -->
<g id="node22" class="node"><title>495</title>
<ellipse fill="white" stroke="black" cx="602.062" cy="-314.475" rx="21.4286" ry="21.4286"/>
<text text-anchor="middle" x="602.062" y="-312.275" font-family="Times,serif" font-size="9.00">495</text>
</g>
<!-- ML&#45;1(I)&#45;&gt;495 -->
<g id="edge7" class="edge"><title>ML&#45;1(I)&#45;&gt;495</title>
<path fill="none" stroke="red" stroke-width="0.14344" d="M186.002,-392.213C250.437,-392.301 432.061,-387.564 571.062,-335.688 572.959,-334.981 574.857,-334.141 576.73,-333.213"/>
<polygon fill="red" stroke="red" stroke-width="0.14344" points="578.811,-336.053 585.733,-328.032 575.319,-329.986 578.811,-336.053"/>
</g>
<!-- ML&#45;1(I)&#45;&gt;85 -->
<g id="edge1" class="edge"><title>ML&#45;1(I)&#45;&gt;85</title>
<path fill="none" stroke="green" stroke-width="0.150545" stroke-dasharray="1,5" d="M160.883,-383.63C158.695,-364.717 156.266,-318.04 181.062,-293.262 218.112,-256.24 379.486,-242.63 445.628,-238.547"/>
<polygon fill="green" stroke="green" stroke-width="0.150545" points="445.974,-242.032 455.751,-237.951 445.563,-235.044 445.974,-242.032"/>
</g>
<!-- ML&#45;2(I) -->
<g id="node3" class="node"><title>ML&#45;2(I)</title>
<polygon fill="lightgray" stroke="black" points="773.562,-573.604 726.562,-573.604 726.562,-555.604 773.562,-555.604 773.562,-573.604"/>
<text text-anchor="middle" x="750.062" y="-562.404" font-family="Times,serif" font-size="9.00">ML&#45;2(I)</text>
</g>
<!-- ML&#45;3(I) -->
<g id="node4" class="node"><title>ML&#45;3(I)</title>
<polygon fill="lightgray" stroke="black" points="237.562,-323.475 190.562,-323.475 190.562,-305.475 237.562,-305.475 237.562,-323.475"/>
<text text-anchor="middle" x="214.062" y="-312.275" font-family="Times,serif" font-size="9.00">ML&#45;3(I)</text>
</g>
<!-- ML&#45;3(I)&#45;&gt;85 -->
<g id="edge4" class="edge"><title>ML&#45;3(I)&#45;&gt;85</title>
<path fill="none" stroke="green" stroke-width="0.406007" d="M224.833,-305.441C230.824,-301.296 238.566,-296.454 246.062,-293.262 314.848,-263.973 402.08,-247.801 446.036,-240.982"/>
<polygon fill="green" stroke="green" stroke-width="0.406007" points="446.623,-244.433 455.991,-239.484 445.582,-237.511 446.623,-244.433"/>
</g>
<!-- ML&#45;4(I) -->
<g id="node5" class="node"><title>ML&#45;4(I)</title>
<polygon fill="lightgray" stroke="black" points="302.562,-323.475 255.562,-323.475 255.562,-305.475 302.562,-305.475 302.562,-323.475"/>
<text text-anchor="middle" x="279.062" y="-312.275" font-family="Times,serif" font-size="9.00">ML&#45;4(I)</text>
</g>
<!-- ML&#45;4(I)&#45;&gt;85 -->
<g id="edge10" class="edge"><title>ML&#45;4(I)&#45;&gt;85</title>
<path fill="none" stroke="red" stroke-width="0.17615" d="M290.542,-305.313C296.479,-301.33 303.954,-296.676 311.062,-293.262 356.838,-271.278 413.522,-253.746 446.557,-244.419"/>
<polygon fill="red" stroke="red" stroke-width="0.17615" points="447.709,-247.731 456.408,-241.683 445.836,-240.986 447.709,-247.731"/>
</g>
<!-- MR&#45;5(I) -->
<g id="node6" class="node"><title>MR&#45;5(I)</title>
<polygon fill="lightgray" stroke="black" points="367.562,-323.475 320.562,-323.475 320.562,-305.475 367.562,-305.475 367.562,-323.475"/>
<text text-anchor="middle" x="344.062" y="-312.275" font-family="Times,serif" font-size="9.00">MR&#45;5(I)</text>
</g>
<!-- MR&#45;5(I)&#45;&gt;85 -->
<g id="edge23" class="edge"><title>MR&#45;5(I)&#45;&gt;85</title>
<path fill="none" stroke="red" stroke-width="0.352814" d="M356.754,-305.284C362.598,-301.558 369.645,-297.127 376.062,-293.262 400.866,-278.324 429.651,-261.922 449.578,-250.711"/>
<polygon fill="red" stroke="red" stroke-width="0.352814" points="451.319,-253.747 458.328,-245.802 447.894,-247.643 451.319,-253.747"/>
</g>
<!-- MR&#45;6(I) -->
<g id="node7" class="node"><title>MR&#45;6(I)</title>
<polygon fill="lightgray" stroke="black" points="432.562,-323.475 385.562,-323.475 385.562,-305.475 432.562,-305.475 432.562,-323.475"/>
<text text-anchor="middle" x="409.062" y="-312.275" font-family="Times,serif" font-size="9.00">MR&#45;6(I)</text>
</g>
<!-- MR&#45;6(I)&#45;&gt;85 -->
<g id="edge31" class="edge"><title>MR&#45;6(I)&#45;&gt;85</title>
<path fill="none" stroke="green" stroke-width="0.463506" d="M416.019,-305.296C425.501,-294.147 442.82,-273.783 456.081,-258.192"/>
<polygon fill="green" stroke="green" stroke-width="0.463506" points="458.77,-260.432 462.582,-250.547 453.437,-255.897 458.77,-260.432"/>
</g>
<!-- MR&#45;7(I) -->
<g id="node8" class="node"><title>MR&#45;7(I)</title>
<polygon fill="lightgray" stroke="black" points="497.562,-323.475 450.562,-323.475 450.562,-305.475 497.562,-305.475 497.562,-323.475"/>
<text text-anchor="middle" x="474.062" y="-312.275" font-family="Times,serif" font-size="9.00">MR&#45;7(I)</text>
</g>
<!-- MR&#45;7(I)&#45;&gt;85 -->
<g id="edge6" class="edge"><title>MR&#45;7(I)&#45;&gt;85</title>
<path fill="none" stroke="red" stroke-width="0.331363" stroke-dasharray="1,5" d="M474.062,-305.296C474.062,-295.722 474.062,-279.353 474.062,-265.047"/>
<polygon fill="red" stroke="red" stroke-width="0.331363" points="477.563,-264.654 474.062,-254.654 470.563,-264.655 477.563,-264.654"/>
</g>
<!-- MR&#45;8(I) -->
<g id="node9" class="node"><title>MR&#45;8(I)</title>
<polygon fill="lightgray" stroke="black" points="562.562,-323.475 515.562,-323.475 515.562,-305.475 562.562,-305.475 562.562,-323.475"/>
<text text-anchor="middle" x="539.062" y="-312.275" font-family="Times,serif" font-size="9.00">MR&#45;8(I)</text>
</g>
<!-- MR&#45;8(I)&#45;&gt;85 -->
<g id="edge18" class="edge"><title>MR&#45;8(I)&#45;&gt;85</title>
<path fill="none" stroke="green" stroke-width="0.441852" stroke-dasharray="1,5" d="M532.106,-305.296C522.624,-294.147 505.305,-273.783 492.044,-258.192"/>
<polygon fill="green" stroke="green" stroke-width="0.441852" points="494.688,-255.897 485.543,-250.547 489.355,-260.432 494.688,-255.897"/>
</g>
<!-- MR&#45;9(I) -->
<g id="node10" class="node"><title>MR&#45;9(I)</title>
<polygon fill="lightgray" stroke="black" points="708.562,-573.604 661.562,-573.604 661.562,-555.604 708.562,-555.604 708.562,-573.604"/>
<text text-anchor="middle" x="685.062" y="-562.404" font-family="Times,serif" font-size="9.00">MR&#45;9(I)</text>
</g>
<!-- MR&#45;9(I)&#45;&gt;85 -->
<g id="edge21" class="edge"><title>MR&#45;9(I)&#45;&gt;85</title>
<path fill="none" stroke="green" stroke-width="0.100371" stroke-dasharray="1,5" d="M684.54,-555.565C681.764,-515.14 667.5,-334.384 632.062,-293.262 599.163,-255.086 538.52,-242.836 502.691,-238.905"/>
<polygon fill="green" stroke="green" stroke-width="0.100371" points="502.712,-235.392 492.427,-237.933 502.052,-242.361 502.712,-235.392"/>
</g>
<!-- 158 -->
<g id="node27" class="node"><title>158</title>
<ellipse fill="white" stroke="black" cx="719.062" cy="-471.328" rx="21.4286" ry="21.4286"/>
<text text-anchor="middle" x="719.062" y="-469.128" font-family="Times,serif" font-size="9.00">158</text>
</g>
<!-- MR&#45;9(I)&#45;&gt;158 -->
<g id="edge22" class="edge"><title>MR&#45;9(I)&#45;&gt;158</title>
<path fill="none" stroke="green" stroke-width="0.335252" d="M688.08,-555.504C692.591,-543.391 701.319,-519.961 708.365,-501.047"/>
<polygon fill="green" stroke="green" stroke-width="0.335252" points="711.653,-502.245 711.864,-491.652 705.094,-499.801 711.653,-502.245"/>
</g>
<!-- ML&#45;0(O) -->
<g id="node11" class="node"><title>ML&#45;0(O)</title>
<ellipse fill="lightblue" stroke="black" cx="641.062" cy="-35.3553" rx="35.2113" ry="35.2113"/>
<text text-anchor="middle" x="641.062" y="-33.1553" font-family="Times,serif" font-size="9.00">ML&#45;0(O)</text>
</g>
<!-- ML&#45;1(O) -->
<g id="node12" class="node"><title>ML&#45;1(O)</title>
<ellipse fill="lightblue" stroke="black" cx="729.062" cy="-142.773" rx="35.2113" ry="35.2113"/>
<text text-anchor="middle" x="729.062" y="-140.573" font-family="Times,serif" font-size="9.00">ML&#45;1(O)</text>
</g>
<!-- ML&#45;2(O) -->
<g id="node13" class="node"><title>ML&#45;2(O)</title>
<ellipse fill="lightblue" stroke="black" cx="125.062" cy="-142.773" rx="35.2113" ry="35.2113"/>
<text text-anchor="middle" x="125.062" y="-140.573" font-family="Times,serif" font-size="9.00">ML&#45;2(O)</text>
</g>
<!-- ML&#45;3(O) -->
<g id="node14" class="node"><title>ML&#45;3(O)</title>
<ellipse fill="lightblue" stroke="black" cx="214.062" cy="-142.773" rx="35.2113" ry="35.2113"/>
<text text-anchor="middle" x="214.062" y="-140.573" font-family="Times,serif" font-size="9.00">ML&#45;3(O)</text>
</g>
<!-- ML&#45;4(O) -->
<g id="node15" class="node"><title>ML&#45;4(O)</title>
<ellipse fill="lightblue" stroke="black" cx="303.062" cy="-142.773" rx="35.2113" ry="35.2113"/>
<text text-anchor="middle" x="303.062" y="-140.573" font-family="Times,serif" font-size="9.00">ML&#45;4(O)</text>
</g>
<!-- MR&#45;5(O) -->
<g id="node16" class="node"><title>MR&#45;5(O)</title>
<ellipse fill="lightblue" stroke="black" cx="392.062" cy="-142.773" rx="36.125" ry="36.125"/>
<text text-anchor="middle" x="392.062" y="-140.573" font-family="Times,serif" font-size="9.00">MR&#45;5(O)</text>
</g>
<!-- MR&#45;6(O) -->
<g id="node17" class="node"><title>MR&#45;6(O)</title>
<ellipse fill="lightblue" stroke="black" cx="482.062" cy="-142.773" rx="36.125" ry="36.125"/>
<text text-anchor="middle" x="482.062" y="-140.573" font-family="Times,serif" font-size="9.00">MR&#45;6(O)</text>
</g>
<!-- MR&#45;8(O) -->
<g id="node19" class="node"><title>MR&#45;8(O)</title>
<ellipse fill="lightblue" stroke="black" cx="828.062" cy="-564.604" rx="36.125" ry="36.125"/>
<text text-anchor="middle" x="828.062" y="-562.404" font-family="Times,serif" font-size="9.00">MR&#45;8(O)</text>
</g>
<!-- MR&#45;9(O) -->
<g id="node20" class="node"><title>MR&#45;9(O)</title>
<ellipse fill="lightblue" stroke="black" cx="818.062" cy="-142.773" rx="36.125" ry="36.125"/>
<text text-anchor="middle" x="818.062" y="-140.573" font-family="Times,serif" font-size="9.00">MR&#45;9(O)</text>
</g>
<!-- 839 -->
<g id="node21" class="node"><title>839</title>
<ellipse fill="white" stroke="black" cx="738.062" cy="-392.902" rx="21.4286" ry="21.4286"/>
<text text-anchor="middle" x="738.062" y="-390.702" font-family="Times,serif" font-size="9.00">839</text>
</g>
<!-- 180 -->
<g id="node24" class="node"><title>180</title>
<ellipse fill="white" stroke="black" cx="738.062" cy="-314.475" rx="21.4286" ry="21.4286"/>
<text text-anchor="middle" x="738.062" y="-312.275" font-family="Times,serif" font-size="9.00">180</text>
</g>
<!-- 839&#45;&gt;180 -->
<g id="edge15" class="edge"><title>839&#45;&gt;180</title>
<path fill="none" stroke="green" stroke-width="1.21253" d="M738.062,-371.421C738.062,-363.562 738.062,-354.418 738.062,-345.827"/>
<polygon fill="green" stroke="green" stroke-width="1.21253" points="741.563,-345.748 738.062,-335.748 734.563,-345.748 741.563,-345.748"/>
</g>
<!-- 495&#45;&gt;85 -->
<g id="edge3" class="edge"><title>495&#45;&gt;85</title>
<path fill="none" stroke="green" stroke-width="0.25103" d="M584.786,-301.981C580.343,-299.088 575.55,-296.023 571.062,-293.262 546.843,-278.362 518.676,-262.161 498.955,-250.997"/>
<polygon fill="green" stroke="green" stroke-width="0.25103" points="500.436,-247.814 490.007,-245.948 496.996,-253.91 500.436,-247.814"/>
</g>
<!-- 515 -->
<g id="node23" class="node"><title>515</title>
<ellipse fill="white" stroke="black" cx="818.062" cy="-236.049" rx="21.4286" ry="21.4286"/>
<text text-anchor="middle" x="818.062" y="-233.849" font-family="Times,serif" font-size="9.00">515</text>
</g>
<!-- 515&#45;&gt;MR&#45;9(O) -->
<g id="edge29" class="edge"><title>515&#45;&gt;MR&#45;9(O)</title>
<path fill="none" stroke="red" stroke-width="0.402595" d="M818.062,-214.792C818.062,-207.16 818.062,-198.139 818.062,-189.133"/>
<polygon fill="red" stroke="red" stroke-width="0.402595" points="821.563,-189.046 818.062,-179.046 814.563,-189.046 821.563,-189.046"/>
</g>
<!-- 180&#45;&gt;85 -->
<g id="edge2" class="edge"><title>180&#45;&gt;85</title>
<path fill="none" stroke="green" stroke-width="1.53764" d="M720.749,-302.182C715.257,-298.958 709.052,-295.67 703.062,-293.262 633.409,-265.262 546.039,-248.532 502.075,-241.293"/>
<polygon fill="green" stroke="green" stroke-width="1.53764" points="502.549,-237.825 492.12,-239.695 501.439,-244.736 502.549,-237.825"/>
</g>
<!-- 85&#45;&gt;ML&#45;0(O) -->
<g id="edge8" class="edge"><title>85&#45;&gt;ML&#45;0(O)</title>
<path fill="none" stroke="red" stroke-width="0.179357" stroke-dasharray="1,5" d="M492.684,-235.481C529.435,-235.194 610.866,-228.657 647.062,-178.836 667.785,-150.313 663.597,-109.435 655.8,-78.7735"/>
<polygon fill="red" stroke="red" stroke-width="0.179357" points="659.081,-77.5083 653.048,-68.7994 652.334,-79.3702 659.081,-77.5083"/>
</g>
<!-- 85&#45;&gt;ML&#45;1(O) -->
<g id="edge26" class="edge"><title>85&#45;&gt;ML&#45;1(O)</title>
<path fill="none" stroke="green" stroke-width="0.485357" d="M492.173,-232.327C528.986,-226.326 614.607,-209.951 680.062,-178.836 684.494,-176.729 688.946,-174.217 693.264,-171.52"/>
<polygon fill="green" stroke="green" stroke-width="0.485357" points="695.493,-174.241 701.885,-165.791 691.619,-168.41 695.493,-174.241"/>
</g>
<!-- 85&#45;&gt;ML&#45;2(O) -->
<g id="edge16" class="edge"><title>85&#45;&gt;ML&#45;2(O)</title>
<path fill="none" stroke="green" stroke-width="0.35233" d="M455.699,-234.653C406.961,-232.982 271.156,-224.27 170.062,-178.836 166.407,-177.193 162.782,-175.193 159.27,-172.99"/>
<polygon fill="green" stroke="green" stroke-width="0.35233" points="161.044,-169.962 150.82,-167.185 157.08,-175.732 161.044,-169.962"/>
</g>
<!-- 85&#45;&gt;ML&#45;3(O) -->
<g id="edge12" class="edge"><title>85&#45;&gt;ML&#45;3(O)</title>
<path fill="none" stroke="red" stroke-width="0.252949" stroke-dasharray="1,5" d="M455.925,-232.832C417.791,-227.64 327.207,-212.497 259.062,-178.836 255.469,-177.06 251.887,-174.97 248.403,-172.709"/>
<polygon fill="red" stroke="red" stroke-width="0.252949" points="250.191,-169.689 239.992,-166.818 246.175,-175.422 250.191,-169.689"/>
</g>
<!-- 85&#45;&gt;ML&#45;4(O) -->
<g id="edge5" class="edge"><title>85&#45;&gt;ML&#45;4(O)</title>
<path fill="none" stroke="green" stroke-width="0.211724" d="M456.943,-229.074C431.889,-219.981 384.181,-201.327 347.062,-178.836 344.047,-177.009 341.008,-175 338.01,-172.897"/>
<polygon fill="green" stroke="green" stroke-width="0.211724" points="339.857,-169.91 329.731,-166.793 335.704,-175.544 339.857,-169.91"/>
</g>
<!-- 85&#45;&gt;MR&#45;5(O) -->
<g id="edge30" class="edge"><title>85&#45;&gt;MR&#45;5(O)</title>
<path fill="none" stroke="green" stroke-width="0.128449" d="M461.963,-221.581C451.644,-210.095 436.356,-193.077 422.706,-177.883"/>
<polygon fill="green" stroke="green" stroke-width="0.128449" points="425.039,-175.243 415.753,-170.143 419.832,-179.921 425.039,-175.243"/>
</g>
<!-- 85&#45;&gt;MR&#45;6(O) -->
<g id="edge19" class="edge"><title>85&#45;&gt;MR&#45;6(O)</title>
<path fill="none" stroke="green" stroke-width="0.427397" stroke-dasharray="1,5" d="M475.605,-217.45C476.32,-209.291 477.206,-199.18 478.091,-189.089"/>
<polygon fill="green" stroke="green" stroke-width="0.427397" points="481.581,-189.346 478.968,-179.079 474.608,-188.735 481.581,-189.346"/>
</g>
<!-- 85&#45;&gt;MR&#45;7(O) -->
<g id="edge13" class="edge"><title>85&#45;&gt;MR&#45;7(O)</title>
<path fill="none" stroke="green" stroke-width="0.104244" d="M455.552,-235.695C397.658,-237.042 215.85,-236.139 81.0624,-178.836 77.5761,-177.353 74.127,-175.531 70.7819,-173.504"/>
<polygon fill="green" stroke="green" stroke-width="0.104244" points="72.4685,-170.421 62.2155,-167.751 68.5659,-176.232 72.4685,-170.421"/>
</g>
<!-- 85&#45;&gt;MR&#45;9(O) -->
<g id="edge17" class="edge"><title>85&#45;&gt;MR&#45;9(O)</title>
<path fill="none" stroke="red" stroke-width="0.106683" d="M492.475,-234.575C540.712,-232.716 673.884,-223.587 773.062,-178.836 776.515,-177.277 779.941,-175.402 783.271,-173.339"/>
<polygon fill="red" stroke="red" stroke-width="0.106683" points="785.512,-176.048 791.812,-167.53 781.575,-170.26 785.512,-176.048"/>
</g>
<!-- 605 -->
<g id="node26" class="node"><title>605</title>
<ellipse fill="white" stroke="black" cx="557.062" cy="-142.773" rx="21.4286" ry="21.4286"/>
<text text-anchor="middle" x="557.062" y="-140.573" font-family="Times,serif" font-size="9.00">605</text>
</g>
<!-- 85&#45;&gt;605 -->
<g id="edge27" class="edge"><title>85&#45;&gt;605</title>
<path fill="none" stroke="green" stroke-width="0.50878" d="M486.451,-222.264C497.308,-210.976 513.438,-194.003 527.062,-178.836 530.368,-175.155 533.825,-171.211 537.167,-167.343"/>
<polygon fill="green" stroke="green" stroke-width="0.50878" points="539.934,-169.493 543.782,-159.622 534.618,-164.939 539.934,-169.493"/>
</g>
<!-- 949 -->
<g id="node28" class="node"><title>949</title>
<ellipse fill="white" stroke="black" cx="617.062" cy="-142.773" rx="21.4286" ry="21.4286"/>
<text text-anchor="middle" x="617.062" y="-140.573" font-family="Times,serif" font-size="9.00">949</text>
</g>
<!-- 85&#45;&gt;949 -->
<g id="edge24" class="edge"><title>85&#45;&gt;949</title>
<path fill="none" stroke="green" stroke-width="0.402873" d="M491.362,-228.959C514.646,-220.227 556.652,-202.551 587.062,-178.836 591.038,-175.735 594.873,-172.04 598.395,-168.229"/>
<polygon fill="green" stroke="green" stroke-width="0.402873" points="601.261,-170.264 605.13,-160.401 595.955,-165.698 601.261,-170.264"/>
</g>
<!-- 158&#45;&gt;839 -->
<g id="edge14" class="edge"><title>158&#45;&gt;839</title>
<path fill="none" stroke="green" stroke-width="0.687031" d="M723.955,-450.646C726.001,-442.42 728.421,-432.682 730.675,-423.616"/>
<polygon fill="green" stroke="green" stroke-width="0.687031" points="734.104,-424.331 733.12,-413.782 727.311,-422.642 734.104,-424.331"/>
</g>
<!-- 158&#45;&gt;180 -->
<g id="edge11" class="edge"><title>158&#45;&gt;180</title>
<path fill="none" stroke="red" stroke-width="0.297053" d="M735.237,-457.489C746.835,-447.177 761.522,-431.573 768.062,-414.115 777.17,-389.805 766.33,-361.381 755.22,-341.306"/>
<polygon fill="red" stroke="red" stroke-width="0.297053" points="758.092,-339.285 750,-332.447 752.061,-342.839 758.092,-339.285"/>
</g>
<!-- 158&#45;&gt;85 -->
<g id="edge9" class="edge"><title>158&#45;&gt;85</title>
<path fill="none" stroke="green" stroke-width="0.681047" d="M715.424,-450.313C707.509,-408.856 687.613,-315.593 665.062,-293.262 620.872,-249.501 544.452,-239.486 502.933,-237.397"/>
<polygon fill="green" stroke="green" stroke-width="0.681047" points="502.812,-233.89 492.687,-237.009 502.547,-240.885 502.812,-233.89"/>
</g>
<!-- 949&#45;&gt;ML&#45;0(O) -->
<g id="edge25" class="edge"><title>949&#45;&gt;ML&#45;0(O)</title>
<path fill="none" stroke="green" stroke-width="0.228537" d="M621.577,-121.945C624.269,-110.121 627.797,-94.621 631.111,-80.0649"/>
<polygon fill="green" stroke="green" stroke-width="0.228537" points="634.551,-80.7226 633.358,-70.1951 627.726,-79.1686 634.551,-80.7226"/>
</g>
</g>
</svg>
