<?xml version="1.0" encoding="UTF-8" standalone="no"?>
<!DOCTYPE svg PUBLIC "-//W3C//DTD SVG 1.1//EN"
 "http://www.w3.org/Graphics/SVG/1.1/DTD/svg11.dtd">
<!-- Generated by graphviz version 2.38.0 (20140413.2041)
 -->
<!-- Title: %3 Pages: 1 -->
<svg width="854pt" height="502pt"
 viewBox="0.00 0.00 854.12 501.96" xmlns="http://www.w3.org/2000/svg" xmlns:xlink="http://www.w3.org/1999/xlink">
<g id="graph0" class="graph" transform="scale(1 1) rotate(0) translate(4 497.955)">
<title>%3</title>
<polygon fill="white" stroke="none" points="-4,4 -4,-497.955 850.125,-497.955 850.125,4 -4,4"/>
<!-- ML&#45;0(I) -->
<g id="node1" class="node"><title>ML&#45;0(I)</title>
<polygon fill="lightgray" stroke="black" points="111.562,-216.765 64.5624,-216.765 64.5624,-198.765 111.562,-198.765 111.562,-216.765"/>
<text text-anchor="middle" x="88.0624" y="-205.565" font-family="Times,serif" font-size="9.00">ML&#45;0(I)</text>
</g>
<!-- 85 -->
<g id="node25" class="node"><title>85</title>
<ellipse fill="white" stroke="black" cx="422.062" cy="-129.338" rx="18.2703" ry="18.2703"/>
<text text-anchor="middle" x="422.062" y="-127.138" font-family="Times,serif" font-size="9.00">85</text>
</g>
<!-- ML&#45;0(I)&#45;&gt;85 -->
<g id="edge26" class="edge"><title>ML&#45;0(I)&#45;&gt;85</title>
<path fill="none" stroke="green" stroke-width="0.179957" d="M100.981,-198.637C108.133,-194.465 117.322,-189.626 126.062,-186.551 220.696,-153.26 339.668,-138.301 393.397,-132.89"/>
<polygon fill="green" stroke="green" stroke-width="0.179957" points="393.929,-136.355 403.544,-131.905 393.252,-129.388 393.929,-136.355"/>
</g>
<!-- ML&#45;1(I) -->
<g id="node2" class="node"><title>ML&#45;1(I)</title>
<polygon fill="lightgray" stroke="black" points="163.562,-295.191 116.562,-295.191 116.562,-277.191 163.562,-277.191 163.562,-295.191"/>
<text text-anchor="middle" x="140.062" y="-283.991" font-family="Times,serif" font-size="9.00">ML&#45;1(I)</text>
</g>
<!-- MR&#45;7(O) -->
<g id="node18" class="node"><title>MR&#45;7(O)</title>
<ellipse fill="lightblue" stroke="black" cx="36.0624" cy="-36.0624" rx="36.125" ry="36.125"/>
<text text-anchor="middle" x="36.0624" y="-33.8624" font-family="Times,serif" font-size="9.00">MR&#45;7(O)</text>
</g>
<!-- ML&#45;1(I)&#45;&gt;MR&#45;7(O) -->
<g id="edge20" class="edge"><title>ML&#45;1(I)&#45;&gt;MR&#45;7(O)</title>
<path fill="none" stroke="green" stroke-width="0.362331" d="M118.194,-277.145C98.1252,-268.518 69.405,-252.765 55.0624,-228.978 28.2075,-184.439 26.9472,-123.291 30.1084,-82.088"/>
<polygon fill="green" stroke="green" stroke-width="0.362331" points="33.6002,-82.3342 30.9945,-72.0648 26.6274,-81.7177 33.6002,-82.3342"/>
</g>
<!-- 495 -->
<g id="node22" class="node"><title>495</title>
<ellipse fill="white" stroke="black" cx="580.062" cy="-207.765" rx="21.4286" ry="21.4286"/>
<text text-anchor="middle" x="580.062" y="-205.565" font-family="Times,serif" font-size="9.00">495</text>
</g>
<!-- ML&#45;1(I)&#45;&gt;495 -->
<g id="edge7" class="edge"><title>ML&#45;1(I)&#45;&gt;495</title>
<path fill="none" stroke="green" stroke-width="0.383548" d="M164.002,-285.503C228.437,-285.59 410.061,-280.854 549.062,-228.978 550.959,-228.27 552.857,-227.431 554.73,-226.502"/>
<polygon fill="green" stroke="green" stroke-width="0.383548" points="556.811,-229.343 563.733,-221.322 553.319,-223.276 556.811,-229.343"/>
</g>
<!-- ML&#45;1(I)&#45;&gt;85 -->
<g id="edge8" class="edge"><title>ML&#45;1(I)&#45;&gt;85</title>
<path fill="none" stroke="green" stroke-width="0.394446" stroke-dasharray="1,5" d="M138.919,-276.955C136.807,-258.118 134.528,-211.588 159.062,-186.551 191.586,-153.361 332.532,-137.8 393.634,-132.519"/>
<polygon fill="green" stroke="green" stroke-width="0.394446" points="394.061,-135.995 403.736,-131.677 393.48,-129.019 394.061,-135.995"/>
</g>
<!-- ML&#45;2(I) -->
<g id="node3" class="node"><title>ML&#45;2(I)</title>
<polygon fill="lightgray" stroke="black" points="751.562,-466.893 704.562,-466.893 704.562,-448.893 751.562,-448.893 751.562,-466.893"/>
<text text-anchor="middle" x="728.062" y="-455.693" font-family="Times,serif" font-size="9.00">ML&#45;2(I)</text>
</g>
<!-- ML&#45;3(I) -->
<g id="node4" class="node"><title>ML&#45;3(I)</title>
<polygon fill="lightgray" stroke="black" points="215.562,-216.765 168.562,-216.765 168.562,-198.765 215.562,-198.765 215.562,-216.765"/>
<text text-anchor="middle" x="192.062" y="-205.565" font-family="Times,serif" font-size="9.00">ML&#45;3(I)</text>
</g>
<!-- ML&#45;3(I)&#45;&gt;85 -->
<g id="edge4" class="edge"><title>ML&#45;3(I)&#45;&gt;85</title>
<path fill="none" stroke="green" stroke-width="0.282186" d="M203.17,-198.635C209.132,-194.564 216.742,-189.82 224.062,-186.551 282.044,-160.658 354.938,-143.626 394.101,-135.63"/>
<polygon fill="green" stroke="green" stroke-width="0.282186" points="394.863,-139.047 403.985,-133.659 393.494,-132.182 394.863,-139.047"/>
</g>
<!-- ML&#45;4(I) -->
<g id="node5" class="node"><title>ML&#45;4(I)</title>
<polygon fill="lightgray" stroke="black" points="280.562,-216.765 233.562,-216.765 233.562,-198.765 280.562,-198.765 280.562,-216.765"/>
<text text-anchor="middle" x="257.062" y="-205.565" font-family="Times,serif" font-size="9.00">ML&#45;4(I)</text>
</g>
<!-- ML&#45;4(I)&#45;&gt;85 -->
<g id="edge10" class="edge"><title>ML&#45;4(I)&#45;&gt;85</title>
<path fill="none" stroke="green" stroke-width="0.645122" d="M268.943,-198.607C274.855,-194.718 282.191,-190.143 289.062,-186.551 324.719,-167.914 367.942,-150.551 395.23,-140.19"/>
<polygon fill="green" stroke="green" stroke-width="0.645122" points="396.728,-143.366 404.859,-136.574 394.267,-136.813 396.728,-143.366"/>
</g>
<!-- MR&#45;5(I) -->
<g id="node6" class="node"><title>MR&#45;5(I)</title>
<polygon fill="lightgray" stroke="black" points="345.562,-216.765 298.562,-216.765 298.562,-198.765 345.562,-198.765 345.562,-216.765"/>
<text text-anchor="middle" x="322.062" y="-205.565" font-family="Times,serif" font-size="9.00">MR&#45;5(I)</text>
</g>
<!-- MR&#45;5(I)&#45;&gt;85 -->
<g id="edge23" class="edge"><title>MR&#45;5(I)&#45;&gt;85</title>
<path fill="none" stroke="red" stroke-width="0.10318" d="M332.764,-198.586C348.706,-186.401 379.048,-163.213 399.903,-147.274"/>
<polygon fill="red" stroke="red" stroke-width="0.10318" points="402.101,-149.999 407.921,-141.146 397.85,-144.438 402.101,-149.999"/>
</g>
<!-- MR&#45;6(I) -->
<g id="node7" class="node"><title>MR&#45;6(I)</title>
<polygon fill="lightgray" stroke="black" points="410.562,-216.765 363.562,-216.765 363.562,-198.765 410.562,-198.765 410.562,-216.765"/>
<text text-anchor="middle" x="387.062" y="-205.565" font-family="Times,serif" font-size="9.00">MR&#45;6(I)</text>
</g>
<!-- MR&#45;6(I)&#45;&gt;85 -->
<g id="edge29" class="edge"><title>MR&#45;6(I)&#45;&gt;85</title>
<path fill="none" stroke="green" stroke-width="0.692946" d="M390.808,-198.586C395.466,-188.414 403.636,-170.573 410.455,-155.684"/>
<polygon fill="green" stroke="green" stroke-width="0.692946" points="413.709,-156.985 414.691,-146.435 407.345,-154.07 413.709,-156.985"/>
</g>
<!-- MR&#45;7(I) -->
<g id="node8" class="node"><title>MR&#45;7(I)</title>
<polygon fill="lightgray" stroke="black" points="475.562,-216.765 428.562,-216.765 428.562,-198.765 475.562,-198.765 475.562,-216.765"/>
<text text-anchor="middle" x="452.062" y="-205.565" font-family="Times,serif" font-size="9.00">MR&#45;7(I)</text>
</g>
<!-- MR&#45;7(I)&#45;&gt;85 -->
<g id="edge6" class="edge"><title>MR&#45;7(I)&#45;&gt;85</title>
<path fill="none" stroke="red" stroke-width="0.314104" stroke-dasharray="1,5" d="M448.852,-198.586C444.922,-188.574 438.075,-171.131 432.287,-156.386"/>
<polygon fill="red" stroke="red" stroke-width="0.314104" points="435.41,-154.763 428.498,-146.733 428.894,-157.321 435.41,-154.763"/>
</g>
<!-- MR&#45;8(I) -->
<g id="node9" class="node"><title>MR&#45;8(I)</title>
<polygon fill="lightgray" stroke="black" points="540.562,-216.765 493.562,-216.765 493.562,-198.765 540.562,-198.765 540.562,-216.765"/>
<text text-anchor="middle" x="517.062" y="-205.565" font-family="Times,serif" font-size="9.00">MR&#45;8(I)</text>
</g>
<!-- MR&#45;8(I)&#45;&gt;85 -->
<g id="edge18" class="edge"><title>MR&#45;8(I)&#45;&gt;85</title>
<path fill="none" stroke="green" stroke-width="0.563397" stroke-dasharray="1,5" d="M506.896,-198.586C491.986,-186.59 463.817,-163.929 444.042,-148.02"/>
<polygon fill="green" stroke="green" stroke-width="0.563397" points="446.129,-145.208 436.144,-141.666 441.742,-150.662 446.129,-145.208"/>
</g>
<!-- MR&#45;9(I) -->
<g id="node10" class="node"><title>MR&#45;9(I)</title>
<polygon fill="lightgray" stroke="black" points="686.562,-466.893 639.562,-466.893 639.562,-448.893 686.562,-448.893 686.562,-466.893"/>
<text text-anchor="middle" x="663.062" y="-455.693" font-family="Times,serif" font-size="9.00">MR&#45;9(I)</text>
</g>
<!-- MR&#45;9(I)&#45;&gt;85 -->
<g id="edge21" class="edge"><title>MR&#45;9(I)&#45;&gt;85</title>
<path fill="none" stroke="red" stroke-width="0.388267" stroke-dasharray="1,5" d="M662.581,-448.819C660,-408.221 646.542,-226.751 610.062,-186.551 568.767,-141.045 492.328,-131.759 450.773,-130.243"/>
<polygon fill="red" stroke="red" stroke-width="0.388267" points="450.598,-126.738 440.519,-130.003 450.434,-133.736 450.598,-126.738"/>
</g>
<!-- 158 -->
<g id="node27" class="node"><title>158</title>
<ellipse fill="white" stroke="black" cx="697.062" cy="-364.617" rx="21.4286" ry="21.4286"/>
<text text-anchor="middle" x="697.062" y="-362.417" font-family="Times,serif" font-size="9.00">158</text>
</g>
<!-- MR&#45;9(I)&#45;&gt;158 -->
<g id="edge22" class="edge"><title>MR&#45;9(I)&#45;&gt;158</title>
<path fill="none" stroke="red" stroke-width="0.286888" d="M666.08,-448.793C670.591,-436.681 679.319,-413.251 686.365,-394.337"/>
<polygon fill="red" stroke="red" stroke-width="0.286888" points="689.653,-395.534 689.864,-384.941 683.094,-393.091 689.653,-395.534"/>
</g>
<!-- ML&#45;0(O) -->
<g id="node11" class="node"><title>ML&#45;0(O)</title>
<ellipse fill="lightblue" stroke="black" cx="632.062" cy="-36.0624" rx="35.2113" ry="35.2113"/>
<text text-anchor="middle" x="632.062" y="-33.8624" font-family="Times,serif" font-size="9.00">ML&#45;0(O)</text>
</g>
<!-- ML&#45;1(O) -->
<g id="node12" class="node"><title>ML&#45;1(O)</title>
<ellipse fill="lightblue" stroke="black" cx="721.062" cy="-36.0624" rx="35.2113" ry="35.2113"/>
<text text-anchor="middle" x="721.062" y="-33.8624" font-family="Times,serif" font-size="9.00">ML&#45;1(O)</text>
</g>
<!-- ML&#45;2(O) -->
<g id="node13" class="node"><title>ML&#45;2(O)</title>
<ellipse fill="lightblue" stroke="black" cx="125.062" cy="-36.0624" rx="35.2113" ry="35.2113"/>
<text text-anchor="middle" x="125.062" y="-33.8624" font-family="Times,serif" font-size="9.00">ML&#45;2(O)</text>
</g>
<!-- ML&#45;3(O) -->
<g id="node14" class="node"><title>ML&#45;3(O)</title>
<ellipse fill="lightblue" stroke="black" cx="214.062" cy="-36.0624" rx="35.2113" ry="35.2113"/>
<text text-anchor="middle" x="214.062" y="-33.8624" font-family="Times,serif" font-size="9.00">ML&#45;3(O)</text>
</g>
<!-- ML&#45;4(O) -->
<g id="node15" class="node"><title>ML&#45;4(O)</title>
<ellipse fill="lightblue" stroke="black" cx="303.062" cy="-36.0624" rx="35.2113" ry="35.2113"/>
<text text-anchor="middle" x="303.062" y="-33.8624" font-family="Times,serif" font-size="9.00">ML&#45;4(O)</text>
</g>
<!-- MR&#45;5(O) -->
<g id="node16" class="node"><title>MR&#45;5(O)</title>
<ellipse fill="lightblue" stroke="black" cx="392.062" cy="-36.0624" rx="36.125" ry="36.125"/>
<text text-anchor="middle" x="392.062" y="-33.8624" font-family="Times,serif" font-size="9.00">MR&#45;5(O)</text>
</g>
<!-- MR&#45;6(O) -->
<g id="node17" class="node"><title>MR&#45;6(O)</title>
<ellipse fill="lightblue" stroke="black" cx="482.062" cy="-36.0624" rx="36.125" ry="36.125"/>
<text text-anchor="middle" x="482.062" y="-33.8624" font-family="Times,serif" font-size="9.00">MR&#45;6(O)</text>
</g>
<!-- MR&#45;8(O) -->
<g id="node19" class="node"><title>MR&#45;8(O)</title>
<ellipse fill="lightblue" stroke="black" cx="806.062" cy="-457.893" rx="36.125" ry="36.125"/>
<text text-anchor="middle" x="806.062" y="-455.693" font-family="Times,serif" font-size="9.00">MR&#45;8(O)</text>
</g>
<!-- MR&#45;9(O) -->
<g id="node20" class="node"><title>MR&#45;9(O)</title>
<ellipse fill="lightblue" stroke="black" cx="810.062" cy="-36.0624" rx="36.125" ry="36.125"/>
<text text-anchor="middle" x="810.062" y="-33.8624" font-family="Times,serif" font-size="9.00">MR&#45;9(O)</text>
</g>
<!-- 839 -->
<g id="node21" class="node"><title>839</title>
<ellipse fill="white" stroke="black" cx="716.062" cy="-286.191" rx="21.4286" ry="21.4286"/>
<text text-anchor="middle" x="716.062" y="-283.991" font-family="Times,serif" font-size="9.00">839</text>
</g>
<!-- 180 -->
<g id="node24" class="node"><title>180</title>
<ellipse fill="white" stroke="black" cx="716.062" cy="-207.765" rx="21.4286" ry="21.4286"/>
<text text-anchor="middle" x="716.062" y="-205.565" font-family="Times,serif" font-size="9.00">180</text>
</g>
<!-- 839&#45;&gt;180 -->
<g id="edge15" class="edge"><title>839&#45;&gt;180</title>
<path fill="none" stroke="green" stroke-width="1.17282" d="M716.062,-264.71C716.062,-256.851 716.062,-247.707 716.062,-239.117"/>
<polygon fill="green" stroke="green" stroke-width="1.17282" points="719.563,-239.037 716.062,-229.037 712.563,-239.037 719.563,-239.037"/>
</g>
<!-- 495&#45;&gt;85 -->
<g id="edge3" class="edge"><title>495&#45;&gt;85</title>
<path fill="none" stroke="green" stroke-width="0.640382" d="M562.984,-194.927C558.538,-192.041 553.693,-189.064 549.062,-186.551 515.387,-168.274 474.585,-151.028 448.479,-140.576"/>
<polygon fill="green" stroke="green" stroke-width="0.640382" points="449.496,-137.214 438.91,-136.785 446.918,-143.722 449.496,-137.214"/>
</g>
<!-- 515 -->
<g id="node23" class="node"><title>515</title>
<ellipse fill="white" stroke="black" cx="810.062" cy="-129.338" rx="21.4286" ry="21.4286"/>
<text text-anchor="middle" x="810.062" y="-127.138" font-family="Times,serif" font-size="9.00">515</text>
</g>
<!-- 515&#45;&gt;MR&#45;9(O) -->
<g id="edge27" class="edge"><title>515&#45;&gt;MR&#45;9(O)</title>
<path fill="none" stroke="red" stroke-width="0.47494" d="M810.062,-108.081C810.062,-100.449 810.062,-91.4288 810.062,-82.4228"/>
<polygon fill="red" stroke="red" stroke-width="0.47494" points="813.563,-82.3356 810.062,-72.3357 806.563,-82.3357 813.563,-82.3356"/>
</g>
<!-- 180&#45;&gt;85 -->
<g id="edge2" class="edge"><title>180&#45;&gt;85</title>
<path fill="none" stroke="green" stroke-width="0.953089" d="M698.788,-195.371C693.298,-192.143 687.084,-188.878 681.062,-186.551 600.66,-155.484 499.24,-139.784 450.616,-133.596"/>
<polygon fill="green" stroke="green" stroke-width="0.953089" points="450.874,-130.102 440.521,-132.353 450.018,-137.049 450.874,-130.102"/>
</g>
<!-- 85&#45;&gt;ML&#45;0(O) -->
<g id="edge1" class="edge"><title>85&#45;&gt;ML&#45;0(O)</title>
<path fill="none" stroke="green" stroke-width="0.312914" stroke-dasharray="1,5" d="M440.207,-124.269C471.482,-116.802 537.001,-99.1577 587.062,-72.1249 590.494,-70.272 593.934,-68.1595 597.3,-65.9113"/>
<polygon fill="green" stroke="green" stroke-width="0.312914" points="599.337,-68.7574 605.463,-60.1134 595.284,-63.0503 599.337,-68.7574"/>
</g>
<!-- 85&#45;&gt;ML&#45;1(O) -->
<g id="edge24" class="edge"><title>85&#45;&gt;ML&#45;1(O)</title>
<path fill="none" stroke="green" stroke-width="0.602128" d="M440.501,-127.049C483.639,-123.451 593.719,-110.876 676.062,-72.1249 679.689,-70.4182 683.293,-68.375 686.792,-66.1442"/>
<polygon fill="green" stroke="green" stroke-width="0.602128" points="689.001,-68.872 695.224,-60.2975 685.012,-63.1196 689.001,-68.872"/>
</g>
<!-- 85&#45;&gt;ML&#45;2(O) -->
<g id="edge16" class="edge"><title>85&#45;&gt;ML&#45;2(O)</title>
<path fill="none" stroke="red" stroke-width="0.240386" d="M403.769,-127.018C360.97,-123.356 251.756,-110.653 170.062,-72.1249 166.437,-70.4152 162.834,-68.3699 159.336,-66.1377"/>
<polygon fill="red" stroke="red" stroke-width="0.240386" points="161.116,-63.1133 150.905,-60.2891 157.126,-68.8649 161.116,-63.1133"/>
</g>
<!-- 85&#45;&gt;ML&#45;3(O) -->
<g id="edge12" class="edge"><title>85&#45;&gt;ML&#45;3(O)</title>
<path fill="none" stroke="green" stroke-width="0.274333" stroke-dasharray="1,5" d="M404.141,-124.226C373.249,-116.696 308.53,-98.9569 259.062,-72.1249 255.635,-70.2655 252.197,-68.1487 248.833,-65.8975"/>
<polygon fill="green" stroke="green" stroke-width="0.274333" points="250.85,-63.0372 240.672,-60.0952 246.794,-68.7423 250.85,-63.0372"/>
</g>
<!-- 85&#45;&gt;ML&#45;4(O) -->
<g id="edge5" class="edge"><title>85&#45;&gt;ML&#45;4(O)</title>
<path fill="none" stroke="red" stroke-width="0.256217" d="M407.589,-117.687C392.413,-106.474 367.92,-88.2458 347.062,-72.1249 344.273,-69.9689 341.396,-67.7239 338.51,-65.4577"/>
<polygon fill="red" stroke="red" stroke-width="0.256217" points="340.442,-62.5233 330.425,-59.072 336.103,-68.0167 340.442,-62.5233"/>
</g>
<!-- 85&#45;&gt;MR&#45;5(O) -->
<g id="edge28" class="edge"><title>85&#45;&gt;MR&#45;5(O)</title>
<path fill="none" stroke="green" stroke-width="0.63598" d="M416.56,-111.597C413.656,-102.76 409.944,-91.4676 406.293,-80.3605"/>
<polygon fill="green" stroke="green" stroke-width="0.63598" points="409.57,-79.121 403.123,-70.7139 402.92,-81.3068 409.57,-79.121"/>
</g>
<!-- 85&#45;&gt;MR&#45;6(O) -->
<g id="edge19" class="edge"><title>85&#45;&gt;MR&#45;6(O)</title>
<path fill="none" stroke="green" stroke-width="0.392176" d="M431.702,-113.673C438.496,-103.338 447.927,-88.9917 456.792,-75.505"/>
<polygon fill="green" stroke="green" stroke-width="0.392176" points="459.935,-77.0961 462.503,-66.8173 454.085,-73.251 459.935,-77.0961"/>
</g>
<!-- 85&#45;&gt;MR&#45;7(O) -->
<g id="edge13" class="edge"><title>85&#45;&gt;MR&#45;7(O)</title>
<path fill="none" stroke="green" stroke-width="0.538108" stroke-dasharray="1,5" d="M403.417,-128.435C350.526,-128.058 195.938,-122.415 81.0624,-72.1249 77.5921,-70.6057 74.1542,-68.7577 70.8166,-66.7131"/>
<polygon fill="green" stroke="green" stroke-width="0.538108" points="72.5074,-63.6315 62.2621,-60.9325 68.5881,-69.4315 72.5074,-63.6315"/>
</g>
<!-- 85&#45;&gt;MR&#45;9(O) -->
<g id="edge17" class="edge"><title>85&#45;&gt;MR&#45;9(O)</title>
<path fill="none" stroke="red" stroke-width="0.729258" d="M440.436,-128.461C493.272,-128.169 649.231,-122.769 765.062,-72.1249 768.533,-70.6073 771.972,-68.7604 775.31,-66.7166"/>
<polygon fill="red" stroke="red" stroke-width="0.729258" points="777.538,-69.4354 783.865,-60.9372 773.619,-63.635 777.538,-69.4354"/>
</g>
<!-- 605 -->
<g id="node26" class="node"><title>605</title>
<ellipse fill="white" stroke="black" cx="557.062" cy="-36.0624" rx="21.4286" ry="21.4286"/>
<text text-anchor="middle" x="557.062" y="-33.8624" font-family="Times,serif" font-size="9.00">605</text>
</g>
<!-- 85&#45;&gt;605 -->
<g id="edge25" class="edge"><title>85&#45;&gt;605</title>
<path fill="none" stroke="green" stroke-width="0.203321" d="M438.85,-121.67C460.594,-112.538 499.026,-94.672 527.062,-72.1249 530.992,-68.9651 534.802,-65.2397 538.315,-61.4178"/>
<polygon fill="green" stroke="green" stroke-width="0.203321" points="541.182,-63.4515 545.049,-53.5876 535.875,-58.887 541.182,-63.4515"/>
</g>
<!-- 158&#45;&gt;839 -->
<g id="edge14" class="edge"><title>158&#45;&gt;839</title>
<path fill="none" stroke="green" stroke-width="0.50552" d="M701.955,-343.936C704.001,-335.709 706.421,-325.971 708.675,-316.905"/>
<polygon fill="green" stroke="green" stroke-width="0.50552" points="712.104,-317.621 711.12,-307.072 705.311,-315.932 712.104,-317.621"/>
</g>
<!-- 158&#45;&gt;180 -->
<g id="edge11" class="edge"><title>158&#45;&gt;180</title>
<path fill="none" stroke="green" stroke-width="0.931715" stroke-dasharray="1,5" d="M713.237,-350.778C724.835,-340.466 739.522,-324.862 746.062,-307.404 755.17,-283.095 744.33,-254.67 733.22,-234.596"/>
<polygon fill="green" stroke="green" stroke-width="0.931715" points="736.092,-232.575 728,-225.736 730.061,-236.128 736.092,-232.575"/>
</g>
<!-- 158&#45;&gt;85 -->
<g id="edge9" class="edge"><title>158&#45;&gt;85</title>
<path fill="none" stroke="red" stroke-width="0.286526" d="M692.192,-343.827C681.24,-299.987 654.718,-197.672 643.062,-186.551 615.394,-160.152 503.627,-141.584 450.448,-134.062"/>
<polygon fill="red" stroke="red" stroke-width="0.286526" points="450.723,-130.567 440.338,-132.665 449.765,-137.501 450.723,-130.567"/>
</g>
</g>
</svg>
