<?xml version="1.0" encoding="UTF-8" standalone="no"?>
<!DOCTYPE svg PUBLIC "-//W3C//DTD SVG 1.1//EN"
 "http://www.w3.org/Graphics/SVG/1.1/DTD/svg11.dtd">
<!-- Generated by graphviz version 2.38.0 (20140413.2041)
 -->
<!-- Title: %3 Pages: 1 -->
<svg width="922pt" height="393pt"
 viewBox="0.00 0.00 921.52 393.45" xmlns="http://www.w3.org/2000/svg" xmlns:xlink="http://www.w3.org/1999/xlink">
<g id="graph0" class="graph" transform="scale(1 1) rotate(0) translate(4 389.446)">
<title>%3</title>
<polygon fill="white" stroke="none" points="-4,4 -4,-389.446 917.521,-389.446 917.521,4 -4,4"/>
<!-- ML&#45;0(I) -->
<g id="node1" class="node"><title>ML&#45;0(I)</title>
<polygon fill="lightgray" stroke="black" points="149.562,-319.233 102.562,-319.233 102.562,-301.233 149.562,-301.233 149.562,-319.233"/>
<text text-anchor="middle" x="126.062" y="-308.033" font-family="Times,serif" font-size="9.00">ML&#45;0(I)</text>
</g>
<!-- MR&#45;5(O) -->
<g id="node16" class="node"><title>MR&#45;5(O)</title>
<ellipse fill="lightblue" stroke="black" cx="126.062" cy="-144.187" rx="36.125" ry="36.125"/>
<text text-anchor="middle" x="126.062" y="-141.987" font-family="Times,serif" font-size="9.00">MR&#45;5(O)</text>
</g>
<!-- ML&#45;0(I)&#45;&gt;MR&#45;5(O) -->
<g id="edge22" class="edge"><title>ML&#45;0(I)&#45;&gt;MR&#45;5(O)</title>
<path fill="none" stroke="red" stroke-width="0.501801" d="M126.062,-300.872C126.062,-280.879 126.062,-229.114 126.062,-190.732"/>
<polygon fill="red" stroke="red" stroke-width="0.501801" points="129.563,-190.299 126.062,-180.299 122.563,-190.299 129.563,-190.299"/>
</g>
<!-- MR&#45;7(O) -->
<g id="node18" class="node"><title>MR&#45;7(O)</title>
<ellipse fill="lightblue" stroke="black" cx="36.0624" cy="-144.187" rx="36.125" ry="36.125"/>
<text text-anchor="middle" x="36.0624" y="-141.987" font-family="Times,serif" font-size="9.00">MR&#45;7(O)</text>
</g>
<!-- ML&#45;0(I)&#45;&gt;MR&#45;7(O) -->
<g id="edge19" class="edge"><title>ML&#45;0(I)&#45;&gt;MR&#45;7(O)</title>
<path fill="none" stroke="red" stroke-width="0.953155" stroke-dasharray="1,5" d="M121.476,-300.872C109.968,-279.897 79.2763,-223.954 58.0039,-185.181"/>
<polygon fill="red" stroke="red" stroke-width="0.953155" points="60.9627,-183.297 53.0842,-176.213 54.8256,-186.664 60.9627,-183.297"/>
</g>
<!-- 74 -->
<g id="node21" class="node"><title>74</title>
<ellipse fill="white" stroke="black" cx="482.062" cy="-234.635" rx="18.2703" ry="18.2703"/>
<text text-anchor="middle" x="482.062" y="-232.435" font-family="Times,serif" font-size="9.00">74</text>
</g>
<!-- ML&#45;0(I)&#45;&gt;74 -->
<g id="edge13" class="edge"><title>ML&#45;0(I)&#45;&gt;74</title>
<path fill="none" stroke="green" stroke-width="0.375134" stroke-dasharray="1,5" d="M149.853,-301.618C163.079,-297.548 179.886,-292.644 195.062,-289.019 288.946,-266.597 401.985,-247.99 453.716,-239.932"/>
<polygon fill="green" stroke="green" stroke-width="0.375134" points="454.447,-243.361 463.796,-238.375 453.379,-236.443 454.447,-243.361"/>
</g>
<!-- ML&#45;1(I) -->
<g id="node2" class="node"><title>ML&#45;1(I)</title>
<polygon fill="lightgray" stroke="black" points="251.562,-319.233 204.562,-319.233 204.562,-301.233 251.562,-301.233 251.562,-319.233"/>
<text text-anchor="middle" x="228.062" y="-308.033" font-family="Times,serif" font-size="9.00">ML&#45;1(I)</text>
</g>
<!-- ML&#45;0(O) -->
<g id="node11" class="node"><title>ML&#45;0(O)</title>
<ellipse fill="lightblue" stroke="black" cx="215.062" cy="-144.187" rx="35.2113" ry="35.2113"/>
<text text-anchor="middle" x="215.062" y="-141.987" font-family="Times,serif" font-size="9.00">ML&#45;0(O)</text>
</g>
<!-- ML&#45;1(I)&#45;&gt;ML&#45;0(O) -->
<g id="edge8" class="edge"><title>ML&#45;1(I)&#45;&gt;ML&#45;0(O)</title>
<path fill="none" stroke="green" stroke-width="0.223297" stroke-dasharray="1,5" d="M227.4,-300.872C225.806,-280.76 221.664,-228.495 218.617,-190.046"/>
<polygon fill="green" stroke="green" stroke-width="0.223297" points="222.069,-189.298 217.79,-179.606 215.091,-189.852 222.069,-189.298"/>
</g>
<!-- ML&#45;1(I)&#45;&gt;74 -->
<g id="edge28" class="edge"><title>ML&#45;1(I)&#45;&gt;74</title>
<path fill="none" stroke="green" stroke-width="0.368282" d="M246.373,-301.173C255.744,-297.217 267.397,-292.554 278.062,-289.019 339.975,-268.498 414.519,-250.683 454.125,-241.747"/>
<polygon fill="green" stroke="green" stroke-width="0.368282" points="455.105,-245.115 464.101,-239.518 453.579,-238.283 455.105,-245.115"/>
</g>
<!-- ML&#45;2(I) -->
<g id="node3" class="node"><title>ML&#45;2(I)</title>
<polygon fill="lightgray" stroke="black" points="903.562,-319.233 856.562,-319.233 856.562,-301.233 903.562,-301.233 903.562,-319.233"/>
<text text-anchor="middle" x="880.062" y="-308.033" font-family="Times,serif" font-size="9.00">ML&#45;2(I)</text>
</g>
<!-- MR&#45;9(O) -->
<g id="node20" class="node"><title>MR&#45;9(O)</title>
<ellipse fill="lightblue" stroke="black" cx="684.062" cy="-36.0624" rx="36.125" ry="36.125"/>
<text text-anchor="middle" x="684.062" y="-33.8624" font-family="Times,serif" font-size="9.00">MR&#45;9(O)</text>
</g>
<!-- ML&#45;2(I)&#45;&gt;MR&#45;9(O) -->
<g id="edge29" class="edge"><title>ML&#45;2(I)&#45;&gt;MR&#45;9(O)</title>
<path fill="none" stroke="green" stroke-width="0.305737" stroke-dasharray="1,5" d="M883.954,-300.95C897.191,-271.432 937.27,-169.849 893.062,-108.125 856.187,-56.6379 779.835,-42.011 730.335,-38.1108"/>
<polygon fill="green" stroke="green" stroke-width="0.305737" points="730.415,-34.6085 720.203,-37.432 729.947,-41.5928 730.415,-34.6085"/>
</g>
<!-- ML&#45;2(I)&#45;&gt;74 -->
<g id="edge4" class="edge"><title>ML&#45;2(I)&#45;&gt;74</title>
<path fill="none" stroke="green" stroke-width="0.332075" d="M856.295,-302.491C840.91,-298.272 820.398,-292.917 802.062,-289.019 695.148,-266.295 566.44,-247.346 510.418,-239.507"/>
<polygon fill="green" stroke="green" stroke-width="0.332075" points="510.598,-235.998 500.211,-238.089 509.635,-242.931 510.598,-235.998"/>
</g>
<!-- ML&#45;3(I) -->
<g id="node4" class="node"><title>ML&#45;3(I)</title>
<polygon fill="lightgray" stroke="black" points="563.562,-319.233 516.562,-319.233 516.562,-301.233 563.562,-301.233 563.562,-319.233"/>
<text text-anchor="middle" x="540.062" y="-308.033" font-family="Times,serif" font-size="9.00">ML&#45;3(I)</text>
</g>
<!-- ML&#45;3(I)&#45;&gt;74 -->
<g id="edge26" class="edge"><title>ML&#45;3(I)&#45;&gt;74</title>
<path fill="none" stroke="red" stroke-width="0.419522" stroke-dasharray="1,5" d="M533.634,-301.075C525.448,-290.688 510.984,-272.334 499.453,-257.702"/>
<polygon fill="red" stroke="red" stroke-width="0.419522" points="502.011,-255.293 493.072,-249.605 496.513,-259.626 502.011,-255.293"/>
</g>
<!-- ML&#45;4(I) -->
<g id="node5" class="node"><title>ML&#45;4(I)</title>
<polygon fill="lightgray" stroke="black" points="628.562,-319.233 581.562,-319.233 581.562,-301.233 628.562,-301.233 628.562,-319.233"/>
<text text-anchor="middle" x="605.062" y="-308.033" font-family="Times,serif" font-size="9.00">ML&#45;4(I)</text>
</g>
<!-- ML&#45;4(I)&#45;&gt;74 -->
<g id="edge16" class="edge"><title>ML&#45;4(I)&#45;&gt;74</title>
<path fill="none" stroke="green" stroke-width="0.276382" d="M591.921,-301.124C585.883,-297.414 578.622,-292.973 572.062,-289.019 549.936,-275.682 524.619,-260.688 506.485,-249.995"/>
<polygon fill="green" stroke="green" stroke-width="0.276382" points="508.104,-246.886 497.711,-244.826 504.551,-252.917 508.104,-246.886"/>
</g>
<!-- MR&#45;5(I) -->
<g id="node6" class="node"><title>MR&#45;5(I)</title>
<polygon fill="lightgray" stroke="black" points="476.562,-385.446 429.562,-385.446 429.562,-367.446 476.562,-367.446 476.562,-385.446"/>
<text text-anchor="middle" x="453.062" y="-374.246" font-family="Times,serif" font-size="9.00">MR&#45;5(I)</text>
</g>
<!-- MR&#45;5(I)&#45;&gt;74 -->
<g id="edge6" class="edge"><title>MR&#45;5(I)&#45;&gt;74</title>
<path fill="none" stroke="red" stroke-width="0.62583" stroke-dasharray="1,5" d="M450.576,-367.13C446.306,-351.47 438.8,-316.69 447.062,-289.019 450.474,-277.592 457.202,-266.339 463.855,-257.133"/>
<polygon fill="red" stroke="red" stroke-width="0.62583" points="466.789,-259.058 470.101,-248.994 461.236,-254.797 466.789,-259.058"/>
</g>
<!-- 432 -->
<g id="node23" class="node"><title>432</title>
<ellipse fill="white" stroke="black" cx="477.062" cy="-310.233" rx="21.4286" ry="21.4286"/>
<text text-anchor="middle" x="477.062" y="-308.033" font-family="Times,serif" font-size="9.00">432</text>
</g>
<!-- MR&#45;5(I)&#45;&gt;432 -->
<g id="edge7" class="edge"><title>MR&#45;5(I)&#45;&gt;432</title>
<path fill="none" stroke="red" stroke-width="0.330068" d="M456.102,-367.313C458.721,-360.306 462.663,-349.758 466.424,-339.695"/>
<polygon fill="red" stroke="red" stroke-width="0.330068" points="469.704,-340.919 469.926,-330.326 463.147,-338.468 469.704,-340.919"/>
</g>
<!-- MR&#45;6(I) -->
<g id="node7" class="node"><title>MR&#45;6(I)</title>
<polygon fill="lightgray" stroke="black" points="732.562,-319.233 685.562,-319.233 685.562,-301.233 732.562,-301.233 732.562,-319.233"/>
<text text-anchor="middle" x="709.062" y="-308.033" font-family="Times,serif" font-size="9.00">MR&#45;6(I)</text>
</g>
<!-- MR&#45;6(I)&#45;&gt;74 -->
<g id="edge1" class="edge"><title>MR&#45;6(I)&#45;&gt;74</title>
<path fill="none" stroke="green" stroke-width="0.14754" d="M695.681,-301.21C688.548,-297.168 679.522,-292.418 671.062,-289.019 615.632,-266.746 547.547,-249.955 510.093,-241.575"/>
<polygon fill="green" stroke="green" stroke-width="0.14754" points="510.456,-238.071 499.938,-239.342 508.953,-244.908 510.456,-238.071"/>
</g>
<!-- MR&#45;7(I) -->
<g id="node8" class="node"><title>MR&#45;7(I)</title>
<polygon fill="lightgray" stroke="black" points="737.562,-385.446 690.562,-385.446 690.562,-367.446 737.562,-367.446 737.562,-385.446"/>
<text text-anchor="middle" x="714.062" y="-374.246" font-family="Times,serif" font-size="9.00">MR&#45;7(I)</text>
</g>
<!-- MR&#45;7(I)&#45;&gt;74 -->
<g id="edge20" class="edge"><title>MR&#45;7(I)&#45;&gt;74</title>
<path fill="none" stroke="green" stroke-width="0.197167" stroke-dasharray="1,5" d="M706.891,-367.171C688.604,-346.102 641.37,-291.887 637.062,-289.019 597.259,-262.521 542.941,-247.81 510.303,-240.828"/>
<polygon fill="green" stroke="green" stroke-width="0.197167" points="510.616,-237.32 500.118,-238.751 509.217,-244.179 510.616,-237.32"/>
</g>
<!-- 198 -->
<g id="node24" class="node"><title>198</title>
<ellipse fill="white" stroke="black" cx="772.062" cy="-310.233" rx="21.4286" ry="21.4286"/>
<text text-anchor="middle" x="772.062" y="-308.033" font-family="Times,serif" font-size="9.00">198</text>
</g>
<!-- MR&#45;7(I)&#45;&gt;198 -->
<g id="edge3" class="edge"><title>MR&#45;7(I)&#45;&gt;198</title>
<path fill="none" stroke="red" stroke-width="0.115173" d="M721.408,-367.313C728.888,-359.032 740.832,-345.808 751.244,-334.281"/>
<polygon fill="red" stroke="red" stroke-width="0.115173" points="754.029,-336.42 758.134,-326.653 748.834,-331.728 754.029,-336.42"/>
</g>
<!-- MR&#45;8(I) -->
<g id="node9" class="node"><title>MR&#45;8(I)</title>
<polygon fill="lightgray" stroke="black" points="334.562,-319.233 287.562,-319.233 287.562,-301.233 334.562,-301.233 334.562,-319.233"/>
<text text-anchor="middle" x="311.062" y="-308.033" font-family="Times,serif" font-size="9.00">MR&#45;8(I)</text>
</g>
<!-- MR&#45;8(I)&#45;&gt;74 -->
<g id="edge24" class="edge"><title>MR&#45;8(I)&#45;&gt;74</title>
<path fill="none" stroke="green" stroke-width="0.512297" stroke-dasharray="1,5" d="M322.593,-301.174C328.543,-297.218 336.015,-292.556 343.062,-289.019 380.515,-270.228 426.266,-253.831 454.792,-244.329"/>
<polygon fill="green" stroke="green" stroke-width="0.512297" points="456.066,-247.595 464.475,-241.149 453.882,-240.944 456.066,-247.595"/>
</g>
<!-- MR&#45;9(I) -->
<g id="node10" class="node"><title>MR&#45;9(I)</title>
<polygon fill="lightgray" stroke="black" points="399.562,-319.233 352.562,-319.233 352.562,-301.233 399.562,-301.233 399.562,-319.233"/>
<text text-anchor="middle" x="376.062" y="-308.033" font-family="Times,serif" font-size="9.00">MR&#45;9(I)</text>
</g>
<!-- MR&#45;9(I)&#45;&gt;74 -->
<g id="edge18" class="edge"><title>MR&#45;9(I)&#45;&gt;74</title>
<path fill="none" stroke="red" stroke-width="0.144886" d="M387.811,-301.075C404.867,-289.233 436.837,-267.036 458.774,-251.804"/>
<polygon fill="red" stroke="red" stroke-width="0.144886" points="460.987,-254.529 467.205,-245.95 456.995,-248.779 460.987,-254.529"/>
</g>
<!-- ML&#45;1(O) -->
<g id="node12" class="node"><title>ML&#45;1(O)</title>
<ellipse fill="lightblue" stroke="black" cx="759.062" cy="-144.187" rx="35.2113" ry="35.2113"/>
<text text-anchor="middle" x="759.062" y="-141.987" font-family="Times,serif" font-size="9.00">ML&#45;1(O)</text>
</g>
<!-- ML&#45;2(O) -->
<g id="node13" class="node"><title>ML&#45;2(O)</title>
<ellipse fill="lightblue" stroke="black" cx="304.062" cy="-144.187" rx="35.2113" ry="35.2113"/>
<text text-anchor="middle" x="304.062" y="-141.987" font-family="Times,serif" font-size="9.00">ML&#45;2(O)</text>
</g>
<!-- ML&#45;3(O) -->
<g id="node14" class="node"><title>ML&#45;3(O)</title>
<ellipse fill="lightblue" stroke="black" cx="393.062" cy="-144.187" rx="35.2113" ry="35.2113"/>
<text text-anchor="middle" x="393.062" y="-141.987" font-family="Times,serif" font-size="9.00">ML&#45;3(O)</text>
</g>
<!-- ML&#45;4(O) -->
<g id="node15" class="node"><title>ML&#45;4(O)</title>
<ellipse fill="lightblue" stroke="black" cx="482.062" cy="-144.187" rx="35.2113" ry="35.2113"/>
<text text-anchor="middle" x="482.062" y="-141.987" font-family="Times,serif" font-size="9.00">ML&#45;4(O)</text>
</g>
<!-- MR&#45;6(O) -->
<g id="node17" class="node"><title>MR&#45;6(O)</title>
<ellipse fill="lightblue" stroke="black" cx="571.062" cy="-144.187" rx="36.125" ry="36.125"/>
<text text-anchor="middle" x="571.062" y="-141.987" font-family="Times,serif" font-size="9.00">MR&#45;6(O)</text>
</g>
<!-- MR&#45;8(O) -->
<g id="node19" class="node"><title>MR&#45;8(O)</title>
<ellipse fill="lightblue" stroke="black" cx="848.062" cy="-144.187" rx="36.125" ry="36.125"/>
<text text-anchor="middle" x="848.062" y="-141.987" font-family="Times,serif" font-size="9.00">MR&#45;8(O)</text>
</g>
<!-- 74&#45;&gt;ML&#45;0(O) -->
<g id="edge30" class="edge"><title>74&#45;&gt;ML&#45;0(O)</title>
<path fill="none" stroke="green" stroke-width="0.722314" d="M463.632,-231.869C424.429,-227.553 330.594,-214.229 260.062,-180.25 256.452,-178.51 252.858,-176.444 249.366,-174.199"/>
<polygon fill="green" stroke="green" stroke-width="0.722314" points="251.15,-171.176 240.944,-168.331 247.148,-176.92 251.15,-171.176"/>
</g>
<!-- 74&#45;&gt;ML&#45;1(O) -->
<g id="edge5" class="edge"><title>74&#45;&gt;ML&#45;1(O)</title>
<path fill="none" stroke="red" stroke-width="0.113462" d="M500.399,-232.128C540.799,-228.242 639.791,-215.582 714.062,-180.25 717.682,-178.528 721.281,-176.474 724.777,-174.237"/>
<polygon fill="red" stroke="red" stroke-width="0.113462" points="726.99,-176.961 733.204,-168.38 722.995,-171.213 726.99,-176.961"/>
</g>
<!-- 74&#45;&gt;ML&#45;2(O) -->
<g id="edge14" class="edge"><title>74&#45;&gt;ML&#45;2(O)</title>
<path fill="none" stroke="red" stroke-width="0.296111" d="M464.558,-228.353C438.424,-220.089 388.104,-202.697 349.062,-180.25 345.682,-178.306 342.276,-176.131 338.934,-173.841"/>
<polygon fill="red" stroke="red" stroke-width="0.296111" points="340.964,-170.99 330.805,-167.981 336.87,-176.668 340.964,-170.99"/>
</g>
<!-- 74&#45;&gt;ML&#45;3(O) -->
<g id="edge11" class="edge"><title>74&#45;&gt;ML&#45;3(O)</title>
<path fill="none" stroke="green" stroke-width="0.492503" d="M469.311,-220.962C457.828,-209.551 440.46,-192.29 425.199,-177.124"/>
<polygon fill="green" stroke="green" stroke-width="0.492503" points="427.471,-174.448 417.911,-169.882 422.537,-179.413 427.471,-174.448"/>
</g>
<!-- 74&#45;&gt;ML&#45;4(O) -->
<g id="edge17" class="edge"><title>74&#45;&gt;ML&#45;4(O)</title>
<path fill="none" stroke="red" stroke-width="0.157073" stroke-dasharray="1,5" d="M482.062,-216.16C482.062,-208.544 482.062,-199.233 482.062,-189.892"/>
<polygon fill="red" stroke="red" stroke-width="0.157073" points="485.563,-189.825 482.062,-179.825 478.563,-189.825 485.563,-189.825"/>
</g>
<!-- 74&#45;&gt;MR&#45;5(O) -->
<g id="edge9" class="edge"><title>74&#45;&gt;MR&#45;5(O)</title>
<path fill="none" stroke="green" stroke-width="0.324448" d="M463.643,-233.552C414.111,-232.695 274.793,-226.07 171.062,-180.25 167.597,-178.719 164.163,-176.863 160.828,-174.813"/>
<polygon fill="green" stroke="green" stroke-width="0.324448" points="162.52,-171.732 152.277,-169.024 158.595,-177.529 162.52,-171.732"/>
</g>
<!-- 74&#45;&gt;MR&#45;6(O) -->
<g id="edge15" class="edge"><title>74&#45;&gt;MR&#45;6(O)</title>
<path fill="none" stroke="green" stroke-width="0.342828" d="M494.814,-220.962C506.214,-209.633 523.416,-192.538 538.597,-177.452"/>
<polygon fill="green" stroke="green" stroke-width="0.342828" points="541.226,-179.772 545.852,-170.241 536.292,-174.807 541.226,-179.772"/>
</g>
<!-- 74&#45;&gt;MR&#45;7(O) -->
<g id="edge25" class="edge"><title>74&#45;&gt;MR&#45;7(O)</title>
<path fill="none" stroke="green" stroke-width="0.833979" d="M463.798,-232.475C395.025,-227.916 151.982,-209.994 81.0624,-180.25 77.569,-178.785 74.1149,-176.974 70.7663,-174.955"/>
<polygon fill="green" stroke="green" stroke-width="0.833979" points="72.4511,-171.871 62.1946,-169.215 68.5561,-177.687 72.4511,-171.871"/>
</g>
<!-- 74&#45;&gt;MR&#45;8(O) -->
<g id="edge21" class="edge"><title>74&#45;&gt;MR&#45;8(O)</title>
<path fill="none" stroke="red" stroke-width="0.105388" d="M500.702,-233.683C551.493,-233.165 695.709,-227.338 803.062,-180.25 806.532,-178.728 809.969,-176.878 813.306,-174.833"/>
<polygon fill="red" stroke="red" stroke-width="0.105388" points="815.535,-177.55 821.86,-169.05 811.615,-171.751 815.535,-177.55"/>
</g>
<!-- 74&#45;&gt;MR&#45;9(O) -->
<g id="edge31" class="edge"><title>74&#45;&gt;MR&#45;9(O)</title>
<path fill="none" stroke="red" stroke-width="0.248454" stroke-dasharray="1,5" d="M500.382,-230.734C528.523,-225.407 582.634,-211.597 616.062,-180.25 624.123,-172.691 648.839,-118.248 666.136,-78.7307"/>
<polygon fill="red" stroke="red" stroke-width="0.248454" points="669.352,-80.1115 670.141,-69.5461 662.936,-77.3137 669.352,-80.1115"/>
</g>
<!-- 299 -->
<g id="node22" class="node"><title>299</title>
<ellipse fill="white" stroke="black" cx="684.062" cy="-144.187" rx="21.4286" ry="21.4286"/>
<text text-anchor="middle" x="684.062" y="-141.987" font-family="Times,serif" font-size="9.00">299</text>
</g>
<!-- 74&#45;&gt;299 -->
<g id="edge23" class="edge"><title>74&#45;&gt;299</title>
<path fill="none" stroke="red" stroke-width="0.445358" d="M500.047,-230.781C531.974,-225.11 599.823,-210.293 649.062,-180.25 654.33,-177.036 659.395,-172.869 663.956,-168.536"/>
<polygon fill="red" stroke="red" stroke-width="0.445358" points="666.615,-170.823 671.104,-161.226 661.61,-165.929 666.615,-170.823"/>
</g>
<!-- 299&#45;&gt;MR&#45;9(O) -->
<g id="edge27" class="edge"><title>299&#45;&gt;MR&#45;9(O)</title>
<path fill="none" stroke="red" stroke-width="0.373168" d="M684.062,-122.725C684.062,-111.287 684.062,-96.5488 684.062,-82.5323"/>
<polygon fill="red" stroke="red" stroke-width="0.373168" points="687.563,-82.5111 684.062,-72.5111 680.563,-82.5112 687.563,-82.5111"/>
</g>
<!-- 432&#45;&gt;74 -->
<g id="edge2" class="edge"><title>432&#45;&gt;74</title>
<path fill="none" stroke="red" stroke-width="0.529433" d="M478.455,-288.731C478.992,-280.836 479.613,-271.687 480.188,-263.23"/>
<polygon fill="red" stroke="red" stroke-width="0.529433" points="483.694,-263.25 480.88,-253.035 476.71,-262.775 483.694,-263.25"/>
</g>
<!-- 198&#45;&gt;MR&#45;8(O) -->
<g id="edge10" class="edge"><title>198&#45;&gt;MR&#45;8(O)</title>
<path fill="none" stroke="red" stroke-width="0.179714" d="M780.633,-290.733C792.307,-265.535 813.53,-219.726 829.057,-186.211"/>
<polygon fill="red" stroke="red" stroke-width="0.179714" points="832.245,-187.656 833.273,-177.111 825.893,-184.713 832.245,-187.656"/>
</g>
<!-- 198&#45;&gt;74 -->
<g id="edge12" class="edge"><title>198&#45;&gt;74</title>
<path fill="none" stroke="green" stroke-width="1.2134" d="M755.319,-296.692C750.866,-293.82 745.934,-291.025 741.062,-289.019 661.336,-256.197 559.202,-242.802 510.441,-237.994"/>
<polygon fill="green" stroke="green" stroke-width="1.2134" points="510.609,-234.495 500.326,-237.046 509.956,-241.464 510.609,-234.495"/>
</g>
</g>
</svg>
